<?xml version="1.0" encoding="utf-8"?>
<!-- Generator: Adobe Illustrator 24.1.2, SVG Export Plug-In . SVG Version: 6.00 Build 0)  -->
<svg version="1.1" id="Layer_1" xmlns="http://www.w3.org/2000/svg" xmlns:xlink="http://www.w3.org/1999/xlink" x="0px" y="0px"
	 viewBox="0 0 100 100" style="enable-background:new 0 0 100 100;" xml:space="preserve">
<style type="text/css">
	.Graphic_x0020_Style{fill:#99CCFF;}
	.st0{fill:none;stroke:#000000;stroke-width:0.1417;stroke-linecap:round;stroke-linejoin:round;}
</style>
<g>
	<path class="Graphic_x0020_Style" d="M95.3,57.1c0,0.5-0.5,0.9-0.8,1.3c-0.2,0.4-0.3,1.2-0.7,1.4c-0.4,0.2-1.1,0.1-1.5,0.1
		c-0.7,0-0.7-0.1-1.5-0.1c-0.7,0-0.7,0.5-1.4,0.5c-0.7,0-0.7-0.2-1.5-0.2c-0.7,0-0.7-0.6-1.5-0.6c-0.7,0-0.7,0.3-1.5,0.3
		c-0.7,0-0.7,0.5-1.5,0.5c-0.7,0-0.7-0.5-1.5-0.5c-0.7,0-0.7-0.2-1.5-0.2c-0.7,0-0.7-0.1-1.5-0.1c-0.7,0-0.7,0.4-1.5,0.4
		c-0.7,0-0.7,0.2-1.5,0.2c-0.7,0-0.7,0.1-1.5,0.2c-0.7,0-0.7-0.2-1.5-0.2c-0.7,0-0.7-0.5-1.5-0.5c-0.7,0-0.7,0.3-1.5,0.3
		c-0.7,0-0.7-0.2-1.5-0.2c-0.7,0-0.7,0.3-1.5,0.3c-0.7,0-0.7,0.1-1.5,0.1c-0.7,0-0.7-0.2-1.5-0.2c-0.7,0-0.7,0-1.5,0
		c-0.7,0-0.7,0.2-1.5,0.2c-0.7,0-0.7-0.2-1.5-0.2s-0.7,0.3-1.5,0.2c-0.5,0-0.9-0.5-1.4-0.6c-0.5-0.1-1.1,0.2-1.6,0
		c-0.5-0.2-0.6-0.9-1-1.2c-0.4-0.3-1-0.3-1.3-0.7c-0.3-0.4-0.4-0.9-0.6-1.4c-0.2-0.5-0.5-0.9-0.5-1.3c0-0.5-0.2-1,0-1.5
		c0.1-0.3-0.3-0.3-0.8-0.4c-0.4-0.1-0.8,0-1,0.1c-0.7,0.3-0.7,0.2-1.3,0.5c-0.7,0.3-0.7,0.3-1.3,0.6c-0.7,0.3-0.8-0.1-1.5,0.2
		c-0.7,0.3-0.6,0.4-1.2,0.7c-0.7,0.3-0.6,0.5-1.2,0.8c-0.7,0.3-0.6,0.4-1.3,0.7c-0.7,0.3-0.7,0.2-1.4,0.5c-0.7,0.3-0.6,0.4-1.3,0.7
		c-0.7,0.3-0.8,0-1.5,0.3c-0.7,0.3-0.5,0.5-1.2,0.8c-0.7,0.3-0.6,0.3-1.3,0.6c-0.7,0.3-0.7,0.2-1.4,0.5c-0.7,0.3-0.7,0.3-1.3,0.6
		c-0.1,0.1-0.6,0.4-1.4,0.4c-0.4,0-0.9-0.1-1.5-0.1c-0.4,0-0.9-0.4-1.5-0.4c-0.5,0-0.9,0.3-1.5,0.3c-0.5,0-1,0.4-1.5,0.4
		c-0.5,0-1,0-1.5-0.1c-0.5,0-1-0.5-1.4-0.5c-0.5,0-1,0-1.5,0c-0.5,0-1,0.5-1.5,0.5c-0.5,0-1-0.1-1.5-0.1c-0.5,0-1-0.8-1.4-0.9
		c-0.5,0-1,0.5-1.5,0.5c-0.5,0-1,0.1-1.5,0.1c-0.5,0-1,0.1-1.5,0c-0.5,0-1-0.6-1.4-0.6c-0.5,0-1,0.4-1.5,0.4c-0.6,0-1-0.3-1.4-0.3
		c-0.9,0-0.7-0.1-1.4-0.1c-0.6,0-1-0.4-1.4-0.8c-0.4-0.4-1.1-0.8-1.2-1.4c0-0.6,0.5-1.2,0.9-1.6c0.4-0.4,0.9-0.9,1.5-0.9
		c0.7,0,0.7,0.3,1.5,0.3c0.7,0,0.7-0.3,1.4-0.4c0.7,0,0.7,0.4,1.5,0.4c0.7,0,0.7-0.5,1.4-0.5c0.7,0,0.7,0.2,1.5,0.2
		c0.7,0,0.7,0.2,1.5,0.1c0.7,0,0.7-0.6,1.4-0.6c0.7,0,0.7,0.2,1.4,0.2c0.7,0,0.7-0.2,1.4-0.2c0.7,0,0.7,0.1,1.4,0.1
		c0.7,0,0.7-0.3,1.4-0.3c0.7,0,0.7,0.3,1.5,0.3c0.7,0,0.7,0,1.4,0c0.7,0,0.7-0.3,1.4-0.3c0.7,0,0.7-0.1,1.4-0.1s0.7-0.2,1.4-0.2
		c0.1,0,0.2,0.2,0.3,0.2c0.6-0.4,0.4-0.8,1-1.2c0.6-0.4,0.8-0.2,1.4-0.6c0.6-0.4,0.7-0.4,1.3-0.8c0.6-0.4,0.5-0.6,1.1-1
		c0.6-0.4,0.8-0.2,1.4-0.7c0.6-0.4,0.4-0.7,1.1-1.1c0.6-0.4,0.8-0.1,1.4-0.6c0.6-0.4,0.3-0.8,0.9-1.3c0.6-0.4,0.5-0.5,1.1-1
		c0.6-0.4,1,0.2,1.6-0.3c0.6-0.4,0.3-0.9,0.9-1.3c0.6-0.4,0.7-0.3,1.2-0.8c0.2-0.4,0.6-0.7,1-1.1c0.3-0.4,0.8-0.6,1.1-1
		c0.4-0.3,0.7-0.7,1.1-1c0.4-0.3,1-0.3,1.4-0.5c0.4-0.2,0.7-0.9,1.2-1.1c0.5-0.2,1-0.4,1.5-0.5c0.5-0.1,1-0.2,1.5-0.2
		c0.5,0,1,0.5,1.5,0.5c0.5,0,0.9,0.1,1.4,0.1c0.5,0,1-0.3,1.4-0.2c0.5,0,0.9-0.3,1.4-0.2c0.5,0,0.9,0.3,1.4,0.3
		c0.5,0,0.9,0.5,1.4,0.5c0.5,0,1-0.5,1.4-0.5c0.5,0,0.9,0.4,1.4,0.4c0.5,0,0.9,0.1,1.4,0.1c0.5,0,0.9,0.3,1.4,0.3
		c0.5,0,1-0.4,1.4-0.4c0.5,0,1,0,1.4,0c0.5,0,0.9,0.4,1.4,0.4c0.5,0,1-0.3,1.4-0.3c0.5,0,1-0.3,1.4-0.2c0.5,0,0.9,0.7,1.4,0.8
		c0.5,0,1-0.3,1.4-0.2c0.5,0.1,0.9,0.6,1.3,0.6c0.5,0.1,1.1-0.7,1.5-0.6c0.5,0.1,0.8,0.8,1.3,0.9c0.5,0.1,1-0.1,1.5,0
		c0.5,0.1,1,0,1.4,0.2c0.5,0.1,1,0.2,1.4,0.4c0.5,0.2,0.8,0.7,1.2,0.9c0.5,0.3,0.9,0.5,1.3,0.8c0.4,0.3,0.9,0.6,1.2,0.9
		c0.3,0.4,0,1.2,0.3,1.6c0.2,0.5,0.7,0.8,0.8,1.2c0.1,0.5,0.3,1,0.3,1.5c0,0.5-0.3,1-0.4,1.4c-0.1,0.5,0.1,1,0,1.5
		c-0.2,0.5-0.2,1.1-0.5,1.4c-0.4,0.5-0.9,0.8-1.4,0.9c0.7,0.2,0.7,0.2,1.5,0.3s0.8-0.5,1.6-0.4c0.5,0,1,0.4,1.5,0.7
		c0.4,0.3,1,0.6,1.3,1C95.2,55.9,95.3,56.5,95.3,57.1z"/>
</g>
<g>
	<path class="Graphic_x0020_Style" d="M30.1,53.5c0.7-0.3,0.6-0.4,1.2-0.8c0.6-0.4,0.6-0.4,1.2-0.8c0.6-0.4,0.6-0.4,1.2-0.8
		c0.6-0.4,0.5-0.5,1.1-0.9c0.6-0.4,0.6-0.3,1.2-0.8c0.6-0.4,0.6-0.5,1.1-0.9c0.6-0.4,0.6-0.5,1.1-0.9c0.6-0.4,0.6-0.4,1.2-0.8
		c0.6-0.4,0.6-0.4,1.2-0.9c0.6-0.4,0.6-0.4,1.2-0.9c0.6-0.4,0.7-0.3,1.1-0.8c-0.3-0.3-0.5-0.6-0.9-0.9c-0.3-0.3-0.6-0.6-1-0.9
		c-0.4-0.2-0.8-0.5-1.2-0.7c-0.4-0.2-0.8-0.4-1.2-0.5c-0.4-0.1-0.9-0.1-1.3-0.2c-0.4-0.1-0.9-0.1-1.3-0.1c-0.5,0-0.9,0-1.4,0.1
		c-0.5,0.1-0.9,0.2-1.3,0.4c-0.4,0.1-0.9,0.2-1.3,0.4c-0.4,0.2-0.8,0.5-1.2,0.7c-0.4,0.3-0.7,0.6-1,1c-0.3,0.3-0.7,0.6-1,1
		c-0.3,0.4-0.5,0.8-0.7,1.2c-0.2,0.4-0.4,0.8-0.5,1.3c-0.1,0.4-0.4,0.9-0.4,1.3C27,49,27,49.5,27,50c0,0.4,0,0.9,0,1.3
		c0.1,0.4,0.2,0.8,0.3,1.2c0.1,0.4,0.3,0.8,0.5,1.2c0.5,0.1,0.6,0,1.1,0C29.5,53.7,29.6,53.7,30.1,53.5z"/>
</g>
<g class="Graphic_x0020_Style_x0020_2">
	<g class="Graphic_x0020_Style_x0020_2">
		<path class="st0" d="M89,53.9c0.2,0.1,2.3-5.1,2.5-5"/>
		<path class="st0" d="M5.3,57.1c0,0,0.1-0.2,0.1-0.2c0.1,0.1,0.1,2.7,0.2,2.8c0.2,0.1,1.8-4,2-3.9c0.2,0.1-0.8,4.2-0.6,4.3
			C7.2,60.2,8.8,55.9,9,56c0.2,0.1-0.9,4.4-0.7,4.5c0.2,0.1,2.3-5.2,2.6-5.1c0.2,0.1-1.1,4.7-0.9,4.8c0.2,0.1,2.2-4.9,2.5-4.8
			c0.2,0.1-1.1,4.7-0.9,4.8c0.2,0.1,2.2-5,2.5-4.8c0.2,0.1-1.2,4.9-0.9,5c0.3,0.1,2.2-4.9,2.4-4.8c0.2,0.1-1.2,4.9-1,5
			c0.3,0.1,2.5-5.6,2.8-5.5c0.3,0.1-1.5,5.4-1.2,5.5c0.3,0.1,2.4-5.4,2.7-5.3c0.2,0.1-1.4,5.2-1.1,5.3c0.3,0.1,2.7-5.9,3-5.8
			c0.3,0.1-1.6,5.6-1.4,5.8c0.3,0.1,2.7-5.9,2.9-5.7c0.2,0.1-1.5,5.4-1.2,5.5c0.3,0.1,2.5-5.6,2.8-5.4c0.3,0.1-1.6,5.6-1.4,5.8
			c0.3,0.1,2.6-5.9,2.9-5.7c0.3,0.1-1.6,5.6-1.3,5.7c0.3,0.2,2.9-6.3,3.2-6.2c0.3,0.1-1.8,5.9-1.5,6.1c0.3,0.2,2.8-6.2,3.1-6.1
			c0.3,0.1-1.7,5.8-1.4,6c0.3,0.2,2.6-5.9,2.9-5.7c0.3,0.1-1.8,6-1.5,6.1c0.4,0.2,3.6-8.1,4-7.9c0.4,0.2-2.8,7.7-2.4,7.9
			c0.5,0.2,4.5-10,5-9.8c0.5,0.2-3.8,9.4-3.3,9.7c0.6,0.3,5.1-11.4,5.7-11.1c0.5,0.3-4.4,10.5-3.9,10.7c0.6,0.3,5.8-12.9,6.4-12.6
			c0.6,0.3-5.1,11.6-4.5,11.9c0.7,0.3,6.5-14.4,7.2-14.1c0.6,0.3-5.6,12.6-5,12.9c0.8,0.4,7-15.6,7.7-15.2c0.7,0.4-6.4,14-5.7,14.3
			c0.8,0.4,7.8-17.4,8.6-16.9c0.8,0.4-7.3,15.5-6.5,15.9c0.9,0.4,7.8-17.5,8.7-17c0.8,0.4-7.4,15.8-6.7,16.2
			c0.8,0.4,7.6-16.9,8.4-16.5c0.7,0.4-7,15.1-6.3,15.5c0.8,0.4,7.2-16.1,8-15.7c0.7,0.4-6.7,14.6-6,14.9c0.7,0.4,6.9-15.4,7.6-15
			c0.7,0.3-6.4,13.9-5.7,14.3c0.7,0.4,6.6-14.6,7.3-14.3c0.7,0.3-6.2,13.6-5.5,13.9c0.7,0.4,6.2-13.8,6.9-13.5
			c0.8,0.4-7.4,15.7-6.6,16c0.8,0.4,7.3-16.4,8.1-16c0.9,0.4-8.3,17.2-7.4,17.7c0.9,0.5,8.1-18.2,9-17.7c0.9,0.5-8.8,18.2-7.9,18.6
			c0.9,0.5,8.5-19,9.4-18.5c1,0.5-9.4,19.3-8.5,19.7c1,0.5,9.1-20.3,10.1-19.8c1,0.5-9.6,19.6-8.6,20c1,0.5,9.2-20.6,10.2-20.1
			c1,0.5-9.8,19.9-8.8,20.4c1,0.5,9.4-21.1,10.5-20.6c1,0.5-10,20.2-9,20.8c1,0.5,9.3-20.8,10.3-20.3c1,0.5-9.6,19.6-8.7,20.1
			c1,0.5,9.4-21,10.5-20.5c1,0.5-10,20.2-9,20.7c1,0.5,9.4-21,10.4-20.5c1,0.5-9.8,20-8.8,20.5c1,0.5,9.3-20.8,10.3-20.3
			c1,0.5-9.7,19.8-8.7,20.3c1,0.5,9.2-20.6,10.2-20.1c1,0.5-9.5,19.3-8.5,19.8c1,0.5,9.2-20.5,10.2-20c1,0.5-9.8,19.9-8.8,20.4
			c1,0.5,9.2-20.6,10.2-20.1c1,0.5-9.5,19.3-8.5,19.8c1,0.5,9-20.2,10-19.7c1,0.5-9.5,19.3-8.5,19.8c1,0.5,8.8-19.7,9.8-19.2
			c0.9,0.5-8.9,18.3-8,18.8c0.9,0.5,8.7-19.4,9.6-18.9c0.9,0.5-9.2,18.8-8.2,19.3c0.9,0.5,8.5-18.9,9.4-18.5
			c0.9,0.5-8.6,17.9-7.8,18.4c0.9,0.5,8.3-18.6,9.2-18.1c0.9,0.4-8.3,17.3-7.5,17.8c0.9,0.4,7.9-17.6,8.8-17.2
			c0.8,0.4-8.2,17.1-7.3,17.5c0.8,0.4,7.8-17.3,8.6-16.9c0.8,0.4-7.6,16.1-6.8,16.5c0.8,0.4,6.9-15.5,7.7-15.1
			c0.7,0.4-7,15.1-6.3,15.4c0.7,0.4,6.6-14.7,7.3-14.3c0.7,0.3-6.3,13.7-5.6,14.1c0.6,0.3,5.7-12.8,6.3-12.4
			c0.6,0.3-5.5,12.3-4.8,12.6c0.3,0.2,3-6.6,3.3-6.4c0.3,0.1-1.8,5.9-1.5,6.1c0.3,0.1,2.7-6,3-5.8c0.3,0.1-1.8,6-1.5,6.1
			c0.3,0.1,2.7-6.1,3-5.9c0.3,0.1-1.5,5.4-1.2,5.6c0.2,0.1,2.1-4.7,2.3-4.6c0.2,0.1-0.9,4.4-0.7,4.5c0.2,0.1,1.6-3.6,1.8-3.5"/>
	</g>
</g>
<g class="Graphic_x0020_Style_x0020_2">
	<g class="Graphic_x0020_Style_x0020_2">
		<path class="st0" d="M27.9,46.4c0,0,0.4-0.8,0.4-0.8c0.2,0.1-1.3,5.2-1.1,5.3c0.4,0.2,3.9-8.7,4.3-8.5c0.5,0.3-4.2,10.2-3.7,10.5
			c0.6,0.3,5.2-11.6,5.8-11.3c0.6,0.3-5.1,11.8-4.6,12.1c0.6,0.3,5.7-12.8,6.4-12.5c0.6,0.3-5.1,11.7-4.5,12
			c0.6,0.3,5.5-12.3,6.1-12c0.5,0.2-4.1,9.9-3.6,10.2c0.5,0.2,4.6-10.2,5.1-10c0.4,0.2-2.8,7.8-2.5,8c0.4,0.2,3.5-7.7,3.8-7.5
			c0.3,0.1-1.6,5.6-1.3,5.8c0.2,0.1,2.2-4.9,2.4-4.8c0.1,0.1-0.2,3.2-0.1,3.3c0.1,0.1,1.1-2.5,1.2-2.4"/>
	</g>
</g>
</svg>
