<?xml version="1.0" encoding="utf-8"?>
<!-- Generator: Adobe Illustrator 24.1.2, SVG Export Plug-In . SVG Version: 6.00 Build 0)  -->
<svg version="1.1" id="Layer_1" xmlns="http://www.w3.org/2000/svg" xmlns:xlink="http://www.w3.org/1999/xlink" x="0px" y="0px"
	 viewBox="0 0 100 100" style="enable-background:new 0 0 100 100;" xml:space="preserve">
<style type="text/css">
	.st0{fill:none;stroke:#FFFFFF;stroke-width:0.25;stroke-miterlimit:10;}
	.st1{fill:none;stroke:#FFFFFF;stroke-width:0.5;stroke-miterlimit:10;}
</style>
<g>
	<path d="M84.4,47.3c-0.1-0.4-0.2-0.9-0.3-1.3c-0.4-0.1-0.7-0.1-0.8-0.3c-0.5-0.8-1.2-1.5-2-2c-1,0-1.9,0-3,0
		c-1.6,0.1-3.3,0.2-4.9,0.2C73.3,43.9,73.1,44,73,44c-1.6,0.1-3.1,0.2-4.7,0.3c-2.2,0.4-4.5,0.7-6.8,0.7c-2.9,0-5.9,0.1-8.8-0.1
		c-1.8-0.1-3.6-0.4-5.4-0.5c-0.4,0-0.8,0-1.2,0c-0.2,0-0.3,0-0.5,0c-0.1,0-0.2,0-0.2,0c-0.6,0.1-1.2,0.1-1.9,0.1c-2,0-4.1,0-6.1,0.1
		c-2.5,0.1-11,1.3-13.5,1.3c-1.8,0-4-1.5-4.7-3.2c-0.2-0.1-0.3-0.2-0.5-0.2c-0.3,0.2-0.7,0.3-0.7,0.5c-0.1,0.3-0.2,0.5-0.4,0.8
		c0,0.1,0,0.2,0,0.3c0.1,1.5,0.2,2.9-0.1,4.3c0,0,0,0,0,0.1c0.4,0.4,1.2,0.4,1.8,0.4c1,0,0.6,0,1.6-0.1c0,0.2,1.5,0.2,1.5,0.4
		c-1.9,0.1-3.8,0.3-5.7,0.4c-0.8,0-1.7-0.1-2.5,0C12,49.7,9.7,49.8,7.5,49c-0.7-0.3-1.4-0.3-2.2-0.3c-0.3,0-0.8,0.2-1,0.5
		c-0.1,0.2,0.1,0.7,0.1,1c0,0.2,0.2,0.4,0.1,0.6c-0.1,0.9,1.1,2.7,2,2.8c1.8,0.2,3.5,0.3,5.3,0.3c1.7,0,3.4-0.5,5.1-0.3
		c5.6,0.5,17.2,0,22.8-1.2c0.6-0.1,1.2,0,1.8,0.1c3.3,0.5,6.6,1.1,10,1.5c0.8,0.1,1.6,0,2.5,0c0,0.1,0,0.2,0.1,0.4
		c-0.7,0.2-1.5,0.9-2,0.7c-1.4-0.5-1.4,0.7-1.9,1.2c-0.6,0.6-0.1,1.2,0.4,1.5c0.4,0.3,0.9,0.6,1.3,0.6c1.2-0.2,2.4-0.6,3.6-1.1
		c0.9-0.3,1.7-1,2.6-1.1c1.5-0.2,3.1-0.1,4.6-0.2c1.8-0.1,3.5-0.1,5.2-0.3c1.4-0.1,2.7-0.5,4.1-0.7c2.8-0.4,5.6-0.7,8.3-1.2
		c1.1-0.2,2.2-0.7,3.1-1.4c0.7-0.5,1-1.4,1.4-2.1c0.1,0.2,0.3,0.4,0.4,0.6C85,49.8,84.7,48.5,84.4,47.3z"/>
	<ellipse cx="69.8" cy="48.9" rx="16.3" ry="7.3"/>
	<path class="st0" d="M52.7,54.5c0,0,11.4-2.5,18.4-3.1s5.4-0.4,5.4-0.4"/>
	<path class="st1" d="M15.7,49.2c2.5,0.1,14.6-1.4,23.5-1.8c5.7-0.3,9.9,0.4,9.9,0.4"/>
	<circle cx="90" cy="47.7" r="5.7"/>
</g>
</svg>
