<?xml version="1.0" encoding="utf-8"?>
<!-- Generator: Adobe Illustrator 24.1.2, SVG Export Plug-In . SVG Version: 6.00 Build 0)  -->
<svg version="1.1" id="Layer_1" xmlns="http://www.w3.org/2000/svg" xmlns:xlink="http://www.w3.org/1999/xlink" x="0px" y="0px"
	 viewBox="0 0 100 100" style="enable-background:new 0 0 100 100;" xml:space="preserve">
<style type="text/css">
	.Graphic_x0020_Style_x0020_2{fill:#99CCFF;}
	.st0{fill:none;stroke:#000000;stroke-width:0.1417;stroke-linecap:round;stroke-linejoin:round;}
	.st1{fill:none;stroke:#FFFFFF;stroke-width:0.25;stroke-miterlimit:10;}
	.st2{fill:none;stroke:#FFFFFF;stroke-width:0.5;stroke-miterlimit:10;}
</style>
<g>
	<path class="Graphic_x0020_Style_x0020_2" d="M90,41.5c-0.4,0-0.8,0.3-1.2,0.4c-0.4,0.1-0.8,0.2-1.1,0.4c-0.4,0.2-0.7,0.4-1,0.6
		c-0.3,0.2-0.3,0.8-0.5,1.1c-0.3,0.3-0.4,0.6-0.6,0.9c-0.2,0.3-0.6,1-0.7,1.3c-0.3-0.3-0.8-0.9-1.2-1.1c-0.3-0.2-0.5-0.7-0.9-0.9
		c-0.4-0.2-0.7-0.4-1.1-0.6c0,0-0.3,0.4-0.3,0.4c0,0,0.1-0.3,0-0.3c-0.4-0.2-0.6-0.8-1-1c-0.4-0.1-0.9,0-1.4-0.1
		c-0.4-0.1-1,0.3-1.4,0.2c-0.4-0.1-0.7-1-1.1-1.1c-0.4-0.1-0.9,0.1-1.3,0c-0.4-0.1-0.9,0.3-1.3,0.2c-0.4,0-0.8-0.4-1.3-0.5
		c-0.4,0-0.9,0.3-1.3,0.3c-0.4,0-0.9-0.5-1.3-0.5c-0.4,0-0.9,0-1.3,0c-0.4,0-0.8,0.7-1.3,0.8c-0.4,0-0.9-0.4-1.3-0.3
		c-0.4,0-0.9-0.2-1.3-0.1c-0.4,0.1-0.8,0.6-1.2,0.7c-0.4,0.1-0.9,0.1-1.3,0.2c-0.4,0.1-0.9,0.1-1.3,0.2c-0.4,0.1-0.9,0.1-1.3,0.2
		c-0.4,0.2-0.7,0.7-1.1,0.8c-0.4,0.2-1,0.1-1.3,0.3c-0.4,0.2-0.6,0.9-0.9,1.1c-0.4,0-0.8-0.3-1.2-0.3c-0.4,0-0.7-0.4-1.1-0.4
		c-0.4,0-0.8,0.5-1.1,0.5c-0.5,0-0.9-0.2-1.3-0.2c-0.4,0-0.9,0.3-1.4,0.3c-0.4,0-0.8-0.9-1.3-0.9c-0.5,0-0.9,0.5-1.4,0.5
		c-0.4,0-0.8-0.4-1.2-0.4c-0.2,0-0.3,0.7-0.5,0.7c-0.1,0-0.1-0.3-0.2-0.2c-0.3,0.1-0.7-0.3-1-0.3c-0.3,0-0.6,0.5-0.9,0.5
		c-0.4,0-0.8-0.5-1.2-0.5c-0.4,0-0.8,0.4-1.2,0.4c-0.4,0-0.8-0.4-1.2-0.4c-0.4,0-0.8,0.3-1.2,0.3c-0.4,0-0.8-0.2-1.2-0.1
		c-0.3,0-0.8-0.2-1.3-0.2c-0.4,0-0.8,0.3-1.2,0.3c-0.4,0-0.7,0.8-1.1,0.8c-0.4,0-0.9-0.6-1.3-0.5c-0.4,0-0.7,0.7-1.2,0.8
		c-0.4,0-0.8-0.1-1.3-0.1c-0.4,0-0.8,0.3-1.2,0.3c-0.4,0-0.8,0-1.2,0.1c-0.4,0-0.9-0.6-1.3-0.6c-0.4,0-0.8,0.3-1.2,0.3
		c-0.5,0-0.9,0.4-1.2,0.4c-0.4,0-0.8,0-1.2-0.1c-0.4-0.1-0.7-0.4-1.1-0.6c-0.3-0.2-0.8-0.2-1.2-0.5c-0.3-0.3-0.1-1-0.4-1.3
		c-0.3-0.3-0.6-0.5-0.8-0.9c-0.2-0.1-0.3,0.1-0.5,0.1c-0.3,0.2-0.9,0.1-0.9,0.3c-0.1,0.3-0.2,0.5-0.4,0.8c0,0.1-0.4,0.3-0.4,0.4
		c0,0.5,1,0.9,1,1.4c0,0.5,0,1,0,1.5c0,0.5-0.1,1-0.2,1.5c0,0,0-0.4,0-0.3c0.4,0.4,0.8,0.2,1.4,0.2c1,0,0.6,0,1.6-0.1
		c0,0.2,1.3,0.5,1.3,0.7c-0.4,0-0.7-0.1-1.1-0.1c-0.4,0-0.7,0.3-1.1,0.3c-0.4,0-0.8,0-1.1,0.1c-0.4,0-0.8-0.1-1.2-0.1
		c-0.4,0-0.7,0.4-1.1,0.4c-0.4,0-0.8,0-1.3,0c-0.4,0-0.8,0.3-1.2,0.3c-0.4,0-0.9-0.3-1.4-0.3c-0.4,0-0.9,0.6-1.4,0.6
		c-0.5,0-0.9-0.7-1.3-0.7c-0.4,0-0.9-0.1-1.3-0.2c-0.4-0.1-1,0.3-1.5,0.2c-0.4-0.2-0.6-0.7-0.9-0.7c-0.4,0-0.7,0.6-1.1,0.6
		c-0.3,0-1-0.4-1.2-0.1c-0.1,0.2,0.5,0.8,0.5,1.1c0,0.2,0.1,0.4,0,0.6c0,0.3,0.2,0.6,0.4,1c0.2,0.4,0.3,0.7,0.6,1
		c0.3,0.4,0.7,0.3,1,0.4c0.4,0,0.9-0.1,1.3,0c0.4,0,0.8,1,1.3,1c0.4,0,0.9-0.9,1.4-0.9c0.4,0,0.9,0.6,1.3,0.6c0.4,0,0.9,0.1,1.3,0.1
		c0.4,0,0.8-0.4,1.2-0.5c0.4,0,0.8-0.2,1.3-0.2c0.4,0,0.9-0.2,1.3-0.1c0.4,0,0.8,0.5,1.2,0.5c0.4,0,0.8-0.4,1.3-0.4
		c0.4,0,0.8,0.6,1.3,0.6c0.4,0,0.8,0.1,1.3,0.1c0.4,0,0.8-0.3,1.3-0.3c0.4,0,0.8,0,1.3,0c0.4,0,0.8-0.3,1.3-0.3
		c0.4,0,0.9,0.4,1.3,0.4c0.4,0,0.9,0.3,1.3,0.2c0.4,0,0.9,0,1.3-0.1c0.4,0,0.8-0.8,1.2-0.9c0.4,0,0.9,0.2,1.3,0.2
		c0.4,0,0.8-0.1,1.3-0.1c0.4,0,0.9,0.3,1.3,0.2c0.4,0,0.8-0.7,1.2-0.8c0.4-0.1,0.9,0.1,1.3,0c0.4-0.1,0.9,0.1,1.3,0
		c0.4-0.1,0.8-0.6,1.2-0.6c0.6-0.1,1.2,0.7,1.8,0.8c0.4,0.1,1-0.7,1.4-0.6c0.4,0.1,0.8,0.2,1.2,0.3c0.4,0.1,0.7,0.8,1.1,0.9
		c0.4,0.1,0.9-0.3,1.3-0.2c0.4,0.1,0.8,0.6,1.2,0.7c0.4,0.1,0.9-0.3,1.3-0.2c0.4,0.1,0.8,0.3,1.2,0.3c0.4,0.1,0.8,0.5,1.2,0.5
		c0.4,0.1,0.9-0.2,1.3-0.2c0.4,0,0.8,0,1.2,0c0,0.1,0.1,0.1,0.2,0.3c-0.3,0.1-0.9-0.1-1.2,0.1c-0.4,0.2-0.4,0.4-0.7,0.3
		c-0.6-0.2-1,0.3-1.2,0.6c-0.3,0.3-0.3,0.9-0.6,1.2c-0.6,0.6-0.4,1.1,0.1,1.4c0.4,0.3,1,0.3,1.4,0.3c0.4-0.1,0.9,0.2,1.3,0.1
		c0.4-0.1,0.9,0,1.3-0.1c0.4-0.1,0.5-1,0.9-1.2c0.4-0.1,0.9-0.2,1.3-0.4c0.4-0.2,0.9-0.3,1.4-0.3c0.4-0.1,0.8,0,1.2,0
		c0.4,0,0.8-0.6,1.1-0.6c0.4,0,0.8,0,1.1,0c0.4,0,0.8,0.5,1.2,0.5c0.4,0,0.8-0.5,1.2-0.5c0.4,0,0.8,0.2,1.2,0.2
		c0.4,0.1,0.8-0.3,1.2-0.2c0.4,0,0.7,1,1.1,1c0.4,0,0.8,0.1,1.2,0.1c0.4,0,0.8-0.3,1.2-0.3c0.4,0,0.9-0.1,1.3-0.1
		c0.4,0,0.9,0.1,1.3,0c0.4,0,0.9,0,1.3,0c0.4,0,0.8-0.8,1.2-0.9c0.4-0.1,0.8-0.2,1.3-0.3c0.4-0.1,0.9,0,1.3-0.1
		c0.4-0.1,0.8-0.3,1.2-0.4c0.4-0.1,0.8-0.3,1.2-0.5c0.4-0.2,1.1,0.4,1.5,0.3c0.4-0.2,0.5-1,0.9-1.2c0.4-0.2,0.9-0.2,1.2-0.4
		c0.4-0.3,0.9-0.3,1.2-0.6c0.3-0.3,0.4-0.4,0.7-0.7c0.3,0.4,0.4,0.5,0.7,0.8c0.3,0.3,1.1,0,1.5,0.2c0.4,0.2,0.7,0.5,1.1,0.7
		c0.4,0.1,0.9-0.1,1.3-0.1c0.4,0,0.9,0.6,1.3,0.5c0.4-0.1,0.8-0.5,1.1-0.7c0.4-0.2,0.9-0.2,1.2-0.5c0.3-0.3,0.7-0.6,1-0.9
		c0.3-0.3,0.2-0.9,0.4-1.3c0.2-0.4,0.9-0.6,1-1.1c0.1-0.4,0-0.9,0-1.4c0-0.4-0.7-0.8-0.8-1.2c-0.1-0.4,0.2-1,0-1.3
		c-0.2-0.4-0.4-0.8-0.7-1.1c-0.3-0.3-0.7-0.5-1-0.8c-0.3-0.3-0.8-0.3-1.2-0.5c-0.4-0.2-0.7-0.6-1.1-0.7C90.9,42,90.4,41.5,90,41.5z"
		/>
</g>
<g class="Graphic_x0020_Style">
	<g class="Graphic_x0020_Style">
		<path class="st0" d="M50,56.8c0,0,0.3-0.7,0.3-0.6c0.1,0,0.6,1.7,0.7,1.8c0.1,0.1,1.2-2.7,1.4-2.7c0.1,0.1,0.1,2.7,0.2,2.8
			c0.8,0.4,7-15.7,7.8-15.3c0.7,0.4-6.7,14.5-6,14.8c0.8,0.4,6.8-15.3,7.6-14.9c0.7,0.3-6.4,13.9-5.7,14.3
			c0.7,0.4,6.9-15.5,7.7-15.1c0.7,0.3-6.2,13.6-5.5,14c0.7,0.4,6.4-14.4,7.1-14c0.7,0.3-6.4,13.9-5.7,14.2
			c0.7,0.4,6.7-14.8,7.4-14.5c0.7,0.4-6.5,14.1-5.8,14.5c0.7,0.4,6.6-14.7,7.3-14.3c0.7,0.3-6.3,13.8-5.6,14.2
			c0.7,0.4,6.7-14.9,7.4-14.5c0.7,0.4-6.5,14.1-5.8,14.4c0.7,0.4,6.5-14.6,7.2-14.2c0.7,0.3-6.2,13.7-5.6,14
			c0.7,0.4,6.4-14.3,7.1-13.9c0.7,0.3-6.2,13.7-5.6,14.1c0.7,0.4,6.4-14.3,7.1-13.9c0.7,0.3-6.4,13.9-5.7,14.3
			c0.7,0.4,6.5-14.4,7.2-14c0.7,0.3-6.1,13.5-5.5,13.9c0.7,0.3,6.2-13.8,6.9-13.4c0.6,0.3-5.8,13-5.2,13.3c0.6,0.3,6-13.3,6.6-13
			c0.6,0.3-5.7,12.7-5,13c0.6,0.3,5.8-13,6.4-12.6c0.6,0.3-5.3,12-4.7,12.3c0.6,0.3,5.3-11.9,5.9-11.6c0.5,0.3-4.7,11-4.1,11.2
			c0.5,0.3,4.8-10.7,5.3-10.4c0.5,0.2-4,9.8-3.5,10c0.4,0.2,4.3-9.5,4.7-9.2c0.4,0.2-2.9,7.9-2.5,8.1c0.6,0.3,5-11.2,5.5-10.9
			c0.5,0.2-3.8,9.5-3.4,9.7c0.5,0.3,4.7-10.5,5.2-10.2c0.4,0.2-3.5,8.9-3,9.1c0.5,0.2,4.2-9.4,4.7-9.2c0.5,0.3-4.3,10.2-3.8,10.5
			c0.5,0.3,4.8-10.6,5.3-10.3c0.5,0.3-4.4,10.5-3.9,10.8c0.5,0.3,4.6-10.3,5.1-10c0.5,0.2-4,9.8-3.5,10.1c0.5,0.2,4-9,4.5-8.8
			c0.4,0.2-3.2,8.5-2.8,8.7c0.4,0.2,3.4-7.6,3.8-7.4c0.3,0.1-1.6,5.6-1.3,5.7c0.1,0.1,1.2-2.8,1.4-2.7"/>
		<path class="st0" d="M17.5,44.1c0,0,0.6-1.3,0.7-1.3c0.2,0.1-0.6,3.8-0.4,3.9c0.2,0.1,1.5-3.4,1.7-3.3c0.2,0.1-1.4,5.3-1.2,5.4
			c0.2,0.1,2.1-4.6,2.3-4.5c0.2,0.1-0.9,4.3-0.7,4.4c0.2,0.1,1.7-3.9,1.9-3.8c0.2,0.1-0.6,3.9-0.5,4c0.2,0.1,1.5-3.3,1.7-3.3"/>
		<path class="st0" d="M4.3,49.3c0,0,0.1-0.1,0.1-0.1c0.1,0.1,0.1,2.6,0.3,2.6c0.1,0.1,1.3-3,1.5-2.9c0.2,0.1-0.8,4.2-0.6,4.3
			c0.2,0.1,1.9-4.2,2.1-4.1c0.2,0.1-0.8,4.3-0.6,4.4c0.2,0.1,2-4.4,2.2-4.3c0.2,0.1-0.9,4.5-0.7,4.6c0.2,0.1,1.8-4.1,2-4
			c0.2,0.1-0.5,3.7-0.4,3.8c0.2,0.1,1.7-3.9,1.9-3.8c0.2,0.1-0.7,4.1-0.5,4.1c0.2,0.1,1.9-4.3,2.1-4.2c0.2,0.1-0.5,3.6-0.3,3.7
			c0.2,0.1,1.7-3.9,1.9-3.8c0.2,0.1-0.6,3.8-0.4,3.9c0.2,0.1,1.9-4.2,2.1-4.1c0.2,0.1-0.6,3.9-0.4,4c0.2,0.1,2-4.3,2.2-4.2
			c0.2,0.1-0.8,4.1-0.6,4.2c0.2,0.1,1.9-4.3,2.1-4.2c0.2,0.1-0.9,4.3-0.7,4.4c0.2,0.1,2.2-4.8,2.4-4.7c0.2,0.1-1.1,4.8-0.9,4.9
			c0.4,0.2,3.8-8.5,4.2-8.3c0.4,0.2-2.9,7.9-2.6,8.1c0.4,0.2,3.6-8.1,4-7.9c0.4,0.2-2.6,7.4-2.3,7.6c0.4,0.2,3.6-8.1,4-7.9
			c0.4,0.2-3,8.1-2.6,8.3c0.4,0.2,4-8.9,4.4-8.7c0.4,0.2-3.1,8.2-2.7,8.4c0.4,0.2,3.8-8.6,4.3-8.4c0.4,0.2-3.1,8.1-2.7,8.3
			c0.4,0.2,3.9-8.8,4.4-8.6c0.4,0.2-3.1,8.2-2.7,8.4c0.4,0.2,4.1-9.1,4.5-8.9c0.4,0.2-3.3,8.5-2.9,8.7c0.4,0.2,4-8.9,4.4-8.7
			c0.4,0.2-3.2,8.3-2.8,8.5c0.4,0.2,3.8-8.5,4.2-8.3c0.4,0.2-2.9,7.9-2.5,8.1c0.4,0.2,3.7-8.4,4.2-8.2c0.4,0.2-3,8-2.6,8.2
			c0.4,0.2,3.9-8.7,4.3-8.5c0.4,0.2-2.9,7.9-2.5,8.1c0.4,0.2,3.7-8.1,4-7.9c0.4,0.2-2.6,7.4-2.3,7.6c0.4,0.2,3.5-7.9,3.9-7.7
			c0.4,0.2-3,8.1-2.7,8.3c0.4,0.2,3.9-8.6,4.3-8.4c0.4,0.2-3,8.1-2.6,8.3c0.4,0.2,3.7-8.3,4.1-8.1c0.4,0.2-3.2,8.4-2.8,8.6
			c0.4,0.2,3.9-8.7,4.3-8.5c0.4,0.2-3.3,8.5-2.8,8.7c0.4,0.2,4-8.9,4.4-8.7c0.4,0.2-3.4,8.8-3,9c0.4,0.2,4.1-9.1,4.5-8.9
			c0.4,0.2-3.3,8.7-2.9,8.9c0.4,0.2,4-8.9,4.4-8.7c0.4,0.2-3.3,8.5-2.9,8.7c0.4,0.2,4-9,4.5-8.8c0.4,0.2-3.4,8.7-2.9,8.9
			c0.5,0.3,4.7-10.5,5.2-10.2"/>
	</g>
</g>
<path class="st1" d="M52.7,54.5c0,0,11.4-2.5,18.4-3.1s5.4-0.4,5.4-0.4"/>
<path class="st2" d="M15.7,49.2c2.5,0.1,14.6-1.4,23.5-1.8c5.7-0.3,9.9,0.4,9.9,0.4"/>
</svg>
