<?xml version="1.0" encoding="utf-8"?>
<!-- Generator: Adobe Illustrator 24.1.2, SVG Export Plug-In . SVG Version: 6.00 Build 0)  -->
<svg version="1.1" id="Layer_1" xmlns="http://www.w3.org/2000/svg" xmlns:xlink="http://www.w3.org/1999/xlink" x="0px" y="0px"
	 viewBox="0 0 100 100" style="enable-background:new 0 0 100 100;" xml:space="preserve">
<style type="text/css">
	.Graphic_x0020_Style{fill:#99CCFF;}
	.st0{fill:none;stroke:#000000;stroke-width:0.1417;stroke-linecap:round;stroke-linejoin:round;}
</style>
<g>
	<path class="Graphic_x0020_Style" d="M86.2,39.3c0.5,0,0.9-0.1,1.4,0c0.5,0.1,0.9,0.3,1.3,0.5c0.4,0.1,0.9,0.3,1.3,0.5
		c0.4,0.2,0.8,0.5,1.2,0.7c0.4,0.3,0.7,0.5,1.1,0.9c0.3,0.3,0.7,0.6,0.9,1c0.3,0.4,0.5,0.8,0.7,1.2c0.2,0.4,0.4,0.8,0.5,1.3
		c0.1,0.4,0.3,0.9,0.4,1.3c0.1,0.4,0,0.9,0,1.4c0,0.5-0.1,0.9-0.2,1.4c-0.1,0.5,0,0.9-0.2,1.4c-0.1,0.4-0.4,0.9-0.6,1.3
		c-0.2,0.4-0.5,0.8-0.7,1.2c-0.3,0.4-0.5,0.8-0.9,1.1c-0.3,0.3-0.7,0.5-1.1,0.8c-0.4,0.3-0.7,0.6-1.1,0.8c-0.4,0.2-0.8,0.4-1.3,0.6
		c-0.4,0.1-0.9,0.3-1.3,0.3c-0.4,0.1-0.9,0-1.4,0c-0.5,0-0.9-0.1-1.4-0.2c-0.5-0.1-0.9-0.1-1.3-0.3c-0.4-0.1-0.8-0.3-1.3-0.6
		c-0.4-0.2-0.9-0.3-1.3-0.6c-0.4-0.3-0.7-0.6-1.1-0.9c-0.3-0.3-0.6-0.7-0.9-1.1c-0.3-0.4-0.5-0.8-0.7-1.2c-0.2-0.4-0.4-0.8-0.5-1.3
		c-0.1-0.4-0.2-0.9-0.3-1.4c-0.1-0.4-0.1-0.9-0.1-1.4c0-0.5,0-0.9,0-1.4c0.1-0.5,0.3-0.9,0.4-1.3c0.1-0.4,0.3-0.9,0.5-1.3
		c0.2-0.4,0.5-0.8,0.7-1.2c0.3-0.4,0.6-0.7,0.9-1c0.3-0.3,0.7-0.6,1-0.9c0.4-0.3,0.7-0.6,1.1-0.8c0.4-0.2,0.9-0.3,1.3-0.5
		c0.4-0.1,0.9-0.3,1.3-0.4C85.3,39.2,85.7,39.3,86.2,39.3z"/>
</g>
<g>
	<g>
		<path class="Graphic_x0020_Style" d="M73.5,35.3c-0.4-0.6-0.4-0.6-0.8-1.1c-0.4-0.6-0.5-0.5-0.9-1.1c-0.4-0.6,0-0.8-0.4-1.4
			c-0.4-0.6-0.8-0.3-1.2-0.9c-0.4-0.6-0.5-0.5-0.9-1.1c-0.4-0.6,0-0.9-0.3-1.5c-0.4-0.6-0.5-0.5-0.9-1.1c-0.4-0.6-0.4-0.6-0.8-1.1
			c-0.4-0.6-0.8-0.3-1.2-0.8c-0.4-0.6-0.3-0.7-0.7-1.2s0.1-0.9-0.3-1.5c-0.3-0.4-0.7-0.7-1-1.1c-0.3-0.4-0.9-0.5-1.3-0.9
			c-0.3-0.4-0.4-1-0.8-1.3c-0.4-0.4-1-0.4-1.4-0.7c-0.4-0.3-0.7-0.7-1.1-1c-0.4-0.3-0.5-1-0.9-1.3c-0.4-0.3-1.2-0.1-1.6-0.3
			c-0.4-0.3-0.8-0.7-1.2-0.9c-0.4-0.2-0.9-0.4-1.4-0.6c-0.6-0.3-0.7-0.2-1.3-0.5c-0.6-0.3-0.6-0.4-1.2-0.6c-0.6-0.3-0.5-0.6-1.1-0.9
			c-0.6-0.3-0.7-0.1-1.4-0.3c-0.6-0.3-0.8,0-1.4-0.2c-0.4-0.2-0.7-0.9-1.2-1.1c-0.5-0.2-1.1,0.2-1.6,0c-0.5-0.1-0.9-0.5-1.4-0.6
			c-0.5-0.1-0.9-0.3-1.4-0.4c-0.5-0.1-1-0.3-1.5-0.4c-0.5,0-1,0.4-1.5,0.4c-0.5,0-1-0.1-1.5-0.1c-0.5,0-0.9,0.3-1.4,0.4
			c-0.3,0-0.8-0.1-1.3,0.1c-0.4,0.2-0.8,0.3-1.2,0.5c-0.4,0.2-0.8,0.5-1.1,0.7c-0.6,0.3-0.9,0.7-1.1,0.8c-0.4,0.2-0.7,0.5-1,0.8
			c-0.3,0.3-0.5,0.7-0.7,1.1c-0.3,0.4-0.9,0.5-1.1,0.9c-0.2,0.4-0.5,0.8-0.6,1.3c-0.1,0.4,0.1,1,0.1,1.4c0,0.5-0.3,1-0.3,1.4
			c0.1,0.4,0.4,0.9,0.6,1.3c0.4,0.6,0.8,0.3,1.2,0.9c0.4,0.6-0.1,0.9,0.3,1.5c0.4,0.6,0.7,0.4,1.1,0.9c0.4,0.6,0.4,0.5,0.8,1.1
			c0.4,0.6,0.3,0.6,0.7,1.2c0.4,0.6,0.5,0.5,0.9,1.1c0.4,0.6,0.2,0.7,0.6,1.3c0.4,0.6,0.2,0.7,0.6,1.3c0.4,0.6,0.4,0.6,0.8,1.2
			c0.4,0.6,0.2,0.7,0.6,1.3c0.4,0.6,0.7,0.4,1.1,1c0.4,0.6,0.3,0.6,0.7,1.2c0.4,0.6,0.3,0.6,0.7,1.2c0.4,0.6,0.3,0.6,0.7,1.2
			c0.4,0.6,0.7,0.4,1.1,1c0.4,0.6-0.1,0.9,0.3,1.5c0.4,0.6,1.6,0.5,1.2,1.1c-0.4,0.5-0.6-0.6-1.3-0.9c-0.6-0.3-0.6-0.3-1.3-0.6
			c-0.6-0.3-0.7-0.2-1.3-0.5c-0.6-0.3-0.6-0.4-1.3-0.6c-0.6-0.3-0.9,0.4-1.6,0.1c-0.6-0.3-0.4-0.9-1-1.2c-0.6-0.3-0.6-0.3-1.3-0.6
			c-0.6-0.3-0.6-0.3-1.3-0.6c-0.6-0.3-0.6-0.3-1.3-0.6c-0.6-0.3-1,0.4-1.6,0.1c-0.6-0.3-0.5-0.6-1.1-0.9c-0.6-0.3-0.8,0.1-1.4-0.2
			c-0.6-0.3-0.7-0.3-1.3-0.6c-0.6-0.3-0.6-0.3-1.3-0.6c-0.6-0.3-0.7-0.3-1.3-0.5c-0.6-0.3-0.6-0.3-1.3-0.6c-0.6-0.3-0.5-0.6-1.2-0.9
			c-0.6-0.3-0.7-0.1-1.4-0.4c-0.6-0.3-0.5-0.5-1.2-0.8c-0.6-0.3-0.6-0.3-1.3-0.6c-0.6-0.3-0.7-0.1-1.4-0.4c-0.6-0.3-0.7-0.2-1.3-0.5
			c-0.7-0.3-0.6-0.4-1.2-0.7s-0.7-0.2-1.4-0.4c-0.4-0.2-0.7-0.8-1.1-0.9c-0.4-0.1-1,0.5-1.4,0.4c-0.5-0.1-0.9-0.3-1.3-0.3
			c-0.5,0-1-0.1-1.4,0.1C5.6,26.3,5.2,26.6,5,27c-0.2,0.4-0.3,1.1-0.2,1.6c0.1,0.4,0.7,0.7,1,1.2c0.2,0.4,0.1,1.1,0.5,1.5
			c0.3,0.3,0.8,0.6,1.2,0.9c0.4,0.3,0.9,0.3,1.4,0.6c0.6,0.3,0.8,0.1,1.4,0.4c0.6,0.3,0.5,0.5,1.2,0.8c0.6,0.3,0.4,0.7,1.1,1.1
			c0.6,0.3,0.9-0.3,1.6,0.1c0.6,0.3,0.4,0.9,1,1.2c0.6,0.3,0.9-0.1,1.5,0.2c0.6,0.3,0.7,0.3,1.3,0.6c0.6,0.3,0.5,0.5,1.2,0.9
			c0.6,0.3,0.8,0,1.4,0.4c0.6,0.3,0.5,0.6,1.1,0.9c0.6,0.3,0.8,0.1,1.4,0.4c0.6,0.3,0.6,0.5,1.2,0.8c0.6,0.3,0.7,0.2,1.3,0.5
			c0.6,0.3,0.6,0.3,1.3,0.7c0.6,0.3,0.5,0.6,1.1,0.9c0.6,0.3,0.6,0.3,1.3,0.7c0.6,0.3,0.7,0.2,1.3,0.5c0.6,0.3,0.5,0.6,1.1,0.9
			c0.6,0.3,0.7,0.2,1.3,0.6c0.6,0.3,0.7,0.2,1.3,0.5c0.6,0.3,0.7,0.3,1.3,0.6c0.6,0.3,0.5,0.5,1.2,0.8c0.6,0.3,0.8,0.1,1.4,0.4
			c0.6,0.3,0.4,0.7,1.1,1C40,49,40,49,40.7,49.3c0.6,0.3,0.9-0.2,1.5,0.2c0.6,0.3,0.3,0.9,1,1.3c0.6,0.3,0.6,0.3,1.3,0.6
			c0.6,0.3,0.9-0.1,1.5,0.2c0.6,0.3,0.5,0.6,1.1,1c0.6,0.3,0.6,0.3,1.3,0.7c0.6,0.3,0.8-0.1,1.5,0.3c0.4,0.2,0.7,0.4,1.1,0.5
			c0.4,0.2,0.8,0.3,1.2,0.4c0.4,0.1,0.7,0.3,1.1,0.3c-0.4,0.6-0.3,0.7-0.9,1.2c-0.6,0.5-0.9,0-1.5,0.5c-0.6,0.5-0.5,0.6-1,1
			c-0.6,0.5-0.6,0.4-1.2,0.9c-0.6,0.5-0.3,0.8-0.9,1.3c-0.6,0.5-0.5,0.6-1,1.1c-0.6,0.5-1,0-1.5,0.5c0,0,0.2,0.4,0.2,0.5
			c-0.3,0.3-1,0.4-1.2,0.9c-0.2,0.4,0,1,0,1.5c0,0.7,0.3,0.7,0.3,1.5c0,0.7,0,0.7,0,1.4c0,0.7-0.7,0.7-0.7,1.4
			c0,0.7,0.6,0.7,0.6,1.5c0,0.7-0.2,0.7-0.2,1.4c0,0.7-0.3,0.7-0.3,1.4c0,0.7-0.2,0.7-0.2,1.4c0,0.7,0.4,0.7,0.4,1.5
			c0,0.7-0.2,0.7-0.2,1.4c0,0.7,0.1,0.7,0,1.4c0,0.7-0.2,0.7-0.2,1.4c0,0.7-0.1,0.7-0.1,1.4c0,0.7-0.1,0.7-0.1,1.4
			c0,0.7,0,0.7,0,1.5c0,0.7,0.2,0.7,0.2,1.5c0,0.7-0.2,0.7-0.2,1.4c0,0.6,0.1,1.2,0.3,1.7c0.2,0.5,0.6,1.1,1,1.4
			c0.4,0.3,1.1,0.2,1.7,0.2c0.6,0,1.2,0.1,1.7-0.2c0.5-0.3,0.7-0.9,0.9-1.4c0.3-0.5,0.8-0.9,0.9-1.5c0-0.7-0.4-0.8-0.4-1.5
			c0-0.7,0.1-0.7,0.2-1.5c0-0.7,0.3-0.7,0.3-1.5c0-0.7-0.2-0.8-0.2-1.5c0-0.7-0.2-0.8-0.2-1.5c0-0.7,0.5-0.7,0.5-1.5
			c0-0.7-0.1-0.8-0.1-1.5c0-0.7-0.2-0.8-0.1-1.5c0-0.7,0-0.7,0.1-1.5c0-0.7,0.2-0.7,0.3-1.5c0-0.7,0.4-0.7,0.4-1.5
			c0-0.7-0.5-0.8-0.4-1.5c0-0.7,0.1-0.7,0.2-1.5c0-0.7,0.2-0.7,0.2-1.5c0,0,0.2-0.6,1-1.1c0.3-0.3,0.8-0.5,1.2-0.8
			c0.4-0.3,0.8-0.5,1.2-0.9c0.4-0.3,0.8-0.5,1.2-0.8c0.4-0.3,0.6-0.8,1-1.1c0.4-0.3,0.9-0.4,1.3-0.7c0.4-0.3,0.8-0.6,1.1-0.9
			c0.4-0.3,0.5-1,0.9-1.3c0.4-0.3,1.2,0,1.6-0.3c0.4-0.3,0.7-0.7,1.1-1c0.4-0.3,0.6-0.9,0.9-1.2c0.4-0.3,0.8-0.6,1.2-0.9
			c0.4-0.3,0.9-0.5,1.2-0.8c0.4-0.3,0.9-0.5,1.2-0.8c0.4-0.3,0.5-0.9,0.9-1.2c0.4-0.3,1.1-0.4,1.4-0.6c0.7-0.6,0.2-0.9,0.8-1.3
			c0.2-0.2,1,0,1.5-0.5c0.3-0.3,0.4-0.9,0.7-1.3c0.3-0.4,0.5-0.8,0.8-1.2c0.3-0.4,0.6-0.8,0.8-1.2c0.3-0.5,0.9-0.7,1.1-1.1
			c0.2-0.5,0.4-1,0.5-1.4c0.1-0.5,0-1,0-1.5c0-0.5-0.1-1-0.2-1.5c0-0.5-0.2-0.9-0.3-1.4c-0.1-0.5,0.1-1.1,0-1.5
			c-0.2-0.5-0.2-1-0.5-1.5C74.2,36.1,73.8,35.7,73.5,35.3z M61.4,48.1c0,0.7-0.5,0.4-1,0.8c-0.5,0.4-0.4,0.5-0.9,1
			c-0.5,0.4-0.6,0.2-1.2,0.4c0.1-0.4,0.1-0.5,0-1c-0.1-0.4-0.3-0.8-0.5-1.2c-0.3-0.7,0.2-0.9-0.1-1.6c-0.3-0.7-0.5-0.6-0.8-1.3
			c-0.3-0.7-0.3-0.7-0.6-1.4c-0.3-0.7-1.6-1-1.1-1.5c0.4-0.5,0.9,0.6,1.4,1c0.5,0.5,0.1,0.9,0.6,1.4c0.5,0.5,0.6,0.4,1.1,0.8
			c0.5,0.5,0.8,0.2,1.3,0.7c0.5,0.5,0.2,0.9,0.8,1.2C61,47.6,61.4,47.4,61.4,48.1z"/>
	</g>
</g>
<g class="Graphic_x0020_Style_x0020_2">
	<g class="Graphic_x0020_Style_x0020_2">
		<path class="st0" d="M78.2,44.4c0,0,0.4-0.8,0.4-0.8c0.2,0.1-1.2,5-1,5.1c0.4,0.2,3.7-8.3,4.1-8.1c0.5,0.3-4.3,10.3-3.8,10.6
			c0.6,0.3,5.3-11.9,5.9-11.6c0.6,0.3-5.6,12.6-5,12.9c0.7,0.3,6.1-13.7,6.8-13.4c0.7,0.4-6.7,14.4-6,14.8
			c0.7,0.4,6.7-14.9,7.4-14.6c0.8,0.4-7.2,15.4-6.4,15.8c0.8,0.4,7.1-15.8,7.8-15.4c0.8,0.4-7.2,15.4-6.5,15.8
			c0.8,0.4,7-15.7,7.8-15.3c0.8,0.4-7.4,15.8-6.7,16.2c0.8,0.4,7.2-16,7.9-15.6c0.8,0.4-7.1,15.3-6.4,15.7c0.7,0.4,6.7-15,7.4-14.6
			c0.7,0.4-6.8,14.6-6,15c0.7,0.4,6.5-14.4,7.1-14c0.7,0.3-6,13.4-5.4,13.7c0.6,0.3,5.6-12.4,6.2-12.1c0.6,0.3-5,11.5-4.4,11.8
			c0.5,0.2,4.6-10.3,5.1-10c0.4,0.2-2.8,7.7-2.4,7.8c0.2,0.1,2.1-4.6,2.3-4.5"/>
	</g>
</g>
<g class="Graphic_x0020_Style_x0020_2">
	<g class="Graphic_x0020_Style_x0020_2">
		<path class="st0" d="M55.5,42.4c0.9,0.5,8.7-19.4,9.7-18.9c1,0.5-9.4,19.2-8.5,19.7c0.9,0.5,8.4-18.8,9.3-18.3
			c1,0.5-9.4,19.3-8.5,19.8c0.9,0.5,8.5-19,9.4-18.5c0.9,0.5-9.2,18.9-8.3,19.4c0.9,0.5,8.3-18.5,9.2-18c0.9,0.5-8.9,18.3-8,18.8
			c0.9,0.4,7.9-17.7,8.8-17.2c0.9,0.5-8.6,17.8-7.7,18.3c0.9,0.4,7.9-17.7,8.8-17.3"/>
		<path class="st0" d="M50.8,66.2c0.8,0.4,7.2-16.2,8-15.8c0.7,0.3-6.2,13.6-5.5,14c1.7,0.8,15.4-34.3,17-33.4
			c1.5,0.8-15.8,30.3-14.2,31.1c1.5,0.8,13.6-30.4,15.1-29.6c1.4,0.7-13.9,27-12.5,27.7C60,60.7,70.9,33,72.2,33.6
			c1.2,0.6-12.1,23.9-10.9,24.5c1.1,0.6,10.7-23.9,11.9-23.3c1,0.5-10,20.3-9,20.8c1,0.5,8.9-19.8,9.9-19.3
			c0.9,0.4-8.3,17.2-7.4,17.7c0.8,0.4,7.4-16.4,8.2-16c0.7,0.3-6.1,13.5-5.5,13.8c0.6,0.3,5.3-11.8,5.9-11.5c0.4,0.2-2.9,7.8-2.5,8
			c0.3,0.1,2.3-5.2,2.6-5.1"/>
		<path class="st0" d="M44.5,62.7c0,0,0.2-0.5,0.2-0.4c0.2,0.1-0.7,4-0.5,4.1c0.3,0.2,3.2-7.2,3.6-7c0.5,0.3-4.2,10.2-3.7,10.4
			c0.6,0.3,5.7-12.7,6.3-12.3c0.7,0.4-7.1,15.1-6.3,15.5c0.9,0.5,8.2-18.4,9.1-17.9c1,0.5-10.4,20.9-9.3,21.4
			c1.4,0.7,12.8-28.6,14.2-27.9c1.5,0.8-15.6,30-14.1,30.8c1.5,0.7,13.3-29.6,14.7-28.9c1.6,0.8-16.6,31.7-15,32.5
			c0.7,0.3,6-13.4,6.7-13.1c0.8,0.4-7.5,15.9-6.7,16.3c0.6,0.3,6-13.3,6.6-13c0.7,0.4-7.1,15.2-6.3,15.6c0.6,0.3,5.5-12.2,6.1-11.9
			c0.6,0.3-5.7,12.7-5.1,13.1c0.5,0.2,4.4-9.9,4.9-9.6c0.5,0.2-4,9.8-3.5,10c0.3,0.2,3-6.7,3.3-6.5c0.3,0.1-1.7,5.8-1.4,5.9
			c0.1,0.1,1.1-2.6,1.3-2.5"/>
		<path class="st0" d="M29,15.5c0.1,0,0.6-1.3,0.6-1.2c0.2,0.1-1.3,5.1-1,5.2c0.4,0.2,3.7-8.2,4.1-8c0.4,0.2-3.7,9.3-3.3,9.5
			c0.5,0.3,4.9-10.9,5.4-10.6c0.6,0.3-4.9,11.4-4.4,11.7c0.6,0.3,5.6-12.4,6.2-12.1c0.7,0.3-6,13.3-5.4,13.7
			c0.7,0.3,6.5-14.4,7.2-14.1c0.7,0.4-6.9,14.8-6.1,15.2c0.8,0.4,6.9-15.3,7.6-14.9c0.8,0.4-7.4,15.8-6.7,16.2
			c0.8,0.4,7.3-16.4,8.2-16c0.9,0.4-8.4,17.4-7.5,17.8c0.9,0.4,8.2-18.2,9-17.7c0.9,0.5-9,18.6-8.1,19.1c0.9,0.5,8.6-19.2,9.6-18.8
			c1,0.5-9.6,19.5-8.6,20c1,0.5,9.1-20.4,10.1-19.9c1,0.5-10,20.3-9,20.9c1,0.5,9.2-20.6,10.2-20.1c1.1,0.5-10.6,21.3-9.5,21.9
			c1.1,0.5,9.9-22,10.9-21.5c1.1,0.6-11.1,22.1-10,22.7c1.1,0.6,10.1-22.5,11.2-22c1.1,0.6-11.3,22.5-10.2,23.1
			C40.7,36,49.8,12.4,51,13c1.2,0.6-11.9,23.5-10.7,24.1c1.2,0.6,10.9-24.3,12.1-23.7c1.2,0.6-12.5,24.5-11.2,25.2
			c1.2,0.6,11.2-25,12.4-24.4c1.3,0.6-12.8,25.1-11.5,25.8c1.3,0.6,11.6-26,12.9-25.3"/>
		<path class="st0" d="M5.2,27.3c0,0,0.2-0.4,0.2-0.4c0.1,0.1,0.1,2.7,0.2,2.8c0.2,0.1,1.6-3.6,1.8-3.5c0.2,0.1-0.9,4.4-0.7,4.5
			c0.2,0.1,2.2-4.9,2.4-4.8c0.3,0.1-1.6,5.6-1.3,5.7c0.3,0.1,2.3-5.3,2.6-5.1c0.3,0.1-1.8,6-1.5,6.1c0.3,0.1,2.6-5.9,2.9-5.8
			c0.3,0.1-1.9,6.1-1.6,6.2c0.3,0.1,2.5-5.7,2.8-5.5c0.3,0.1-1.8,5.9-1.5,6.1c0.3,0.1,2.6-5.8,2.9-5.7c0.3,0.2-2.2,6.6-1.9,6.8
			c0.3,0.2,2.9-6.3,3.2-6.2c0.3,0.2-2.2,6.6-1.9,6.8c0.3,0.2,2.9-6.5,3.2-6.4c0.3,0.2-2.3,6.8-1.9,6.9c0.3,0.2,2.9-6.4,3.2-6.2
			c0.3,0.2-2.2,6.7-1.9,6.8c0.3,0.2,2.8-6.3,3.1-6.1c0.3,0.2-2.2,6.6-1.9,6.8c0.3,0.2,2.9-6.6,3.3-6.4c0.3,0.2-2.4,6.9-2,7.1
			c0.3,0.2,3.1-6.8,3.4-6.7c0.3,0.2-2.3,6.9-2,7c0.3,0.2,2.8-6.2,3.1-6.1c0.3,0.2-2.2,6.7-1.9,6.9c0.3,0.2,3.1-6.9,3.4-6.7
			c0.4,0.2-2.6,7.4-2.3,7.6c0.3,0.2,3-6.7,3.3-6.6c0.3,0.2-2.4,7.1-2.1,7.2c0.3,0.2,3.2-7.2,3.6-7c0.3,0.2-2.6,7.3-2.2,7.5
			c0.3,0.2,3.2-7.1,3.5-6.9c0.3,0.2-2.6,7.3-2.2,7.5c0.3,0.2,3.1-7,3.5-6.8c0.4,0.2-2.7,7.6-2.4,7.8c0.3,0.2,3.4-7.5,3.7-7.3
			c0.4,0.2-2.8,7.8-2.5,8c0.3,0.2,3.5-7.6,3.8-7.5c0.4,0.2-2.8,7.7-2.4,7.9c0.4,0.2,3.4-7.5,3.7-7.3c0.4,0.2-2.8,7.7-2.4,7.9
			c0.4,0.2,3.4-7.6,3.8-7.4c0.4,0.2-2.8,7.7-2.4,7.9c0.4,0.2,3.2-7.2,3.6-7c0.4,0.2-2.7,7.6-2.4,7.8c0.4,0.2,3.3-7.5,3.7-7.3
			c0.4,0.2-2.8,7.8-2.5,8c0.4,0.2,3.5-7.8,3.9-7.6c0.4,0.2-3.1,8.2-2.7,8.4c0.4,0.2,3.5-7.8,3.9-7.6c0.4,0.2-2.9,8-2.6,8.1
			c0.4,0.2,3.5-7.7,3.8-7.5c0.4,0.2-2.9,7.8-2.5,8c1.7,0.8,15-33.6,16.7-32.7c1.6,0.8-17.1,32.6-15.4,33.4
			c1.7,0.8,15.1-33.7,16.8-32.9c1.7,0.8-17.2,32.9-15.6,33.7c1.6,0.8,15.2-33.9,16.8-33c1.7,0.8-17.3,33-15.6,33.8
			c1.6,0.8,15.1-33.8,16.8-32.9c1.6,0.8-17.1,32.6-15.5,33.5c1.6,0.8,14.8-33,16.4-32.2c1.6,0.8-16.6,31.8-15,32.6
			c1.6,0.8,14.6-32.5,16.2-31.7c1.6,0.8-16.7,31.9-15.1,32.7c1.6,0.8,14.7-32.8,16.3-32c1.6,0.8-16.5,31.5-14.9,32.3
			c1.6,0.8,14.2-31.7,15.7-30.9c1.6,0.8-16.1,30.9-14.6,31.7c1.5,0.8,14.1-31.5,15.7-30.7c1.5,0.8-15.9,30.5-14.4,31.3
			c0.5,0.3,4.9-10.8,5.4-10.6c0.5,0.3-4.4,10.6-3.9,10.8c0.5,0.2,4.3-9.6,4.8-9.4c0.5,0.2-3.9,9.5-3.4,9.8c0.4,0.2,3.7-8.3,4.1-8.1"
			/>
	</g>
</g>
</svg>
