<?xml version="1.0" encoding="utf-8"?>
<!-- Generator: Adobe Illustrator 24.1.2, SVG Export Plug-In . SVG Version: 6.00 Build 0)  -->
<svg version="1.1" id="Layer_1" xmlns="http://www.w3.org/2000/svg" xmlns:xlink="http://www.w3.org/1999/xlink" x="0px" y="0px"
	 viewBox="0 0 100 100" style="enable-background:new 0 0 100 100;" xml:space="preserve">
<style type="text/css">
	.Graphic_x0020_Style_x0020_2{fill:#99CCFF;}
	.st0{fill:none;stroke:#000000;stroke-width:0.1417;stroke-linecap:round;stroke-linejoin:round;}
</style>
<g>
	<path class="Graphic_x0020_Style_x0020_2" d="M94.7,78c-0.3-0.6,0.2-0.6-0.2-1.3c-0.1-0.3-0.6-0.6-0.8-1.1c-0.1-0.4-0.9-0.5-1-1
		c-0.2-0.4,0-0.9-0.2-1.3c-0.2-0.4-0.4-0.8-0.5-1.2c-0.2-0.4-0.1-0.9-0.3-1.3c-0.2-0.4-0.3-0.8-0.5-1.2c-0.2-0.4-0.1-0.9-0.3-1.3
		c-0.2-0.4-0.4-0.7-0.6-1.1c-0.2-0.4-0.4-0.8-0.5-1.2c-0.2-0.4-0.3-0.8-0.5-1.2c-0.2-0.4-0.1-0.9-0.2-1.3c-0.2-0.4-1.2-0.4-1.3-0.8
		c-0.2-0.4-0.3-0.8-0.5-1.2c-0.2-0.4,0.5-1.1,0.3-1.5c-0.2-0.4-0.6-0.7-0.8-1c-0.2-0.4-0.2-0.9-0.3-1.3c-0.2-0.4-0.7-0.6-0.9-1
		c-0.2-0.4-0.7-0.6-0.9-1c-0.2-0.4-0.2-0.9-0.3-1.3c-0.2-0.4-0.5-0.7-0.7-1.1c-0.2-0.4,0.2-1.1,0.1-1.5c-0.2-0.4-1.1-0.4-1.3-0.8
		c-0.2-0.4-0.5-0.7-0.7-1c-0.2-0.4-0.3-0.9-0.5-1.2c-0.3-0.5-0.5-0.9-0.7-1c-0.2-0.1-0.6-0.4-1-0.9c-0.2-0.3,0.2-1-0.1-1.4
		c-0.2-0.3-0.5-0.6-0.7-1c-0.2-0.3-0.4-0.7-0.6-1.1c-0.2-0.4-0.6-0.6-0.8-1c-0.2-0.4-0.7-0.6-0.8-1c-0.2-0.4-0.1-0.9-0.2-1.3
		c-0.2-0.4-0.2-0.8-0.3-1.2c-0.2-0.4-0.4-0.8-0.5-1.1c-0.2-0.4,0-0.9-0.2-1.3c-0.2-0.4-0.8-0.6-0.9-1c-0.2-0.4-0.7-0.6-0.9-1
		c-0.2-0.4,0-0.9-0.2-1.3c-0.2-0.4,0-0.9-0.2-1.3c-0.2-0.4-1-0.5-1.2-0.9c-0.2-0.4,0.2-1,0.1-1.4c-0.2-0.4-0.5-0.7-0.7-1.1
		c-0.2-0.4-0.7-0.6-0.8-1c-0.2-0.4,0.1-1-0.1-1.3c-0.2-0.4-0.3-0.8-0.5-1.2c-0.2-0.4-0.3-0.8-0.5-1.2c-0.2-0.4-0.5-0.7-0.7-1.1
		c-0.2-0.4-0.5-0.7-0.7-1.1c-0.2-0.4,0.2-1,0-1.4c-0.3-0.7-0.3-1.2-0.3-1.2c-0.2-0.3-0.7-0.5-1.1-0.9c-0.3-0.3-0.6-0.6-0.9-0.9
		c-0.3-0.3-0.3-1.1-0.7-1.3c-0.4-0.2-0.9-0.3-1.3-0.5c-0.4-0.2-0.8-0.5-1.2-0.6c-0.4-0.1-1.1,0.6-1.5,0.6c-0.4-0.1-0.8-0.8-1.3-0.8
		c-0.4,0-0.9,0-1.3,0c-0.4,0-0.8,0.7-1.2,0.8c-0.4,0.1-0.9-0.2-1.3-0.1c-0.4,0.1-0.9-0.1-1.3,0.1c-0.4,0.1-0.5,1-0.9,1.2
		c-0.4,0.2-0.9,0.1-1.3,0.3c-0.4,0.2-0.8,0.3-1.1,0.5c-0.4,0.2-0.9,0.2-1.3,0.4c-0.3,0.3-0.3,1-0.6,1.3c-0.3,0.3-1,0.2-1.3,0.5
		c-0.3,0.3-0.3,0.9-0.5,1.2c-0.3,0.3-1,0.3-1.3,0.5c-0.4,0.5-0.8,0.8-0.9,0.9c-0.4,0.5,0,0.8-0.3,1.3c-0.4,0.5,0,0.8-0.3,1.3
		c-0.4,0.5-1,0.1-1.4,0.6c-0.4,0.5-0.1,0.7-0.4,1.3c-0.4,0.5-0.2,0.6-0.6,1.1c-0.4,0.5-0.6,0.4-0.9,0.9c-0.4,0.5-0.5,0.4-0.9,1
		c-0.4,0.5-0.1,0.7-0.4,1.3c-0.4,0.5-0.8,0.2-1.2,0.7c-0.4,0.5-0.4,0.5-0.7,1c-0.4,0.5-0.2,0.6-0.6,1.2c-0.4,0.5-0.4,0.5-0.8,1
		c-0.4,0.5,0.1,0.8-0.3,1.4c-0.4,0.5-0.4,0.5-0.7,1.1c-0.4,0.5-0.7,0.3-1.1,0.8c-0.4,0.5,0,0.8-0.4,1.3c-0.4,0.5-0.2,0.6-0.6,1.2
		c-0.4,0.5-0.9,0.2-1.2,0.7c-0.4,0.5-0.1,0.7-0.5,1.2c-0.4,0.5-0.4,0.5-0.7,1.1s-0.6,0.4-1,0.9c-0.1,0.2-0.2,0.7-0.5,1.1
		c-0.2,0.3-0.2,0.9-0.4,1.2c-0.3,0.4-0.8,0.6-0.9,0.8c-0.3,0.5-0.4,0.3-0.8,1c-0.2,0.3-0.1,0.8-0.3,1.2c-0.2,0.3-0.1,0.9-0.3,1.2
		c-0.2,0.3-0.6,0.6-0.8,1c-0.2,0.3-0.2,0.8-0.4,1.2c-0.2,0.3-0.8,0.5-1.1,0.8c-0.2,0.4-0.6,0.6-0.9,0.9c-0.2,0.4-0.2,0.8-0.4,1.2
		c-0.2,0.4-0.5,0.6-0.8,1c-0.2,0.4,0.2,1.1,0,1.5c-0.2,0.4-0.7,0.5-0.9,0.9c-0.2,0.4-0.7,0.6-0.9,0.9c-0.2,0.4-0.3,0.8-0.5,1.1
		c-0.2,0.4-0.6,0.6-0.8,1c-0.2,0.4-0.2,0.9-0.4,1.2c-0.2,0.4-0.2,0.9-0.4,1.2c-0.4,0.6-0.5,1.2-0.5,1.2c-0.4,0.5-0.6,0.3-1,0.8
		c-0.4,0.5-0.4,0.5-0.8,1c-0.4,0.5-0.3,0.6-0.7,1.1c-0.4,0.5-0.8,0.1-1.2,0.6c-0.4,0.5-0.3,0.6-0.7,1.1c-0.4,0.5-0.6,0.3-1.1,0.8
		c-0.4,0.5-0.3,0.6-0.7,1.1c-0.4,0.5-0.3,0.6-0.7,1.1c-0.4,0.5-0.9,0.1-1.3,0.6c-0.4,0.5,0.2,1-0.2,1.5c-0.4,0.5-0.5,0.5-0.9,1
		c-0.4,0.5-0.3,0.6-0.8,1.1c-0.4,0.5-0.7,0.2-1.1,0.7C7.1,79.5,7,79.5,6.6,80s0,0.8-0.5,1.3c-0.4,0.3-1,0.4-1.1,0.8
		c-0.1,0.4,0.3,0.8,0.5,1.2c0.2,0.5,0.1,1,0.4,1.2c0.4,0.3,0.9,0.1,1.3,0c0.4,0,1.1,0.3,1.5,0c0.5-0.4,0.2-0.5,0.7-1.1
		c0.3-0.3,0.4-0.7,0.7-1.1c0.3-0.3,0.8-0.4,1.1-0.7c0.3-0.3,0.4-0.7,0.7-1.1c0.3-0.3,0.3-0.9,0.6-1.2c0.3-0.3,0.9-0.3,1.2-0.6
		c0.3-0.3,0.4-0.8,0.7-1.1c0.3-0.3,0.4-0.8,0.7-1.1c0.3-0.3,1.2,0,1.5-0.4c0.3-0.3,0.3-0.9,0.6-1.2c0.3-0.3,0.4-0.8,0.7-1.1
		c0.3-0.3,0.8-0.4,1.1-0.7c0.3-0.3,0.8-0.5,1.1-0.7c0.3-0.3,0.2-1.1,0.4-1.4c0.3-0.4,1-0.3,1.3-0.6c0.5-0.5,0.5-1.1,0.6-1.2
		c0.4-0.5,0.4-0.5,0.8-1c0.4-0.5,0.7-0.3,1.1-0.8c0.4-0.5-0.1-0.9,0.3-1.4c0.4-0.5,0.6-0.3,1-0.9c0.4-0.5,0.1-0.7,0.5-1.3
		c0.4-0.5,0.5-0.5,0.9-1c0.4-0.5,0.5-0.4,0.9-0.9c0.4-0.5,0.2-0.6,0.6-1.1c0.4-0.5,1.1,0,1.4-0.5c0.4-0.5,0.3-0.6,0.7-1.1
		c0.4-0.5-0.2-0.9,0.2-1.5c0.4-0.5,0.9-0.1,1.3-0.6c0.4-0.5,0.3-0.6,0.7-1.1c0.4-0.5,0-0.8,0.4-1.4c0.4-0.5,1-0.1,1.4-0.6
		c0.4-0.5-0.3-1.2,0.2-1.6c0.4,0.1,1.1,0.3,1.6,0.3c0.4,0,0.9,0.4,1.3,0.3c0.4-0.1,0.8-0.6,1.2-0.7c0.4-0.1,0.9-0.1,1.3-0.3
		c0.4-0.2,1.1,0.1,1.4-0.1c0.4-0.2,0.2-1.2,0.6-1.5c0.4-0.3,1.3,0.1,1.6-0.2c0.3-0.3,0.3-1,0.5-1.3c0.3-0.5,0.4-0.5,0.8-1
		c0.3-0.6,0.6-0.4,0.9-0.9c0.3-0.6,0.1-0.7,0.4-1.2c0.3-0.6,0.4-0.5,0.7-1.1c0.3-0.6,0-0.7,0.3-1.3c0.3-0.6,0.2-0.6,0.5-1.2
		c0.3-0.6,0.2-0.6,0.5-1.2c0.3-0.6,1-0.2,1.3-0.7c0.3-0.6,0.2-0.6,0.5-1.2c0.3-0.6,0.2-0.6,0.5-1.2c0.3-0.6,0.2-0.6,0.5-1.2
		c0.3-0.6,0.7-0.3,1-0.9c0.3-0.6,0.1-0.7,0.5-1.2c0.3-0.6,0.1-0.7,0.4-1.2c0-0.1,0.3-0.4,0.7-0.9c0.2-0.3,0.3-0.7,0.6-1
		c0.2-0.3,0.8-0.3,1.1-0.6c0.3-0.3,0.7-0.4,1-0.7c0.3-0.3,0.1-0.9,0.3-1.2c0.3-0.5,1.1-0.4,1.5,0.1c0.4,0.5,0.8,0.3,1.1,0.8
		c0.3,0.5,0,0.7,0.4,1.3c0.3,0.5,0.4,0.5,0.7,1c0.3,0.5,0.1,0.7,0.4,1.2c0.3,0.5,0,0.7,0.4,1.2c0.3,0.5,0.7,0.3,1.1,0.8
		c0.3,0.5,0.5,0.4,0.9,0.9c0.3,0.5,0.4,0.5,0.7,1c0.3,0.5,0,0.8,0.3,1.3c0.3,0.5,0.7,0.3,1,0.8c0.3,0.5,0.2,0.6,0.5,1.1
		c0.3,0.5,0.5,0.4,0.8,1c0.3,0.5,0.5,0.4,0.9,0.9c0.3,0.5,0.2,0.6,0.6,1.1c0.3,0.5-0.1,0.8,0.3,1.3c0.3,0.5,0.3,0.6,0.6,1.1
		c0.3,0.5,0.8,0.2,1.2,0.7c0.3,0.5,0.2,0.6,0.5,1.1c0.3,0.5,0.2,0.6,0.6,1.1c0.3,0.5,0.4,0.5,0.7,1c0.3,0.5,0.3,0.5,0.6,1.1
		c0.3,0.5,0,0.8,0.3,1.3c0.2,0.1,1,0.1,1.4,0.6c0.2,0.3-0.1,1,0.2,1.4c0.2,0.3,0.5,0.6,0.8,1c0.2,0.3,0.9,0.4,1.1,0.8
		c0.2,0.3-0.1,1,0.1,1.4c0.2,0.3,0.7,0.5,1,0.9c0.2,0.4,0.3,0.8,0.5,1.2c0.2,0.4,0.5,0.7,0.8,1c0.2,0.4,0.7,0.5,0.9,0.9
		c0.2,0.4,0.6,0.6,0.8,1c0.2,0.4-0.3,1.2-0.1,1.5c0.2,0.4,0.4,0.8,0.6,1.1c0.2,0.4,1.1,0.4,1.3,0.7c0.2,0.4,0,1,0.2,1.3
		c0.2,0.4,0.2,0.9,0.4,1.2c0.2,0.4,0.8,0.5,1,0.9c0.2,0.4,0.5,0.7,0.7,1.1c0.2,0.4,0.2,0.8,0.5,1.2c0.2,0.4,1,0.4,1.2,0.8
		c0.2,0.4,0.1,0.9,0.3,1.3c0.2,0.4,0,1,0.2,1.4c0.2,0.4,0.6,0.7,0.8,1c0.2,0.4,0.4,0.8,0.6,1.1c0.2,0.4,0.7,0.6,0.9,0.9
		c0.2,0.4,0.1,1,0.3,1.3c0.4,0.7,0.7,0.4,1,0.9c0.2,0.4,0.1,1,0.3,1.2c0.3,0.3,1-0.1,1.3,0c0.4,0.1,0.6,0.3,1,0.2
		c0.3-0.1,0.9,0.2,1.3,0l-0.5-0.7c0.4-0.3,1-0.2,1.3-0.6c0.2-0.4-0.1-0.8-0.1-1.3C94.5,79,94.9,78.5,94.7,78z"/>
</g>
<g>
	<path class="Graphic_x0020_Style_x0020_2" d="M33.8,56.4c-0.5,0.4,0.1,1-0.3,1.5c-0.4,0.5-0.6,0.3-1,0.8c-0.4,0.5-0.1,0.7-0.5,1.2
		c-0.4,0.5-0.8,0.2-1.2,0.7c-0.4,0.5-0.1,0.7-0.5,1.2c-0.4,0.5-0.9,0.1-1.2,0.7c-0.4,0.5,0.1,0.9-0.3,1.4c-0.4,0.5-0.4,0.5-0.8,1
		c-0.4,0.5-0.4,0.5-0.8,1c-0.4,0.5-0.6,0.3-1,0.8c-0.4,0.5-0.3,0.6-0.7,1.1c-0.4,0.5-0.7,0.4-0.9,1c0.3,0.3,0.7,0.8,1,1
		c0.3,0.2,0.9,0.1,1.2,0.3c0.4,0.2,0.5,0.8,0.9,0.9c0.4,0.1,0.8,0,1.2,0.1c0.4,0.1,0.8,0,1.2,0c0.4,0,0.9,0.2,1.2,0.1
		c0.4-0.1,0.8-0.3,1.2-0.5c0.4-0.1,0.6-0.6,1-0.7c0.4-0.2,0.9-0.1,1.2-0.4c0.3-0.2,0.4-0.8,0.7-1.1c0.3-0.3,0.6-0.5,0.9-0.8
		c0.2-0.3,0.8-0.5,0.9-0.9c0.2-0.4,0.6-0.7,0.7-1.1c0.1-0.4,0.2-0.9,0.2-1.3c0.1-0.4-0.3-0.9-0.3-1.3c0-0.5,0.3-1,0.2-1.4
		c-0.1-0.4-1-0.6-1.2-1.1c-0.2-0.4-0.3-0.8-0.5-1.1c-0.2-0.4,0.1-1.2-0.2-1.5c-0.3-0.3-1-0.3-1.3-0.6C34.6,57.3,34.2,56.6,33.8,56.4
		z"/>
</g>
<g class="Graphic_x0020_Style">
	<g class="Graphic_x0020_Style">
		<g class="Graphic_x0020_Style">
			<path class="st0" d="M5.3,81.7c0,0,0.1-0.3,0.1-0.3c0.1,0.1-0.1,2.9,0.1,3c0.4,0.2,3.7-8.2,4.1-8c0.4,0.2-3.2,8.4-2.8,8.6
				c0.7,0.3,6.1-13.7,6.8-13.3c0.6,0.3-5,11.6-4.5,11.9c0.9,0.4,7.6-17.1,8.5-16.7c0.6,0.3-5.7,12.8-5.1,13.1
				c1.6,0.8,14.9-33.3,16.5-32.4c1.4,0.7-14.6,28.3-13.2,29c1.9,1,17.6-39.2,19.5-38.3c1.7,0.9-17.8,33.9-16.1,34.8
				c2.2,1.1,20.3-45.3,22.5-44.2c2,1-20.9,39.3-19,40.3c2.4,1.2,22.3-49.6,24.7-48.4c2.1,1.1-21.9,41-19.8,42.1
				c2.2,1.1,20.5-45.6,22.7-44.5c1.9,1-19.8,37.3-17.9,38.3c2,1,18.3-40.8,20.3-39.8c1.8,0.9-18.6,35.2-16.8,36.1
				c1.9,0.9,16.9-37.8,18.8-36.9c1.8,0.9-18.9,35.7-17.1,36.7c1.9,1,17.2-38.4,19.1-37.4c1.8,0.9-19.3,36.5-17.5,37.4
				c1.9,1,17.2-38.3,19-37.4c1.8,0.9-18.8,35.6-17,36.5c1.8,0.9,16.9-37.7,18.7-36.7c1.7,0.9-17.5,33.4-15.8,34.2
				c1.7,0.9,15.8-35.2,17.5-34.3c0.8,0.4-8,16.9-7.2,17.3c0.8,0.4,7.6-17,8.4-16.6c0.6,0.3-5.7,12.7-5,13c0.6,0.3,5.7-12.7,6.3-12.3
				c0.6,0.3-5.8,13-5.2,13.3c0.6,0.3,6-13.3,6.6-13c0.7,0.4-6.5,14.1-5.8,14.5c0.7,0.3,6.2-13.8,6.9-13.4c0.7,0.4-6.8,14.6-6.1,15
				c0.7,0.3,6.3-13.9,6.9-13.6c0.7,0.4-6.8,14.6-6.1,15c0.7,0.3,6.2-13.9,6.9-13.5c0.7,0.4-6.5,14.2-5.8,14.6
				c0.6,0.3,5.9-13.2,6.5-12.9c0.7,0.3-6.3,13.7-5.6,14.1c0.6,0.3,5.5-12.3,6.1-12c0.7,0.3-6.1,13.4-5.4,13.8
				c0.6,0.3,5.6-12.5,6.2-12.2c0.6,0.3-5.9,13.1-5.2,13.4c0.6,0.3,5.3-11.8,5.9-11.5c0.6,0.3-5.5,12.3-4.9,12.6
				c0.6,0.3,5.1-11.4,5.7-11.1c0.6,0.3-5.5,12.3-4.9,12.7c0.6,0.3,5-11.1,5.5-10.8c0.6,0.3-5.4,12.2-4.8,12.5
				c0.5,0.3,4.9-10.9,5.4-10.7c0.6,0.3-5.2,11.8-4.6,12.1c0.5,0.3,5-11,5.5-10.8c0.6,0.3-5,11.5-4.4,11.8c0.5,0.3,4.6-10.3,5.1-10
				c0.6,0.3-4.9,11.4-4.3,11.6c0.5,0.3,4.6-10.3,5.1-10.1C76,38,70.8,48.7,71.3,49c0.5,0.2,4.2-9.5,4.7-9.2
				c0.5,0.3-4.4,10.5-3.9,10.8c0.5,0.2,4.2-9.4,4.7-9.2c0.5,0.3-4.4,10.5-3.9,10.8c0.5,0.2,4.3-9.5,4.7-9.3
				c0.5,0.3-4.2,10.2-3.7,10.4c0.4,0.2,4.1-9.1,4.5-8.8c0.5,0.2-3.9,9.7-3.5,9.9c0.4,0.2,4-8.8,4.4-8.6c0.5,0.2-4.1,9.9-3.6,10.2
				c0.4,0.2,4.1-9,4.5-8.8c0.5,0.2-4.2,10.1-3.7,10.4c0.4,0.2,4.2-9.2,4.6-9c0.5,0.3-4.2,10.2-3.7,10.5c0.4,0.2,4.2-9.3,4.6-9.1
				c0.5,0.3-4.2,10.2-3.7,10.4c0.4,0.2,4.2-9.2,4.6-9c0.5,0.3-4.2,10.2-3.7,10.5c0.4,0.2,4-9,4.5-8.8c0.5,0.2-4,9.7-3.5,10
				c0.4,0.2,3.8-8.5,4.2-8.3c0.5,0.2-3.8,9.4-3.3,9.6c0.4,0.2,3.7-8.4,4.2-8.2c0.5,0.2-3.9,9.6-3.4,9.8c0.4,0.2,3.8-8.6,4.3-8.4
				c0.5,0.2-3.9,9.7-3.5,9.9c0.4,0.2,3.7-8.2,4.1-8c0.5,0.2-3.7,9.3-3.3,9.6c0.4,0.2,3.6-8.1,4-7.9c0.4,0.2-3.5,8.9-3,9.1
				c0.4,0.2,3.5-7.8,3.9-7.6c0.4,0.2-3.4,8.8-3,9c0.4,0.2,3.3-7.4,3.7-7.2c0.4,0.2-3.4,8.8-3,9c0.4,0.2,3.5-7.7,3.8-7.5
				c0.4,0.2-3.3,8.6-2.9,8.8c0.4,0.2,3.2-7.1,3.5-6.9c0.4,0.2-3.1,8.3-2.7,8.5c0.3,0.2,3.2-7.2,3.6-7c0.4,0.2-3.2,8.3-2.8,8.5
				c0.3,0.2,3-6.7,3.3-6.5c0.4,0.2-2.7,7.6-2.4,7.8c0.3,0.2,3-6.6,3.3-6.4c0.4,0.2-2.7,7.6-2.4,7.8c0.3,0.2,2.8-6.2,3.1-6
				c0.4,0.2-2.6,7.4-2.3,7.6c0.3,0.1,2.6-5.8,2.9-5.7c0.3,0.1-1.5,5.5-1.3,5.7c0.2,0.1,1.9-4.1,2.1-4"/>
			<path class="st0" d="M25,68.6c0,0,0.1-0.1,0.1-0.1c0.1,0,0.8,1.4,0.9,1.5c0.4,0.2,3.7-8.2,4.1-8c0.4,0.2-3.2,8.4-2.8,8.7
				c0.7,0.3,6.3-14.1,7-13.7c0.7,0.3-6.1,13.4-5.4,13.7c0.7,0.3,5.8-13,6.5-12.7c0.6,0.3-5.6,12.6-5,12.9c0.6,0.3,5.4-12.1,6-11.8
				c0.6,0.3-5,11.5-4.4,11.8c0.5,0.3,4.8-10.6,5.3-10.4c0.5,0.2-3.9,9.5-3.4,9.8c0.4,0.2,3.6-8,4-7.8"/>
		</g>
		<g class="Graphic_x0020_Style">
			<path class="st0" d="M5.3,81.7c0,0,0.1-0.3,0.1-0.3c0.1,0.1-0.1,2.9,0.1,3c0.4,0.2,3.7-8.2,4.1-8c0.4,0.2-3.2,8.4-2.8,8.6
				c0.7,0.3,6.1-13.7,6.8-13.3c0.6,0.3-5,11.6-4.5,11.9c0.9,0.4,7.6-17.1,8.5-16.7c0.6,0.3-5.7,12.8-5.1,13.1
				c1.6,0.8,14.9-33.3,16.5-32.4c1.4,0.7-14.6,28.3-13.2,29c1.9,1,17.6-39.2,19.5-38.3c1.7,0.9-17.8,33.9-16.1,34.8
				c2.2,1.1,20.3-45.3,22.5-44.2c2,1-20.9,39.3-19,40.3c2.4,1.2,22.3-49.6,24.7-48.4c2.1,1.1-21.9,41-19.8,42.1
				c2.2,1.1,20.5-45.6,22.7-44.5c1.9,1-19.8,37.3-17.9,38.3c2,1,18.3-40.8,20.3-39.8c1.8,0.9-18.6,35.2-16.8,36.1
				c1.9,0.9,16.9-37.8,18.8-36.9c1.8,0.9-18.9,35.7-17.1,36.7c1.9,1,17.2-38.4,19.1-37.4c1.8,0.9-19.3,36.5-17.5,37.4
				c1.9,1,17.2-38.3,19-37.4c1.8,0.9-18.8,35.6-17,36.5c1.8,0.9,16.9-37.7,18.7-36.7c1.7,0.9-17.5,33.4-15.8,34.2
				c1.7,0.9,15.8-35.2,17.5-34.3c0.8,0.4-8,16.9-7.2,17.3c0.8,0.4,7.6-17,8.4-16.6c0.6,0.3-5.7,12.7-5,13c0.6,0.3,5.7-12.7,6.3-12.3
				c0.6,0.3-5.8,13-5.2,13.3c0.6,0.3,6-13.3,6.6-13c0.7,0.4-6.5,14.1-5.8,14.5c0.7,0.3,6.2-13.8,6.9-13.4c0.7,0.4-6.8,14.6-6.1,15
				c0.7,0.3,6.3-13.9,6.9-13.6c0.7,0.4-6.8,14.6-6.1,15c0.7,0.3,6.2-13.9,6.9-13.5c0.7,0.4-6.5,14.2-5.8,14.6
				c0.6,0.3,5.9-13.2,6.5-12.9c0.7,0.3-6.3,13.7-5.6,14.1c0.6,0.3,5.5-12.3,6.1-12c0.7,0.3-6.1,13.4-5.4,13.8
				c0.6,0.3,5.6-12.5,6.2-12.2c0.6,0.3-5.9,13.1-5.2,13.4c0.6,0.3,5.3-11.8,5.9-11.5c0.6,0.3-5.5,12.3-4.9,12.6
				c0.6,0.3,5.1-11.4,5.7-11.1c0.6,0.3-5.5,12.3-4.9,12.7c0.6,0.3,5-11.1,5.5-10.8c0.6,0.3-5.4,12.2-4.8,12.5
				c0.5,0.3,4.9-10.9,5.4-10.7c0.6,0.3-5.2,11.8-4.6,12.1c0.5,0.3,5-11,5.5-10.8c0.6,0.3-5,11.5-4.4,11.8c0.5,0.3,4.6-10.3,5.1-10
				c0.6,0.3-4.9,11.4-4.3,11.6c0.5,0.3,4.6-10.3,5.1-10.1C76,38,70.8,48.7,71.3,49c0.5,0.2,4.2-9.5,4.7-9.2
				c0.5,0.3-4.4,10.5-3.9,10.8c0.5,0.2,4.2-9.4,4.7-9.2c0.5,0.3-4.4,10.5-3.9,10.8c0.5,0.2,4.3-9.5,4.7-9.3
				c0.5,0.3-4.2,10.2-3.7,10.4c0.4,0.2,4.1-9.1,4.5-8.8c0.5,0.2-3.9,9.7-3.5,9.9c0.4,0.2,4-8.8,4.4-8.6c0.5,0.2-4.1,9.9-3.6,10.2
				c0.4,0.2,4.1-9,4.5-8.8c0.5,0.2-4.2,10.1-3.7,10.4c0.4,0.2,4.2-9.2,4.6-9c0.5,0.3-4.2,10.2-3.7,10.5c0.4,0.2,4.2-9.3,4.6-9.1
				c0.5,0.3-4.2,10.2-3.7,10.4c0.4,0.2,4.2-9.2,4.6-9c0.5,0.3-4.2,10.2-3.7,10.5c0.4,0.2,4-9,4.5-8.8c0.5,0.2-4,9.7-3.5,10
				c0.4,0.2,3.8-8.5,4.2-8.3c0.5,0.2-3.8,9.4-3.3,9.6c0.4,0.2,3.7-8.4,4.2-8.2c0.5,0.2-3.9,9.6-3.4,9.8c0.4,0.2,3.8-8.6,4.3-8.4
				c0.5,0.2-3.9,9.7-3.5,9.9c0.4,0.2,3.7-8.2,4.1-8c0.5,0.2-3.7,9.3-3.3,9.6c0.4,0.2,3.6-8.1,4-7.9c0.4,0.2-3.5,8.9-3,9.1
				c0.4,0.2,3.5-7.8,3.9-7.6c0.4,0.2-3.4,8.8-3,9c0.4,0.2,3.3-7.4,3.7-7.2c0.4,0.2-3.4,8.8-3,9c0.4,0.2,3.5-7.7,3.8-7.5
				c0.4,0.2-3.3,8.6-2.9,8.8c0.4,0.2,3.2-7.1,3.5-6.9c0.4,0.2-3.1,8.3-2.7,8.5c0.3,0.2,3.2-7.2,3.6-7c0.4,0.2-3.2,8.3-2.8,8.5
				c0.3,0.2,3-6.7,3.3-6.5c0.4,0.2-2.7,7.6-2.4,7.8c0.3,0.2,3-6.6,3.3-6.4c0.4,0.2-2.7,7.6-2.4,7.8c0.3,0.2,2.8-6.2,3.1-6
				c0.4,0.2-2.6,7.4-2.3,7.6c0.3,0.1,2.6-5.8,2.9-5.7c0.3,0.1-1.5,5.5-1.3,5.7c0.2,0.1,1.9-4.1,2.1-4"/>
			<path class="st0" d="M25,68.6c0,0,0.1-0.1,0.1-0.1c0.1,0,0.8,1.4,0.9,1.5c0.4,0.2,3.7-8.2,4.1-8c0.4,0.2-3.2,8.4-2.8,8.7
				c0.7,0.3,6.3-14.1,7-13.7c0.7,0.3-6.1,13.4-5.4,13.7c0.7,0.3,5.8-13,6.5-12.7c0.6,0.3-5.6,12.6-5,12.9c0.6,0.3,5.4-12.1,6-11.8
				c0.6,0.3-5,11.5-4.4,11.8c0.5,0.3,4.8-10.6,5.3-10.4c0.5,0.2-3.9,9.5-3.4,9.8c0.4,0.2,3.6-8,4-7.8"/>
		</g>
	</g>
</g>
</svg>
