<?xml version="1.0" encoding="utf-8"?>
<!-- Generator: Adobe Illustrator 24.1.2, SVG Export Plug-In . SVG Version: 6.00 Build 0)  -->
<svg version="1.1" id="Layer_1" xmlns="http://www.w3.org/2000/svg" xmlns:xlink="http://www.w3.org/1999/xlink" x="0px" y="0px"
	 viewBox="0 0 100 100" style="enable-background:new 0 0 100 100;" xml:space="preserve">
<style type="text/css">
	.st0{fill:#99CCFF;}
	.st1{display:none;}
	.st2{display:inline;}
	.st3{fill:none;stroke:#000000;stroke-width:0.1417;stroke-linecap:round;stroke-linejoin:round;}
</style>
<g>
	<g>
		<g>
			<path class="st0" d="M51.1,63.9c-0.3-0.4-0.2-1.1-0.4-1.5c-0.2-0.4-0.6-0.8-0.8-1.3c-0.2-0.5-0.4-0.9-0.6-1.4
				c-0.1-0.5-0.1-1-0.2-1.5c-0.1-0.5-0.3-1-0.4-1.5c0-0.5,0-1,0-1.5c0-0.5,0.4-1,0.5-1.5c0-0.5,0-1,0.1-1.5c0.1-0.5,0.4-0.9,0.5-1.4
				c0.2-0.5,0.2-1,0.4-1.4c0.3-0.5,0.3-0.5,0.6-1s0.2-0.6,0.4-1.1c0.1-0.4-0.1-1,0-1.4c0.1-0.5,1.1-0.8,1.1-1.2
				c0.1-0.5-0.7-1-0.7-1.4c0-0.5,0.3-0.9,0.2-1.4c-0.1-0.5-0.3-0.9-0.4-1.3c-0.1-0.4-0.2-0.9-0.4-1.3c-0.2-0.4-0.5-0.8-0.8-1.1
				c-0.3-0.4-0.9-0.4-1.2-0.7c-0.6-0.6-0.3-0.8-0.7-1.6c-0.4-0.6-0.8-0.4-0.9-1.1c-0.1-0.7-0.3-0.7-0.4-1.4
				c-0.1-0.7,0.2-0.8,0.1-1.5C47,31,47.1,31,47,30.3c-0.1-0.7,0.3-0.8,0.2-1.5c-0.1-0.7-0.7-0.6-0.8-1.3c-0.1-0.7,0.4-0.8,0.2-1.5
				c-0.1-0.7,0-0.7-0.1-1.5c-0.1-0.7-0.5-0.7-0.6-1.4c-0.1-0.7-0.4-0.7-0.4-1.4c0-0.7,0.3-0.5,0.4-1.4c0.1-0.4,0.5-0.9,0.5-1.4
				c0-0.4-0.5-0.9-0.6-1.4c-0.1-0.4,0.3-1,0.2-1.6c-0.1-0.5-0.3-0.9-0.3-1.5c-0.1-0.5-0.5-0.9-0.6-1.5c0-0.5,0.7-1.1,0.6-1.6
				c0-0.5,0-1-0.1-1.5c0-0.5-0.7-1-0.8-1.5c0-0.5-0.1-1-0.1-1.5c0-0.6-0.1-1.1-0.1-1.5c-0.1-0.9,0.3-0.8,0.2-1.5
				c-0.1-0.4-0.5-0.6-0.8-0.8c-0.3-0.2-0.5-0.9-1-0.9c-0.5,0-1.1,0.3-1.4,0.6c-0.3,0.3-0.1,1-0.1,1.5C41.6,5,41.1,5,41,5.8
				c0,0.7,0.3,0.7,0.3,1.5c0,0.7,0.1,0.7,0,1.5c0,0.7-0.1,0.7-0.1,1.5c0,0.7,0.4,0.7,0.4,1.5c0,0.7-0.6,0.7-0.6,1.4
				c0,0.7,0.1,0.7,0.1,1.5c0,0.7,0.1,0.7,0.1,1.5c0,0.7-0.3,0.7-0.4,1.4c0,0.7,0,0.7,0,1.5c0,0.7-0.2,0.7-0.3,1.5s0.7,0.7,0.7,1.5
				c0,0.7-0.5,0.8-0.5,1.5c0,0.7,0.3,0.7,0.3,1.5c0,0.7,0.4,0.7,0.4,1.5c0,0.7-0.7,0.8-0.7,1.5c0,0.7,0.8,0.7,0.8,1.4
				c0,0.7-0.5,0.8-0.5,1.5c0,0.7,0.4,0.7,0.4,1.5c0,0.7-0.2,0.8-0.2,1.5c0,0.7,0.4,0.7,0.4,1.5c0,0.7,0,0.7,0.1,1.5
				c0,0.7-0.6,0.8-0.6,1.5c0,0.7,0.2,0.7,0.2,1.5c0,0.7,0,0.7,0.1,1.5c0,0.7,0.6,0.7,0.6,1.5c0,0.7-0.1,0.8-0.1,1.5
				c0,0.7,0.4,0.8,0.4,1.5c0,0.7-0.8,0.5-1,1.3c-0.1,0.4,0,0.9-0.1,1.4c-0.1,0.4,0,0.9-0.1,1.4c-0.1,0.5-0.1,0.9-0.2,1.4
				c-0.1,0.5-0.4,0.9-0.5,1.3c-0.1,0.5,0.1,1.1,0,1.4c-0.1,0.4-0.9,0.7-0.9,1.3c0,0.4,0.6,0.9,0.7,1.4c0,0.4-0.3,0.9-0.3,1.4
				c0,0.5-0.1,1,0,1.4c0.1,0.5,0.6,0.9,0.7,1.3c0.1,0.5,0.4,0.9,0.6,1.3c0.1,0.5-0.4,1.1-0.3,1.5c0.1,0.5,0.8,0.7,1,1.2
				c0.2,0.5,0.4,0.9,0.6,1.2c0.2,0.5,0.4,0.8,0.7,1.1c0.2,0.3,0.2,1,0.6,1.5c0.3,0.4,0.7,0.7,1.1,1.1c0.4,0.4,0.9,0.6,1.2,1
				c0.6,0.7,0.4,0.5,0.4,1.3c0.1,0.7,0.6,0.7,0.5,1.4c-0.1,0.7-0.5,0.7-0.6,1.4c-0.1,0.7,0.3,0.8,0.1,1.5c-0.1,0.7-0.7,0.6-0.8,1.3
				c-0.1,0.7-0.4,0.7-0.5,1.4c-0.1,0.7,0.7,0.9,0.5,1.6c-0.1,0.7-0.1,0.7-0.2,1.4s-0.2,0.7-0.3,1.4c-0.1,0.7,0.1,0.7,0.1,1.4
				c0,0.7-0.4,0.7-0.4,1.4c0,0.7-0.2,0.7-0.2,1.4c0,0.7-0.2,0.7-0.2,1.4c0,0.7,0.3,0.7,0.4,1.4c0,0.7-0.4,0.7-0.4,1.4
				c0,0.7,0.6,0.7,0.6,1.4c0,0.7,0.1,0.7,0.1,1.4c0,0.7,0.3,0.7,0.3,1.4c0,0.7,0.2,1.5,0.9,1.5c0.7,0,1.6-0.7,1.7-1.4
				c0.1-0.8,0-0.8,0.1-1.5c0.1-0.8-0.6-0.8-0.5-1.6c0.1-0.8,0-0.8,0.1-1.5c0.1-0.8,0.3-0.7,0.4-1.5c0.1-0.8,0.5-0.7,0.6-1.5
				c0.1-0.8,0-0.8,0.1-1.5c0.1-0.8-0.3-0.8-0.3-1.5s-0.3-0.8-0.2-1.6c0.1-0.7,1-0.6,1.2-1.3c0.2-0.7-0.3-0.8-0.1-1.5
				c0.2-0.7,0.2-0.7,0.4-1.4c0.2-0.7,0.2-0.7,0.3-1.4c0.2-0.7,0-0.7,0.2-1.5c0.2-0.7,0.1-0.7,0.2-1.5c0.2-0.7,0.6-0.6,0.8-1.3
				c0.2-0.7,0-0.7,0.2-1.5c0.2-0.7-0.3-0.8-0.1-1.5c0.2-0.7,0.7-0.6,0.9-1.3c0.2-0.7-0.3-0.8-0.1-1.5c0.1-0.5,0.7-1.1,0.6-1.6
				c0-0.5-0.6-1-0.8-1.5C51.9,64.6,51.4,64.3,51.1,63.9z"/>
		</g>
		<g>
			<path class="st0" d="M54,67.1c-0.2,0-0.3,0-0.4,0c0,0.5-0.1,0.9-0.2,1.4c-0.1,0.7-0.2,0.7-0.3,1.4c-0.2,0.7-0.1,0.7-0.3,1.4
				c-0.2,0.7-0.1,0.7-0.3,1.4c-0.2,0.7-0.2,0.7-0.3,1.4c-0.2,0.7-0.2,0.7-0.4,1.4c-0.2,0.7-0.1,0.7-0.3,1.4
				c-0.2,0.7-0.3,0.7-0.3,1.4c0.4,0.2,0.8,0.4,1.3,0.5c0.5,0.1,0.9,0.1,1.4,0.1c0.5,0,1-0.1,1.5-0.2c0.5-0.1,1-0.3,1.4-0.5
				c0.5-0.3,0.9-0.6,1.2-1c0.4-0.4,0.7-0.8,1-1.2c0.3-0.4,0.4-0.9,0.6-1.4c0.1-0.5,0.2-1,0.2-1.5c0-0.5-0.1-1-0.2-1.5
				c-0.1-0.5-0.4-1-0.6-1.4c-0.3-0.5-0.5-0.9-0.9-1.3c-0.4-0.4-0.8-0.6-1.3-0.9c-0.4-0.3-0.9-0.5-1.4-0.6C55,67.1,54.5,67.1,54,67.1
				z"/>
		</g>
	</g>
</g>
<g class="st1">
	<path class="st2" d="M54,67.1c-0.5,0-1,0.1-1.5,0.2c0-1.3-0.3-2.5-1.1-3.6c-3.2-4.6-2.4-11.4-1.1-14.2l1.1-2.1
		c1.3-3.8,0.9-7.5-2-10.2L48,36l-2.4-14.3c0,0,0.8-1.6,0.4-4.2c-0.6-3.4-1.3-13.6-1.3-13.6c-0.1-0.8-0.9-1.4-1.7-1.4
		c-1,0-1.8,0.8-1.7,1.8l-0.6,17.5l1.3,23.7c0,0-1.3,6.2-1.8,8.2c-0.7,3,0.8,11.4,2.8,13.5c0.9,1,4.1,4.6,4.1,4.6L45,83.3l0.2,12.8
		c0,0.7,0.6,1.3,1.4,1.3c0.7,0,1.3-0.5,1.4-1.3l0.9-12.1l1.4-6.5c1,0.8,2.3,1.3,3.7,1.3c3.3,0,5.9-2.7,5.9-5.9S57.3,67.1,54,67.1z"
		/>
</g>
<g>
	<g>
		<g>
			<g>
				<path class="st3" d="M41.4,3.6c0,0,0.3-0.6,0.3-0.6c0.2,0.1-0.4,3.5-0.2,3.5c0.2,0.1,1.6-3.5,1.7-3.4c0.3,0.2-2.6,7.3-2.2,7.5
					c0.3,0.2,3-6.8,3.4-6.6c0.5,0.2-3.8,9.5-3.4,9.7c0.4,0.2,3.8-8.5,4.2-8.3C45.8,5.8,40.4,16.7,41,17c0.4,0.2,3.9-8.7,4.3-8.5
					c0.6,0.3-4.9,11.3-4.3,11.6c0.4,0.2,3.9-8.7,4.3-8.5c0.6,0.3-5,11.5-4.4,11.8c0.4,0.2,4-8.8,4.4-8.6c0.5,0.3-4.6,10.8-4,11
					c0.5,0.2,4.3-9.5,4.7-9.3c0.6,0.3-5.2,11.9-4.6,12.2c0.5,0.2,4.1-9.2,4.6-9c0.6,0.3-5.1,11.6-4.5,11.9c0.4,0.2,4-9,4.5-8.8
					c0.6,0.3-5.1,11.7-4.5,12c0.5,0.2,4.5-10.1,5-9.8c0.6,0.3-4.9,11.4-4.4,11.7c0.4,0.2,3.9-8.8,4.4-8.5c0.6,0.3-5.3,12.1-4.8,12.4
					c0.5,0.3,4.9-11,5.5-10.7c0.6,0.3-5.7,12.8-5.1,13.1c0.5,0.3,4.8-10.8,5.4-10.5c0.6,0.3-5.9,13.2-5.3,13.5
					c0.5,0.3,4.7-10.6,5.3-10.4c0.7,0.4-6.8,14.6-6,15c0.7,0.3,6.5-14.4,7.1-14c1,0.5-9.7,19.8-8.7,20.3c1,0.5,8.9-19.9,9.9-19.4
					c1.1,0.5-10.6,21.2-9.5,21.8c1,0.5,9.5-21.3,10.6-20.7c1.1,0.6-11,22-9.9,22.5c1,0.5,9.4-21,10.4-20.5c1.1,0.6-11,22-9.9,22.5
					c1.1,0.5,9.9-22,10.9-21.5c1.2,0.6-11.6,23.1-10.5,23.7c1,0.5,8.9-19.8,9.8-19.3c1,0.5-10.1,20.4-9.1,20.9
					c0.7,0.3,6.3-14,6.9-13.6c0.7,0.4-6.7,14.5-6,14.9c0.5,0.3,4.9-10.8,5.4-10.6c0.5,0.3-4.8,11.1-4.2,11.4
					c0.5,0.2,4.3-9.7,4.8-9.4c0.5,0.3-4.3,10.3-3.8,10.6c0.5,0.2,4.2-9.5,4.7-9.2c0.5,0.2-4,9.8-3.5,10c0.4,0.2,3.5-8,4-7.8
					c0.5,0.3-4.7,11.1-4.2,11.3c0.5,0.3,4.8-10.7,5.3-10.4c0.7,0.3-6.4,14-5.7,14.3c0.6,0.3,5.7-12.7,6.3-12.4
					c0.8,0.4-7.7,16.3-6.9,16.7c0.7,0.3,6.1-13.5,6.7-13.2c0.8,0.4-8.1,16.9-7.2,17.3c0.5,0.3,4.8-10.6,5.3-10.3
					c0.6,0.3-5.5,12.5-4.9,12.8c0.5,0.2,4.2-9.5,4.7-9.2c0.6,0.3-5.1,11.7-4.5,12c0.3,0.1,2.3-5.2,2.6-5.1c0.4,0.2-3,8.1-2.6,8.3
					c0.3,0.2,2.8-6.2,3.1-6.1c0.4,0.2-2.7,7.6-2.4,7.7c0.2,0.1,1.6-3.7,1.8-3.6c0.2,0.1-0.4,3.5-0.2,3.5c0,0,0.3-0.7,0.3-0.7"/>
			</g>
			<g>
				<path class="st3" d="M53.4,67.3C53.4,67.3,53.5,67.2,53.4,67.3c0.3,0.1-1.2,4.9-0.9,5c0.2,0.1,2.2-5,2.5-4.9
					c0.5,0.3-4.4,10.4-3.8,10.7c0.5,0.3,4.8-10.6,5.3-10.4c0.5,0.3-4.6,10.8-4.1,11.1c0.5,0.3,4.8-10.6,5.3-10.4
					c0.5,0.2-4.1,10-3.6,10.2c0.5,0.2,4.3-9.6,4.8-9.3c0.4,0.2-3.7,9.3-3.2,9.5c0.4,0.2,3.6-8.1,4-7.9c0.3,0.2-2.2,6.6-1.9,6.8
					c0.2,0.1,1.9-4.3,2.2-4.2"/>
			</g>
		</g>
	</g>
</g>
</svg>
