<?xml version="1.0" encoding="utf-8"?>
<!-- Generator: Adobe Illustrator 24.1.2, SVG Export Plug-In . SVG Version: 6.00 Build 0)  -->
<svg version="1.1" id="Layer_1" xmlns="http://www.w3.org/2000/svg" xmlns:xlink="http://www.w3.org/1999/xlink" x="0px" y="0px"
	 viewBox="0 0 100 100" style="enable-background:new 0 0 100 100;" xml:space="preserve">
<style type="text/css">
	.Graphic_x0020_Style_x0020_2{fill:#99CCFF;}
	.st0{fill:none;stroke:#000000;stroke-width:0.1417;stroke-linecap:round;stroke-linejoin:round;}
</style>
<g>
	<path class="Graphic_x0020_Style_x0020_2" d="M67.7,49.2c-0.1-0.3-0.2-0.7-0.4-1.2c-0.1-0.4,0.1-0.9,0-1.3
		c-0.1-0.4-0.4-0.7-0.6-1.2c-0.1-0.4-0.3-0.8-0.4-1.2c-0.1-0.4-0.3-0.8-0.5-1.2c-0.1-0.4,0.4-1,0.2-1.4c-0.1-0.4-0.7-0.7-0.8-1.1
		c-0.1-0.4,0.1-0.9,0-1.3c-0.1-0.4-0.2-0.9-0.3-1.2c-0.1-0.5-1-0.7-1.1-1c-0.2-0.6-0.2-1.1-0.2-1.3c-0.1-0.4,0.3-0.9,0.2-1.3
		c-0.1-0.4-0.3-0.8-0.4-1.2c-0.1-0.4-0.2-0.8-0.3-1.2c-0.1-0.4-0.8-0.6-0.9-1c-0.1-0.4,0.1-0.9,0-1.3c-0.1-0.4-0.3-0.8-0.4-1.2
		c-0.1-0.4,0.2-0.9,0.1-1.3c-0.1-0.4-0.1-0.8-0.2-1.2c-0.1-0.4-0.8-0.7-0.9-1.2c-0.1-0.4-0.4-0.8-0.5-1.3c-0.1-0.4,0.2-0.9,0.1-1.4
		c-0.1-0.4,0-0.9-0.2-1.3c-0.2-0.6-0.4-1.2-0.8-1.4c-0.4-0.2-1-0.3-1.5-0.3c-0.4,0-0.9,0.5-1.4,0.4c-0.4-0.1-0.8-0.5-1.2-0.6
		c-0.4-0.1-0.8-0.2-1.2-0.4c-0.3-0.2-0.7-0.5-0.9-0.8c-0.2-0.3-0.7-0.6-0.8-1c-0.1-0.4,0.1-1,0.2-1.4c0.4-0.2,0.8-0.4,1.1-0.7
		c0.3-0.3,0.9-0.3,1.2-0.7c0.2-0.3-0.2-1-0.1-1.4c0.1-0.4,1-0.6,1.1-1c0.1-0.4-0.2-0.9-0.2-1.3c0-0.5-0.6-0.8-0.7-1.3
		c-0.1-0.5,0-0.9-0.2-1.3C54.6,7.1,55,6.4,54.7,6c-0.3-0.4-0.8-0.6-1.2-0.8c-0.4-0.3-0.8-0.6-1.2-0.7C52,4.3,51.5,4.7,51,4.7
		c0,0,0-0.6-0.1-0.6c-0.1,0-0.1,0.7-0.2,0.7c-0.4,0-1-0.5-1.4-0.3c-0.4,0.2-1,0.3-1.3,0.6c-0.3,0.3-0.7,0.7-0.9,1.1
		c-0.2,0.4,0,1-0.1,1.4c-0.2,0.4-0.5,0.8-0.6,1.2c-0.1,0.4,0.2,0.9,0.2,1.3c0,0.5-0.7,1-0.6,1.5c0.1,0.5,1,0.7,1.2,1.1
		c0.2,0.4,0.4,0.8,0.7,1.1c0.3,0.4,0.5,0.8,0.9,1c0.1,0.2,0,0.6,0,0.9c0,0.4-0.5,0.8-0.6,1.1c-0.1,0.4,0.1,0.9-0.1,1.2
		c-0.2,0.3-0.6,0.5-1,0.6c-0.3,0.1-0.8-0.1-1.2,0c-0.4,0.1-0.6,0.5-1,0.6c-0.4,0.1-0.7,0-1.1,0.1c-0.5,0-1,0.1-1.4,0.3
		c-0.4,0.2-0.1,1-0.3,1.4c0,0.1-0.3,0.5-0.5,1.2c-0.1,0.3-0.3,0.7-0.5,1.2c-0.1,0.4-0.8,0.6-0.9,1.1c-0.1,0.4,0,0.9-0.1,1.3
		c-0.1,0.4-0.4,0.8-0.5,1.2c-0.1,0.4-0.3,0.8-0.4,1.2c-0.1,0.4,0.2,1,0.1,1.4C39,30.1,39,30.6,38.9,31c-0.1,0.4-0.6,0.7-0.8,1.1
		c-0.1,0.4-0.7,0.7-0.9,1.1c-0.1,0.4,0.4,1,0.3,1.4c-0.1,0.4,0,0.9-0.1,1.3c-0.1,0.4-1,0.6-1.1,1c-0.1,0.4,0.2,1,0,1.4
		c-0.1,0.4-0.4,0.8-0.6,1.2c-0.1,0.4-0.2,0.8-0.4,1.2c-0.1,0.4,0.1,0.9,0,1.3c-0.1,0.4-0.2,0.8-0.4,1.2c-0.1,0.4-0.5,0.7-0.7,1.1
		c-0.1,0.4-0.9,0.6-1,1c-0.1,0.4,0.2,1,0,1.4c-0.1,0.4-0.5,0.7-0.7,1.1c-0.1,0.4-0.5,0.8-0.6,1.2c-0.1,0.4,0.6,1.1,0.4,1.5
		c-0.2,0.5-0.2,0.7-0.1,1.1c0.1,0.5-0.3,1.1,0,1.4c0.4,0.3,1.1,0.6,1.4,0.7c0.4-0.3,0.3-1.2,0.5-1.6c0.2-0.5,0.1-1,0.2-1.3
		c0.2-0.5,0.6-0.7,0.8-1.1c0.1-0.4,0.4-0.7,0.6-1.2c0.1-0.4,0.5-0.6,0.7-1.1c0.2-0.4-0.3-1.1-0.2-1.5c0.2-0.4,0.5-0.7,0.7-1.1
		c0.2-0.4,0.7-0.6,0.9-1c0.2-0.4,0.6-0.7,0.7-1.1c0.2-0.4-0.4-1.1-0.2-1.5c0.2-0.4,0.4-0.8,0.5-1.2c0.2-0.4,0.7-0.6,0.9-1
		c0.2-0.4,0.7-0.7,0.8-1.1c0.2-0.4,0.4-0.8,0.6-1.2c0.2-0.4-0.6-1.2-0.4-1.6c0.2-0.4,0.8-0.6,0.9-1c0.2-0.4-0.1-1,0.1-1.4
		c0.2-0.4,0.9-0.6,1.1-1c0.2-0.4,0.1-0.9,0.3-1.3c0.1-0.2,0.5-0.4,0.7-0.7c0.1,0.4,0.4,0.7,0.5,1.1c0.1,0.4,0.2,0.7,0.2,1.1
		c0.1,0.4,0,0.8,0,1.1c0.1,0.4,0.3,0.7,0.3,1.1c0.1,0.5-0.3,1.1-0.3,1.6c0,0.5,0,1.1-0.1,1.6c-0.1,0.4,0.2,0.8,0.1,1.2
		c-0.1,0.4-1,0.6-1.1,1c-0.1,0.4,0.5,0.9,0.4,1.3c-0.1,0.4-0.4,0.7-0.5,1.1c-0.1,0.4-0.6,0.6-0.7,1c-0.1,0.4,0.3,0.9,0.2,1.3
		c-0.1,0.4-0.3,0.8-0.4,1.2c-0.1,0.4,0.1,0.9,0,1.3c-0.1,0.4-0.5,0.8-0.6,1.2c0,0.4-0.1,0.9-0.1,1.3c0,0.4-0.4,0.9-0.4,1.3
		c0,0.4,0.6,0.8,0.6,1.3c0,0.4-0.3,0.9-0.2,1.3c0.1,0.4,0.5,0.8,0.5,1.2c0.1,0.4,0.2,0.8,0.2,1.2c0.1,0.4-0.2,0.9-0.1,1.3
		c0.1,0.4,0.1,0.8,0.2,1.2c0.1,0.4,0.6,0.7,0.7,1.1c0.1,0.4-0.5,0.9-0.4,1.3c0.1,0.4,0.9,0.7,0.9,1.1s-0.4,0.9-0.4,1.3
		c0,0.4,0.6,0.8,0.7,1.2c0,0.4-0.3,0.8-0.3,1.2c0,0.4-0.3,0.8-0.3,1.2c0,0.4,0.4,0.8,0.4,1.2c0,0.4-0.5,0.8-0.5,1.2
		c0,0.4,0.4,0.8,0.4,1.2c0,0.4-0.3,0.8-0.3,1.2c0,0.4,0.2,0.8,0.2,1.2c0,0.4-0.4,0.8-0.3,1.2c0,0.4,0.2,0.7,0.2,1.1
		c0,0.4,0.2,0.7,0.3,1.1c0,0.6-0.1,0.6-0.1,1.3c0,0.6,0.1,0.6,0.1,1.3c0,0.6-0.2,0.6-0.2,1.3c0,0.6,0.6,0.6,0.6,1.3
		c0,0.6-0.2,0.6-0.2,1.3c0,0.6-0.2,0.6-0.2,1.3c0,0.6-0.3,0.6-0.3,1.3c0,0.6,0.1,0.6,0.1,1.3c0,0.6-0.2,0.6-0.2,1.3
		c0,0.6,0.2,0.6,0.2,1.3c0,0.6-0.2,0.6-0.2,1.3c0,0.6,0.7,0.6,0.7,1.3c0,0.6-0.3,0.6-0.3,1.3c0,0.6,0.2,0.6,0.2,1.3s0.1,0.6,0.1,1.3
		c0,0.6,0.2,1.5,0.8,1.5c0.8,0,0.8-0.4,1.5-0.4s0.8-0.2,1.5-0.2c0.4,0,0.6-0.1,0.8-0.4c0,0-0.2-0.2-0.1-0.2c0,0,0.7,0.4,0.7,0.4
		c0.1-0.1-0.5-0.5-0.5-0.7c0-0.6,0.6-0.6,0.6-1.2c0-0.6-0.1-0.6-0.1-1.2c0-0.6-0.4-0.6-0.4-1.2c0-0.6-0.2-0.6-0.2-1.2
		c0-0.6,0.1-0.6,0.1-1.2c0-0.6,0.7-0.6,0.7-1.2c0-0.6-0.9-0.6-0.9-1.3c0-0.6,0.7-0.6,0.7-1.3c0-0.6,0-0.6,0-1.3
		c0-0.6,0.2-0.6,0.2-1.3c0-0.6,0.1-0.6,0.1-1.3c0-0.6-0.2-0.6-0.2-1.3c0-0.6-0.6-0.6-0.6-1.3c0-0.6,0.3-0.6,0.3-1.3
		c0-0.6,0.4-0.6,0.4-1.3c0-0.6-0.3-0.6-0.3-1.3c0-0.6,0.6-0.6,0.6-1.3c0-0.6-0.9-0.7-0.9-1.3c0-0.6,0.7-0.6,0.7-1.3
		c0-0.6,0.1-0.6,0.1-1.3c0-0.6-0.8-0.7-0.8-1.3c0-0.6,0-0.6,0-1.3c0-0.6,0.6-0.6,0.6-1.3c0-0.6-0.3-0.6-0.3-1.3c0-0.6,0-0.6,0-1.3
		c0-0.6,0.1-0.6,0.1-1.3c0-0.6-0.3-0.6-0.3-1.3c0-0.6,0.2-0.6,0.3-1.3c0-0.6,0.4-0.6,0.4-1.3c0-0.6,0-0.6,0.1-1.3
		c0-0.6-0.4-0.6,0-1.1c0.3-0.4,0.4-0.6,0.7-0.2c0.4,0.5,0.3,0.6,0.3,1.2c0,0.6-0.1,0.6-0.1,1.3c0,0.6-0.2,0.6-0.2,1.3
		c0,0.6,0.2,0.6,0.2,1.3c0,0.6,0,0.6,0,1.3c0,0.6-0.5,0.6-0.5,1.3c0,0.6,0.6,0.6,0.6,1.3c0,0.6-0.2,0.6-0.2,1.3
		c0,0.6,0.2,0.6,0.2,1.3c0,0.6-0.4,0.6-0.4,1.3c0,0.6,0.3,0.6,0.3,1.3c0,0.6-0.5,0.6-0.5,1.3c0,0.6,0.5,0.6,0.5,1.3
		c0,0.6-0.2,0.6-0.2,1.3c0,0.6,0.4,0.6,0.4,1.3c0,0.6,0.2,0.6,0.2,1.3c0,0.6-0.6,0.6-0.7,1.3c0,0.6,0.2,0.6,0.2,1.3
		c0,0.6-0.1,0.6-0.1,1.3c0,0.6,0,0.6,0,1.3c0,0.6-0.2,0.6-0.2,1.3c0,0.6,0.7,0.6,0.7,1.3c0,0.6-0.3,0.6-0.3,1.3
		c0,0.6-0.2,0.6-0.2,1.3c0,0.6-0.3,0.6-0.3,1.3c0,0.6,0.2,0.6,0.2,1.3c0,0.6,0,0.6,0,1.3c0,0.6-0.1,0.6-0.1,1.3
		c0,0.6,0.7,0.6,0.7,1.3c0,0.6-0.5,0.6-0.5,1.3c0,0.6-0.4,0.7-0.3,1.3c0,0,0.5-0.2,0.6-0.2l-0.1,0.2c0,0.4,0.5,1,0.9,1
		c0.6,0,0.6,0.2,1.2,0.2c0.6,0,0.6-0.8,1.2-0.8c0.6,0,0.6,0.1,1.2,0.1c0.4,0,0.6-0.1,0.6-0.5c0-0.6,0.2-0.6,0.2-1.2
		c0-0.6-0.1-0.6-0.1-1.2c0-0.6,0.5-0.6,0.5-1.2c0-0.6-0.2-0.6-0.2-1.2c0-0.6-0.5-0.6-0.5-1.2c0-0.6-0.1-0.6-0.1-1.2
		c0-0.6,0.5-0.6,0.5-1.3c0-0.6,0.3-0.6,0.3-1.2c0-0.6-0.3-0.6-0.3-1.3c0-0.6,0.3-0.6,0.3-1.3c0-0.6,0.1-0.6,0.1-1.3
		c0-0.6-0.9-0.6-0.9-1.3c0-0.6,0.6-0.6,0.6-1.3c0-0.6-0.5-0.6-0.4-1.3c0.1-0.5,0.2-1,0.2-1.4c0.1-0.4,0.7-0.8,0.7-1.2
		c0-0.4-0.6-0.9-0.6-1.3c0-0.4,0.7-0.8,0.7-1.2c0-0.4,0.2-0.8,0.2-1.3c0-0.4-0.1-0.8-0.1-1.3c0-0.4-0.3-0.8-0.3-1.3
		c0-0.4,0.4-0.8,0.4-1.2c0-0.4-0.2-0.9-0.2-1.3c0-0.4,0.1-0.9,0.1-1.3c0-0.4,0-0.9,0.1-1.3c0-0.4-0.2-0.9-0.2-1.3
		c0.1-0.4,0.5-0.8,0.5-1.2c0.1-0.4-0.1-0.9,0-1.3c0.1-0.4,0.5-0.8,0.5-1.2c0.1-0.4,0.2-0.8,0.3-1.3c0.1-0.4,0.4-0.8,0.5-1.2
		c0.1-0.4,0-0.8,0.1-1.2c0.1-0.4,0.2-0.8,0.2-1.2c0.1-0.4-0.6-0.9-0.6-1.3c0-0.4,0.4-0.8,0.4-1.2c0-0.4,0.3-0.8,0.2-1.2
		c0-0.4,0.1-0.8,0.1-1.2c0-0.4,0.2-0.8,0.1-1.2c0-0.4-0.9-0.7-1-1.1c-0.1-0.4-0.1-0.8-0.2-1.2c-0.1-0.4,0.3-0.9,0.2-1.3
		c-0.1-0.4-0.7-0.6-0.8-1c-0.1-0.4-0.3-0.7-0.5-1.1c-0.1-0.4,0.4-1,0.2-1.4c-0.1-0.4-0.6-0.7-0.7-1.1c-0.1-0.4,0-0.8,0-1.2
		c-0.1-0.4-0.5-0.8-0.5-1.2c0-0.4-0.1-0.8-0.1-1.2c0-0.5-0.1-1.1,0-1.5c0.1-0.5,1-0.8,1.2-1.2c0.1-0.5,0.1-1,0.2-1.4
		c0-0.3,0-0.6,0.1-1c0-0.3,0-0.6,0-0.9c0.1,0,0.4-0.3,0.5-0.3c0.1,0.3-0.3,1-0.1,1.5c0.1,0.4,0.4,0.7,0.5,1.2c0.1,0.4,0.9,0.6,1.1,1
		c0.1,0.4-0.3,1-0.1,1.4c0.1,0.4,0.6,0.7,0.8,1.1c0.1,0.4,0.5,0.8,0.6,1.2c0.1,0.4-0.2,1-0.1,1.4c0.1,0.4,0.1,0.9,0.3,1.3
		c0.2,0.5,0.9,0.7,1,1c0.1,0.4-0.3,0.9-0.2,1.3c0.1,0.4,0.7,0.6,0.8,1c0.1,0.4,0.6,0.7,0.7,1c0.1,0.4,0.4,0.7,0.6,1.1
		c0.1,0.4,0.2,0.8,0.3,1.2c0.1,0.4,0,0.8,0.2,1.2c0.1,0.4-0.2,0.9,0,1.3c0.1,0.4,0.6,0.7,0.7,1c0.1,0.4,0.4,0.7,0.6,1.1
		c0.1,0.4,0.4,0.7,0.5,1.1s0.1,0.8,0.2,1.2c0.2,0.3,0.4,0.1,0.8-0.2c0.3-0.2,0.4-0.5,0.6-1c0.2-0.4,0.8-0.6,0.9-1
		C68.4,49.9,67.9,49.6,67.7,49.2z"/>
</g>
<g class="Graphic_x0020_Style">
	<g class="Graphic_x0020_Style">
		<path class="st0" d="M50.3,55.7C51,56,56.8,41,57.5,41.4c0.7,0.4-7.1,15.2-6.3,15.6c0.7,0.4,6.2-13.9,6.9-13.6
			c0.8,0.4-7.7,16.3-6.9,16.7c0.7,0.4,6.7-15,7.4-14.6c0.9,0.4-8.3,17.2-7.4,17.7c0.8,0.4,7.2-16,8-15.6c0.9,0.5-8.9,18.4-8,18.9
			c0.8,0.4,7.3-16.2,8.1-15.8c0.9,0.5-9.1,18.6-8.2,19.1c0.7,0.4,6.7-14.9,7.4-14.6c0.8,0.4-8.2,17.1-7.3,17.5
			c0.6,0.3,5.7-12.8,6.4-12.5c0.8,0.4-7.2,15.4-6.5,15.8c0.6,0.3,5.4-12.1,6-11.8c0.7,0.4-6.6,14.3-5.9,14.7
			c0.6,0.3,5.1-11.3,5.6-11c0.7,0.3-6.3,13.8-5.6,14.2c0.5,0.3,4.9-11,5.5-10.7c0.7,0.3-6.2,13.7-5.6,14c0.5,0.3,4.9-11,5.5-10.7
			c0.7,0.3-6.1,13.5-5.4,13.8c0.5,0.3,4.6-10.3,5.1-10c0.6,0.3-5.8,13-5.2,13.3c0.5,0.3,4.8-10.7,5.3-10.5
			c0.6,0.3-5.9,13.1-5.3,13.4c0.5,0.3,4.7-10.4,5.2-10.1c0.5,0.3-4.4,10.5-3.9,10.8c0.4,0.2,3.6-8,4-7.8c0.4,0.2-2.9,8-2.6,8.2
			c0.2,0.1,2.4-5.2,2.6-5.1c0.2,0.1-1.2,4.8-0.9,4.9c0.1,0,0.6-1.5,0.7-1.4"/>
		<path class="st0" d="M57.4,29.2c0.3,0.2,2.9-6.6,3.3-6.4c0.3,0.2-2.5,7.2-2.1,7.3c0.3,0.1,2.3-5.1,2.5-5c0.3,0.2-2.4,7-2,7.1
			c0.3,0.1,2.5-5.5,2.7-5.3c0.3,0.2-2.3,6.8-1.9,6.9c0.2,0.1,2.2-5,2.5-4.9c0.3,0.2-2.2,6.7-1.9,6.9c0.2,0.1,2.2-4.8,2.4-4.7
			c0.3,0.2-2.2,6.7-1.9,6.8c0.2,0.1,2.1-4.7,2.3-4.6c0.3,0.1-1.9,6.2-1.6,6.3c0.2,0.1,2-4.5,2.2-4.4c0.3,0.2-2,6.3-1.7,6.5
			c0.2,0.1,2-4.5,2.2-4.4c0.3,0.1-1.7,5.8-1.4,5.9c0.2,0.1,1.9-4.2,2.1-4.1c0.3,0.1-1.7,5.8-1.5,6c0.2,0.1,1.8-4.1,2-4
			c0.3,0.1-1.7,5.7-1.4,5.9c0.2,0.1,1.7-3.8,1.9-3.7c0.3,0.1-1.5,5.5-1.3,5.6c0.2,0.1,1.6-3.6,1.8-3.6c0.3,0.1-1.7,5.7-1.4,5.9
			c0.2,0.1,1.8-3.9,2-3.8c0.2,0.1-1.4,5.3-1.2,5.4c0.2,0.1,1.6-3.5,1.7-3.4"/>
		<path class="st0" d="M53,15.2c0.3,0.1,2.2-4.9,2.5-4.8"/>
		<path class="st0" d="M43.5,30.4C44.6,31,54,7.1,55.1,7.6C56.3,8.2,43.3,31,44.5,31.6c1.1,0.6,9.9-22.2,11-21.6
			c1.2,0.6-11.9,23.5-10.7,24.1c0.8,0.4,7.6-17,8.4-16.6c0.9,0.5-9.3,19-8.3,19.5c0.9,0.5,8.6-19.1,9.5-18.6
			c1.2,0.6-12.2,24.1-11,24.7c1.2,0.6,11.2-25,12.4-24.3C57.3,19.4,41,47.3,42.5,48c1.5,0.7,13.4-29.8,14.8-29.1
			c1.6,0.8-16.6,31.7-15,32.5c1.6,0.8,14.8-33.1,16.4-32.3c1.7,0.9-17.7,33.6-16,34.5c1.7,0.9,15.4-34.3,17-33.5
			c1.8,0.9-18.4,34.9-16.6,35.8c1.7,0.9,15.6-34.9,17.3-34c1.8,0.9-18.7,35.4-16.9,36.3c1.3,0.7,12.1-27,13.4-26.4
			c1.4,0.7-14.6,28.3-13.2,29c1.3,0.6,11.6-25.9,12.9-25.2c1.4,0.7-14,27.2-12.6,27.9c1.3,0.6,11.7-26,12.9-25.4
			c1.4,0.7-14.1,27.4-12.7,28.1c1.3,0.7,11.9-26.6,13.2-25.9c1.4,0.7-14.7,28.5-13.3,29.2c0.6,0.3,5.3-11.7,5.8-11.5
			c0.7,0.4-6.7,14.4-5.9,14.8c0.6,0.3,5.4-12.1,6-11.8c0.7,0.4-6.6,14.2-5.9,14.6c0.5,0.3,5.2-11.6,5.8-11.4
			c0.7,0.3-6.3,13.8-5.6,14.1c0.5,0.3,4.8-10.8,5.4-10.6c0.7,0.3-6.2,13.6-5.5,14c0.5,0.3,5.1-11.4,5.7-11.1
			c0.7,0.3-6.1,13.5-5.5,13.9c0.5,0.3,4.8-10.7,5.3-10.5c0.7,0.3-6,13.3-5.3,13.6c0.5,0.3,4.6-10.3,5.1-10.1
			c0.6,0.3-5.9,13.2-5.3,13.5c0.5,0.3,4.8-10.6,5.3-10.3c0.6,0.3-5.8,13-5.2,13.3c0.5,0.3,4.6-10.4,5.1-10.1
			c0.5,0.3-4.8,11.2-4.3,11.5c0.4,0.2,3.9-8.7,4.3-8.5c0.4,0.2-3.3,8.5-2.9,8.7c0.3,0.1,2.5-5.5,2.7-5.4c0.2,0.1-1.2,4.9-1,5
			c0.1,0.1,0.8-1.8,0.9-1.7"/>
		<path class="st0" d="M41.7,21.2c0,0,0.1-0.3,0.2-0.3c0.4,0.2-3.5,8.8-3,9.1c0.5,0.3,4.8-10.6,5.3-10.4c0.9,0.5-8.9,18.3-8,18.8
			c1,0.5,8.7-19.4,9.7-19c1.4,0.7-14,27.2-12.6,27.9c1.5,0.7,13.5-30.2,15-29.4c1.7,0.9-17.5,33.3-15.8,34.2
			C34.6,53.2,52.8,6.5,55,7.6c2.2,1.1-23.8,44.3-21.6,45.4c0.3,0.2,2.7-5.9,3-5.8"/>
		<path class="st0" d="M47,7.3c0,0,0.4-0.8,0.4-0.7c0.2,0.1-1.1,4.7-0.8,4.8c0.3,0.2,3.2-7.1,3.5-6.9c0.4,0.2-3.2,8.4-2.8,8.6
			c0.4,0.2,4-8.9,4.4-8.7c0.5,0.2-4.2,10.1-3.7,10.3c0.5,0.2,4.4-9.9,4.9-9.6c0.6,0.3-5,11.6-4.5,11.9c0.5,0.3,5.1-11.4,5.7-11.1"/>
	</g>
</g>
</svg>
