<?xml version="1.0" standalone="no"?>
<!DOCTYPE svg PUBLIC "-//W3C//DTD SVG 20010904//EN"
 "http://www.w3.org/TR/2001/REC-SVG-20010904/DTD/svg10.dtd">
<svg version="1.0" xmlns="http://www.w3.org/2000/svg"
 width="765.000000pt" height="1280.000000pt" viewBox="0 0 765.000000 1280.000000"
 preserveAspectRatio="xMidYMid meet">
<g transform="translate(0.000000,1280.000000) scale(0.100000,-0.100000)"
fill="#000000" stroke="none">
<path d="M3907 12220 c-76 -24 -145 -70 -232 -156 -127 -125 -169 -275 -169
-599 0 -154 3 -201 17 -249 35 -112 3 -326 -52 -356 -12 -6 -22 -26 -26 -49
-4 -22 -12 -44 -19 -50 -27 -22 -182 -51 -277 -51 -142 0 -188 -17 -269 -98
-76 -78 -114 -150 -159 -301 -32 -107 -58 -309 -47 -364 8 -37 -36 -170 -130
-399 -102 -249 -114 -282 -183 -521 -45 -152 -76 -237 -117 -318 -53 -106
-183 -422 -254 -614 -45 -122 -170 -416 -220 -514 -22 -44 -50 -87 -62 -95
-38 -24 -278 -106 -356 -122 -41 -8 -121 -14 -178 -14 -88 0 -106 -3 -111 -16
-9 -24 8 -46 53 -69 32 -17 56 -20 139 -18 85 3 105 0 133 -17 19 -11 32 -24
30 -28 -32 -76 -115 -217 -169 -287 -89 -116 -141 -215 -137 -258 4 -47 34
-42 75 13 65 87 217 260 230 260 7 0 13 -4 13 -9 0 -5 -45 -98 -100 -206 -74
-147 -100 -208 -100 -236 0 -86 51 -46 139 110 67 118 100 165 101 141 0 -20
-43 -110 -74 -157 -26 -37 -35 -96 -17 -107 26 -16 139 131 232 300 45 81 61
99 85 90 13 -5 15 -15 10 -54 -9 -57 -33 -160 -53 -224 -15 -48 -5 -94 20 -85
24 8 123 271 167 444 25 98 141 396 176 450 48 75 188 272 279 393 158 209
254 359 310 485 36 81 121 301 156 403 17 49 57 128 95 189 100 160 237 461
298 658 21 66 41 124 46 129 14 14 37 -34 84 -175 100 -302 110 -430 52 -694
-21 -93 -42 -174 -47 -180 -7 -7 -15 -4 -23 8 -16 21 -46 22 -46 2 0 -9 7 -30
16 -47 29 -55 -2 -164 -52 -187 -16 -7 -24 -25 -34 -73 -6 -34 -21 -87 -31
-115 -10 -29 -32 -106 -48 -170 -36 -140 -57 -202 -103 -303 -71 -154 -98
-262 -154 -605 -26 -157 -28 -191 -27 -450 0 -222 4 -318 22 -465 24 -211 83
-551 140 -820 59 -280 74 -388 75 -545 0 -118 -5 -158 -28 -255 -44 -187 -57
-300 -63 -560 -6 -278 7 -460 57 -770 68 -431 82 -551 75 -640 -5 -47 -9 -125
-10 -175 -2 -66 -13 -136 -43 -260 -23 -93 -48 -210 -57 -260 -18 -106 -37
-367 -28 -390 3 -9 16 -20 28 -25 14 -6 26 -21 30 -40 5 -24 13 -32 36 -37 26
-5 29 -10 29 -43 0 -42 20 -65 48 -56 14 5 24 -1 36 -19 12 -18 25 -25 49 -25
25 0 36 -7 49 -30 22 -38 55 -39 90 -2 48 49 49 65 53 462 3 290 7 393 20 455
10 49 13 100 9 135 -3 30 -1 74 4 96 6 26 6 63 0 95 -21 128 -25 205 -17 311
11 146 67 463 124 698 77 318 88 413 80 710 -6 279 -7 278 55 454 27 77 33
113 46 280 18 245 32 349 94 686 70 376 84 534 84 965 1 261 -3 386 -13 453
-17 110 -11 123 42 92 25 -15 43 -19 59 -14 13 4 33 7 46 5 12 -1 36 4 52 12
51 26 55 -12 17 -173 -33 -142 -35 -151 -52 -345 -38 -417 -46 -752 -25 -1049
9 -142 10 -194 1 -208 -15 -25 -14 -58 3 -58 17 0 22 -13 32 -75 5 -39 4 -51
-9 -60 -15 -11 -15 -20 8 -111 14 -54 32 -111 40 -126 11 -19 15 -60 15 -156
l0 -130 -31 -11 c-43 -15 -37 -47 8 -44 39 3 46 -13 48 -112 1 -43 8 -82 18
-102 21 -40 22 -81 2 -103 -12 -13 -17 -61 -25 -201 -5 -101 -14 -211 -21
-244 -16 -84 -14 -219 4 -290 42 -160 60 -293 72 -530 4 -71 13 -148 21 -170
7 -22 14 -74 14 -115 0 -41 7 -115 15 -165 8 -49 15 -114 15 -143 0 -29 4 -61
9 -70 12 -23 -15 -89 -41 -98 -13 -4 -17 -11 -13 -22 19 -46 22 -74 14 -113
-6 -23 -12 -83 -14 -133 -1 -50 -6 -106 -10 -124 -5 -21 -3 -42 5 -57 11 -20
11 -27 0 -40 -11 -13 -10 -25 6 -73 10 -31 27 -67 38 -79 18 -21 19 -34 13
-225 -4 -124 -2 -239 5 -295 8 -65 8 -107 0 -145 -20 -103 25 -218 86 -218 32
0 46 9 55 33 4 10 17 17 33 17 16 0 37 11 54 30 18 19 34 28 44 24 24 -9 45
14 53 58 4 28 13 43 29 50 13 6 27 23 32 37 5 15 24 41 41 59 l32 32 -7 97
c-3 54 -18 159 -31 233 -14 74 -27 164 -30 200 -2 36 -13 102 -25 147 -23 91
-20 136 14 178 22 28 17 41 -17 47 -19 3 -20 12 -22 123 -1 80 3 135 12 165 8
25 17 61 20 81 6 31 4 37 -14 42 -27 7 -27 27 -1 27 11 0 20 6 20 13 0 6 3 23
7 37 6 23 5 24 -11 11 -24 -20 -28 -10 -16 50 16 79 21 88 30 64 5 -14 9 -3
14 40 4 33 14 114 22 180 9 66 19 171 23 234 8 107 10 116 35 137 48 42 60
119 31 192 -14 35 -14 50 0 156 8 64 15 136 15 159 0 24 7 53 16 66 14 20 15
26 3 48 -12 22 -11 27 6 39 18 13 21 30 25 144 4 82 10 134 18 142 17 17 15
45 -3 52 -9 3 -19 -3 -26 -15 -19 -36 -28 -8 -30 86 -1 50 -8 121 -15 158 -8
38 -14 93 -14 123 0 53 0 54 30 54 23 0 30 4 30 20 0 10 -8 24 -18 29 -23 12
-42 73 -42 132 0 88 33 273 52 295 20 22 23 51 9 73 -7 10 2 36 29 86 22 39
46 100 54 135 8 36 26 92 39 125 14 33 31 89 38 125 6 36 18 72 26 82 10 12
13 29 8 60 -4 29 1 91 14 172 12 70 19 130 17 135 -6 8 41 268 50 283 13 21
26 220 30 455 2 149 8 258 15 282 11 36 9 50 -19 138 -17 55 -38 132 -47 173
-8 41 -48 181 -90 310 -139 438 -176 576 -177 660 0 32 -15 50 -42 50 -13 0
-28 11 -39 29 -18 32 -23 116 -7 126 6 3 10 24 10 46 0 48 -26 54 -41 9 -23
-64 -37 -38 -85 156 -47 192 -53 285 -25 422 12 57 32 131 45 165 32 86 157
347 166 347 4 0 31 -71 60 -157 89 -262 224 -559 320 -703 39 -59 55 -95 66
-150 3 -19 17 -55 29 -80 12 -25 41 -98 63 -162 77 -220 171 -387 366 -648
155 -208 301 -430 320 -485 8 -22 35 -100 61 -173 26 -73 55 -163 66 -200 64
-231 121 -392 151 -430 8 -9 14 -9 24 -1 18 15 17 53 -2 108 -8 24 -22 88 -32
143 -14 84 -15 100 -3 108 24 14 41 0 73 -64 74 -147 203 -326 235 -326 33 0
22 73 -18 124 -23 30 -73 146 -65 153 7 7 71 -95 119 -187 54 -106 107 -149
122 -100 9 30 -8 75 -106 276 -49 99 -89 186 -89 192 0 26 27 9 72 -46 26 -31
67 -80 90 -108 24 -28 58 -72 76 -98 25 -36 38 -47 55 -44 14 2 23 11 25 26 6
43 -88 214 -169 307 -36 41 -141 243 -133 256 16 27 65 38 160 36 86 -2 105 1
141 20 40 22 61 52 48 73 -4 6 -53 10 -115 10 -132 0 -223 17 -355 65 -189 68
-180 62 -235 180 -65 138 -191 456 -251 630 -56 166 -174 452 -217 527 -18 31
-58 147 -97 278 -41 138 -106 325 -170 485 -140 353 -143 362 -148 530 -9 244
-78 453 -190 566 -73 75 -114 89 -266 93 -146 4 -182 14 -203 59 -9 18 -31 41
-49 51 l-33 19 22 -35 c27 -43 27 -48 2 -48 -14 0 -22 11 -31 43 -7 23 -20 51
-29 62 -34 39 -42 69 -47 164 -5 82 -2 105 17 156 44 119 58 228 54 390 -9
269 -44 366 -184 505 -49 49 -106 98 -127 108 -105 54 -240 66 -346 32z m-407
-1404 c0 -21 -26 -50 -38 -42 -9 5 -8 15 3 37 15 28 35 32 35 5z m1188 -2288
c-6 -18 -28 -21 -28 -4 0 9 7 16 16 16 9 0 14 -5 12 -12z m1772 -1689 c7 -11
9 -24 5 -27 -7 -7 -35 25 -35 40 0 16 19 8 30 -13z m-4940 -19 c-6 -12 -14
-19 -17 -17 -2 3 1 15 7 27 6 12 14 19 17 17 2 -3 -1 -15 -7 -27z m2555 -1740
c3 -11 3 -25 0 -30 -10 -16 -35 8 -35 31 0 25 27 24 35 -1z m675 -1790 c0 -11
-4 -20 -9 -20 -14 0 -23 18 -16 30 10 17 25 11 25 -10z m-526 -1596 c3 -9 6
-23 6 -32 0 -13 -3 -12 -15 4 -16 21 -19 44 -6 44 5 0 12 -7 15 -16z m-986
-286 c-2 -30 -8 -53 -15 -56 -14 -4 -18 45 -7 86 11 41 25 23 22 -30z m1170
-502 c-2 -15 -7 -28 -13 -29 -12 -2 -19 38 -10 60 9 25 27 1 23 -31z"/>
<path d="M4824 4254 c3 -9 6 -18 6 -20 0 -3 5 -2 10 1 16 10 12 35 -6 35 -11
0 -14 -5 -10 -16z"/>
</g>
</svg>
