<?xml version="1.0" encoding="utf-8"?>
<!-- Generator: Adobe Illustrator 24.1.2, SVG Export Plug-In . SVG Version: 6.00 Build 0)  -->
<svg version="1.1" id="Layer_1" xmlns="http://www.w3.org/2000/svg" xmlns:xlink="http://www.w3.org/1999/xlink" x="0px" y="0px"
	 viewBox="0 0 100 100" style="enable-background:new 0 0 100 100;" xml:space="preserve">
<g transform="translate(0.000000,1280.000000) scale(0.100000,-0.100000)">
	<path d="M509.1,12750.2c-6.1-1.9-11.7-5.6-18.7-12.5c-10.2-10.1-13.6-22.1-13.6-48.2c0-12.4,0.2-16.2,1.4-20
		c2.8-9,0.2-26.2-4.2-28.6c-1-0.5-1.8-2.1-2.1-3.9c-0.3-1.8-1-3.5-1.5-4c-2.2-1.8-14.6-4.1-22.3-4.1c-11.4,0-15.1-1.4-21.6-7.9
		c-6.1-6.3-9.2-12.1-12.8-24.2c-2.6-8.6-4.7-24.8-3.8-29.3c0.6-3-2.9-13.7-10.5-32.1c-8.2-20-9.2-22.7-14.7-41.9
		c-3.6-12.2-6.1-19.1-9.4-25.6c-4.3-8.5-14.7-33.9-20.4-49.4c-3.6-9.8-13.7-33.5-17.7-41.3c-1.8-3.5-4-7-5-7.6
		c-3.1-1.9-22.4-8.5-28.6-9.8c-3.3-0.6-9.7-1.1-14.3-1.1c-7.1,0-8.5-0.2-8.9-1.3c-0.7-1.9,0.6-3.7,4.3-5.5c2.6-1.4,4.5-1.6,11.2-1.4
		c6.8,0.2,8.4,0,10.7-1.4c1.5-0.9,2.6-1.9,2.4-2.3c-2.6-6.1-9.2-17.5-13.6-23.1c-7.2-9.3-11.3-17.3-11-20.7c0.3-3.8,2.7-3.4,6,1
		c5.2,7,17.5,20.9,18.5,20.9c0.6,0,1-0.3,1-0.7c0-0.4-3.6-7.9-8-16.6c-6-11.8-8-16.7-8-19c0-6.9,4.1-3.7,11.2,8.8
		c5.4,9.5,8,13.3,8.1,11.3c0-1.6-3.5-8.8-6-12.6c-2.1-3-2.8-7.7-1.4-8.6c2.1-1.3,11.2,10.5,18.7,24.1c3.6,6.5,4.9,8,6.8,7.2
		c1-0.4,1.2-1.2,0.8-4.3c-0.7-4.6-2.7-12.9-4.3-18c-1.2-3.9-0.4-7.6,1.6-6.8c1.9,0.6,9.9,21.8,13.4,35.7c2,7.9,11.3,31.8,14.2,36.2
		c3.9,6,15.1,21.9,22.4,31.6c12.7,16.8,20.4,28.9,24.9,39c2.9,6.5,9.7,24.2,12.5,32.4c1.4,3.9,4.6,10.3,7.6,15.2
		c8,12.9,19.1,37.1,24,52.9c1.7,5.3,3.3,10,3.7,10.4c1.1,1.1,3-2.7,6.8-14.1c8-24.3,8.8-34.6,4.2-55.8c-1.7-7.5-3.4-14-3.8-14.5
		c-0.6-0.6-1.2-0.3-1.8,0.6c-1.3,1.7-3.7,1.8-3.7,0.2c0-0.7,0.6-2.4,1.3-3.8c2.3-4.4-0.2-13.2-4.2-15c-1.3-0.6-1.9-2-2.7-5.9
		c-0.5-2.7-1.7-7-2.5-9.2c-0.8-2.3-2.6-8.5-3.9-13.7c-2.9-11.3-4.6-16.2-8.3-24.4c-5.7-12.4-7.9-21.1-12.4-48.7
		c-2.1-12.6-2.3-15.4-2.2-36.2c0-17.9,0.3-25.6,1.8-37.4c1.9-17,6.7-44.3,11.3-65.9c4.7-22.5,6-31.2,6-43.8c0-9.5-0.4-12.7-2.3-20.5
		c-3.5-15-4.6-24.1-5.1-45c-0.5-22.4,0.6-37,4.6-61.9c5.5-34.7,6.6-44.3,6-51.5c-0.4-3.8-0.7-10.1-0.8-14.1
		c-0.2-5.3-1-10.9-3.5-20.9c-1.8-7.5-3.9-16.9-4.6-20.9c-1.4-8.5-3-29.5-2.3-31.4c0.2-0.7,1.3-1.6,2.3-2c1.1-0.5,2.1-1.7,2.4-3.2
		c0.4-1.9,1-2.6,2.9-3c2.1-0.4,2.3-0.8,2.3-3.5c0-3.4,1.6-5.2,3.9-4.5c1.1,0.4,1.9-0.1,2.9-1.5c1-1.4,2-2,3.9-2c2,0,2.9-0.6,3.9-2.4
		c1.8-3.1,4.4-3.1,7.2-0.2c3.9,3.9,3.9,5.2,4.3,37.2c0.2,23.3,0.6,31.6,1.6,36.6c0.8,3.9,1,8,0.7,10.9c-0.2,2.4-0.1,6,0.3,7.7
		c0.5,2.1,0.5,5.1,0,7.6c-1.7,10.3-2,16.5-1.4,25c0.9,11.7,5.4,37.2,10,56.1c6.2,25.6,7.1,33.2,6.4,57.1
		c-0.5,22.4-0.6,22.4,4.4,36.5c2.2,6.2,2.7,9.1,3.7,22.5c1.4,19.7,2.6,28.1,7.6,55.2c5.6,30.2,6.8,42.9,6.8,77.6
		c0.1,21-0.2,31-1,36.4c-1.4,8.8-0.9,9.9,3.4,7.4c2-1.2,3.5-1.5,4.7-1.1c1,0.3,2.7,0.6,3.7,0.4c1-0.1,2.9,0.3,4.2,1
		c4.1,2.1,4.4-1,1.4-13.9c-2.7-11.4-2.8-12.1-4.2-27.7c-3.1-33.5-3.7-60.5-2-84.4c0.7-11.4,0.8-15.6,0.1-16.7
		c-1.2-2-1.1-4.7,0.2-4.7c1.4,0,1.8-1,2.6-6c0.4-3.1,0.3-4.1-0.7-4.8c-1.2-0.9-1.2-1.6,0.6-8.9c1.1-4.3,2.6-8.9,3.2-10.1
		c0.9-1.5,1.2-4.8,1.2-12.5v-10.5l-2.5-0.9c-3.5-1.2-3-3.8,0.6-3.5c3.1,0.2,3.7-1,3.9-9c0.1-3.5,0.6-6.6,1.4-8.2
		c1.7-3.2,1.8-6.5,0.2-8.3c-1-1-1.4-4.9-2-16.2c-0.4-8.1-1.1-17-1.7-19.6c-1.3-6.8-1.1-17.6,0.3-23.3c3.4-12.9,4.8-23.6,5.8-42.6
		c0.3-5.7,1-11.9,1.7-13.7c0.6-1.8,1.1-6,1.1-9.2c0-3.3,0.6-9.2,1.2-13.3c0.6-3.9,1.2-9.2,1.2-11.5s0.3-4.9,0.7-5.6
		c1-1.8-1.2-7.2-3.3-7.9c-1-0.3-1.4-0.9-1-1.8c1.5-3.7,1.8-6,1.1-9.1c-0.5-1.8-1-6.7-1.1-10.7c-0.1-4-0.5-8.5-0.8-10
		c-0.4-1.7-0.2-3.4,0.4-4.6c0.9-1.6,0.9-2.2,0-3.2c-0.9-1-0.8-2,0.5-5.9c0.8-2.5,2.2-5.4,3.1-6.4c1.4-1.7,1.5-2.7,1-18.1
		c-0.3-10-0.2-19.2,0.4-23.7c0.6-5.2,0.6-8.6,0-11.7c-1.6-8.3,2-17.5,6.9-17.5c2.6,0,3.7,0.7,4.4,2.7c0.3,0.8,1.4,1.4,2.7,1.4
		c1.3,0,3,0.9,4.3,2.4c1.4,1.5,2.7,2.3,3.5,1.9c1.9-0.7,3.6,1.1,4.3,4.7c0.3,2.3,1,3.5,2.3,4c1,0.5,2.2,1.8,2.6,3
		c0.4,1.2,1.9,3.3,3.3,4.7l2.6,2.6l-0.6,7.8c-0.2,4.3-1.4,12.8-2.5,18.7c-1.1,6-2.2,13.2-2.4,16.1c-0.2,2.9-1,8.2-2,11.8
		c-1.8,7.3-1.6,10.9,1.1,14.3c1.8,2.3,1.4,3.3-1.4,3.8c-1.5,0.2-1.6,1-1.8,9.9c-0.1,6.4,0.2,10.9,1,13.3c0.6,2,1.4,4.9,1.6,6.5
		c0.5,2.5,0.3,3-1.1,3.4c-2.2,0.6-2.2,2.2-0.1,2.2c0.9,0,1.6,0.5,1.6,1c0,0.5,0.2,1.8,0.6,3c0.5,1.9,0.4,1.9-0.9,0.9
		c-1.9-1.6-2.3-0.8-1.3,4c1.3,6.4,1.7,7.1,2.4,5.1c0.4-1.1,0.7-0.2,1.1,3.2c0.3,2.7,1.1,9.2,1.8,14.5c0.7,5.3,1.5,13.8,1.8,18.8
		c0.6,8.6,0.8,9.3,2.8,11c3.9,3.4,4.8,9.6,2.5,15.4c-1.1,2.8-1.1,4,0,12.5c0.6,5.1,1.2,10.9,1.2,12.8c0,1.9,0.6,4.3,1.3,5.3
		c1.1,1.6,1.2,2.1,0.2,3.9c-1,1.8-0.9,2.2,0.5,3.1c1.4,1,1.7,2.4,2,11.6c0.3,6.6,0.8,10.8,1.4,11.4c1.4,1.4,1.2,3.6-0.2,4.2
		c-0.7,0.2-1.5-0.2-2.1-1.2c-1.5-2.9-2.3-0.6-2.4,6.9c-0.1,4-0.6,9.7-1.2,12.7c-0.6,3.1-1.1,7.5-1.1,9.9c0,4.3,0,4.3,2.4,4.3
		c1.8,0,2.4,0.3,2.4,1.6c0,0.8-0.6,1.9-1.4,2.3c-1.8,1-3.4,5.9-3.4,10.6c0,7.1,2.7,22,4.2,23.7c1.6,1.8,1.8,4.1,0.7,5.9
		c-0.6,0.8,0.2,2.9,2.3,6.9c1.8,3.1,3.7,8,4.3,10.9c0.6,2.9,2.1,7.4,3.1,10.1c1.1,2.7,2.5,7.2,3.1,10.1c0.5,2.9,1.4,5.8,2.1,6.6
		c0.8,1,1,2.3,0.6,4.8c-0.3,2.3,0.1,7.3,1.1,13.8c1,5.6,1.5,10.5,1.4,10.9c-0.5,0.6,3.3,21.6,4,22.8c1,1.7,2.1,17.7,2.4,36.6
		c0.2,12,0.6,20.7,1.2,22.7c0.9,2.9,0.7,4-1.5,11.1c-1.4,4.4-3.1,10.6-3.8,13.9c-0.6,3.3-3.9,14.6-7.2,24.9
		c-11.2,35.2-14.2,46.3-14.2,53.1c0,2.6-1.2,4-3.4,4c-1,0-2.3,0.9-3.1,2.3c-1.4,2.6-1.8,9.3-0.6,10.1c0.5,0.2,0.8,1.9,0.8,3.7
		c0,3.9-2.1,4.3-3.3,0.7c-1.8-5.1-3-3.1-6.8,12.5c-3.8,15.4-4.3,22.9-2,33.9c1,4.6,2.6,10.5,3.6,13.3c2.6,6.9,12.6,27.9,13.3,27.9
		c0.3,0,2.5-5.7,4.8-12.6c7.2-21.1,18-45,25.7-56.5c3.1-4.7,4.4-7.6,5.3-12.1c0.2-1.5,1.4-4.4,2.3-6.4c1-2,3.3-7.9,5.1-13
		c6.2-17.7,13.8-31.1,29.4-52.1c12.5-16.7,24.2-34.6,25.7-39c0.6-1.8,2.8-8,4.9-13.9c2.1-5.9,4.4-13.1,5.3-16.1
		c5.1-18.6,9.7-31.5,12.1-34.6c0.6-0.7,1.1-0.7,1.9-0.1c1.4,1.2,1.4,4.3-0.2,8.7c-0.6,1.9-1.8,7.1-2.6,11.5c-1.1,6.8-1.2,8-0.2,8.7
		c1.9,1.1,3.3,0,5.9-5.1c6-11.8,16.3-26.2,18.9-26.2c2.7,0,1.8,5.9-1.4,10c-1.8,2.4-5.9,11.7-5.2,12.3c0.6,0.6,5.7-7.6,9.6-15
		c4.3-8.5,8.6-12,9.8-8c0.7,2.4-0.6,6-8.5,22.2c-3.9,8-7.2,15-7.2,15.4c0,2.1,2.2,0.7,5.8-3.7c2.1-2.5,5.4-6.4,7.2-8.7
		c1.9-2.3,4.7-5.8,6.1-7.9c2-2.9,3.1-3.8,4.4-3.5c1.1,0.2,1.8,0.9,2,2.1c0.5,3.5-7.1,17.2-13.6,24.7c-2.9,3.3-11.3,19.5-10.7,20.6
		c1.3,2.2,5.2,3.1,12.9,2.9c6.9-0.2,8.4,0.1,11.3,1.6c3.2,1.8,4.9,4.2,3.9,5.9c-0.3,0.5-4.3,0.8-9.2,0.8c-10.6,0-17.9,1.4-28.5,5.2
		c-15.2,5.5-14.5,5-18.9,14.5c-5.2,11.1-15.4,36.7-20.2,50.7c-4.5,13.4-14,36.4-17.5,42.4c-1.4,2.5-4.7,11.8-7.8,22.4
		c-3.3,11.1-8.5,26.1-13.7,39c-11.3,28.4-11.5,29.1-11.9,42.6c-0.7,19.6-6.3,36.4-15.3,45.5c-5.9,6-9.2,7.2-21.4,7.5
		c-11.7,0.3-14.6,1.1-16.3,4.7c-0.7,1.4-2.5,3.3-3.9,4.1l-2.7,1.5l1.8-2.8c2.2-3.5,2.2-3.9,0.2-3.9c-1.1,0-1.8,0.9-2.5,3.5
		c-0.6,1.8-1.6,4.1-2.3,5c-2.7,3.1-3.4,5.5-3.8,13.2c-0.4,6.6-0.2,8.4,1.4,12.5c3.5,9.6,4.7,18.3,4.3,31.4
		c-0.7,21.6-3.5,29.4-14.8,40.6c-3.9,3.9-8.5,7.9-10.2,8.7C528.4,12752,517.6,12752.9,509.1,12750.2z M476.3,12637.3
		c0-1.7-2.1-4-3.1-3.4c-0.7,0.4-0.6,1.2,0.2,3C474.7,12639.1,476.3,12639.5,476.3,12637.3z M571.9,12453.3c-0.5-1.4-2.3-1.7-2.3-0.3
		c0,0.7,0.6,1.3,1.3,1.3C571.6,12454.3,572,12453.9,571.9,12453.3z M714.4,12317.5c0.6-0.9,0.7-1.9,0.4-2.2c-0.6-0.6-2.8,2-2.8,3.2
		C712,12319.8,713.5,12319.2,714.4,12317.5z M317.1,12315.9c-0.5-1-1.1-1.5-1.4-1.4c-0.2,0.2,0.1,1.2,0.6,2.2c0.5,1,1.1,1.5,1.4,1.4
		C317.8,12317.9,317.6,12316.9,317.1,12315.9z M522.6,12176c0.2-0.9,0.2-2,0-2.4c-0.8-1.3-2.8,0.6-2.8,2.5
		C519.8,12178.1,521.9,12178,522.6,12176z M576.9,12032.1c0-0.9-0.3-1.6-0.7-1.6c-1.1,0-1.8,1.4-1.3,2.4
		C575.7,12034.2,576.9,12033.7,576.9,12032.1z M534.6,11903.7c0.2-0.7,0.5-1.8,0.5-2.6c0-1-0.2-1-1.2,0.3c-1.3,1.7-1.5,3.5-0.5,3.5
		C533.8,11905,534.3,11904.4,534.6,11903.7z M455.3,11880.7c-0.2-2.4-0.6-4.3-1.2-4.5c-1.1-0.3-1.4,3.6-0.6,6.9
		C454.4,11886.4,455.5,11885,455.3,11880.7z M549.4,11840.3c-0.2-1.2-0.6-2.3-1-2.3c-1-0.2-1.5,3.1-0.8,4.8
		C548.2,11844.8,549.7,11842.9,549.4,11840.3z"/>
	<path d="M582.8,12109.6c0.2-0.7,0.5-1.4,0.5-1.6c0-0.2,0.4-0.2,0.8,0.1c1.3,0.8,1,2.8-0.5,2.8
		C582.7,12110.9,582.5,12110.5,582.8,12109.6z"/>
</g>
</svg>
