<?xml version="1.0" encoding="utf-8"?>
<!-- Generator: Adobe Illustrator 24.1.2, SVG Export Plug-In . SVG Version: 6.00 Build 0)  -->
<svg version="1.1" id="Layer_1" xmlns="http://www.w3.org/2000/svg" xmlns:xlink="http://www.w3.org/1999/xlink" x="0px" y="0px"
	 viewBox="0 0 100 100" style="enable-background:new 0 0 100 100;" xml:space="preserve">
<path d="M68.3,50.6c-0.7-1.9-3.6-12.3-3.9-13.6c-0.8-3.2-1.7-6.4-2.6-9.6c-0.4-1.7-0.7-3.5-1.2-5.2c-0.3-1.1-1.1-1.4-2.2-1.5
	c-1.2-0.1-2.5-0.4-3.7-0.9c-1-0.5-1.5-1.7-1.4-2.9c1.6-0.9,2.7-2.9,2.7-5.3c0-3.2-2.1-5.8-4.6-5.8c0,0-0.1,0-0.1,0
	c-0.1,0-0.1,0-0.2,0c-2.4,0.2-4.3,2.7-4.3,5.8c0,2.1,0.9,3.9,2.2,4.9c0.1,0.2,0.1,0.5,0.1,0.8c-0.1,1.4-0.3,2.5-1.7,3
	c-1,0.4-2.1,0.7-3.3,0.9c-1,0.1-1.7,0.6-2,1.4c-0.4,1.1-6.6,20.9-9.6,29.4c-0.6,1.8,0.8,2.8,1.7,3c0.4-0.3,0.5-0.9,0.7-1.3
	c0.9-2.2,1-2.7,1.9-4.9c1.5-3.6,3.2-7.2,4.7-10.8c0.8-2,1.6-4.1,2.4-6.1c0.1-0.2,0.4-0.4,0.6-0.7c0.3,1.6,0.5,3,0.7,4.4
	c0.1,1,0.2,2.1,0,3.1c-0.5,2.3-1,4.6-1.7,6.8c-1.1,3.3-1.1,6.8-0.4,10.1c0.9,4.8,1.6,9.6,1.6,14.5c0,1.6-0.4,3.2-0.2,4.8
	c0.1,0.7,0.2,1.5,0.3,2.2v18.9c0,0.6,0.5,1.1,1.1,1.1h3c0.4,0,0.7-0.2,0.9-0.5c0,0,0,0,0.1,0l0-0.1c0.1-0.1,0.1-0.3,0.1-0.5v-7
	l0.6-31.7l1-0.1l-0.1,39c0,0,0.1,0,0.1,0v0c0,0.4,0.4,0.8,0.8,0.8h3.5c0.4,0,0.8-0.4,0.8-0.8V78.6c0.1-0.5,0.2-1,0.2-1.4
	c0.4-3.3,0.2-6.7,0.5-10.1c0.3-3.4,0.7-6.9,1.5-10.2c1.2-4.9,0.9-9.5-0.8-14.3c-0.7-1.9-1-4-1.1-6c-0.1-1.4,0.5-2.8,0.7-4.2
	c0.1-0.6,0.2-1.3,0.2-1.9c0.1,0,0.3-0.1,0.4-0.1c0.7,1.6,3.2,8.9,3.8,11c1.4,4.2,2.8,8.4,4.3,12.6C67,55,69.2,52.8,68.3,50.6z"/>
</svg>
