<?xml version="1.0" encoding="utf-8"?>
<!-- Generator: Adobe Illustrator 24.1.2, SVG Export Plug-In . SVG Version: 6.00 Build 0)  -->
<svg version="1.1" id="Layer_1" xmlns="http://www.w3.org/2000/svg" xmlns:xlink="http://www.w3.org/1999/xlink" x="0px" y="0px"
	 viewBox="0 0 100 100" style="enable-background:new 0 0 100 100;" xml:space="preserve">
<style type="text/css">
	.Graphic_x0020_Style{fill:#99CCFF;}
	.st0{fill:none;stroke:#000000;stroke-width:0.1417;stroke-linecap:round;stroke-linejoin:round;}
</style>
<g>
	<path class="Graphic_x0020_Style" d="M93.3,64.6c-0.6-0.3-0.6-0.5-1.2-0.8c-0.6-0.3-0.8,0-1.4-0.4c-0.6-0.3-0.4-0.7-1-1.1
		c-0.6-0.3-0.6-0.4-1.2-0.7c-0.6-0.3-0.9,0.2-1.5-0.1c-0.6-0.3-0.4-0.7-1-1.1c-0.6-0.3-0.8-0.1-1.4-0.4c-0.6-0.3-0.6-0.3-1.2-0.7
		c-0.6-0.3-0.6-0.3-1.2-0.7c-0.6-0.3-0.5-0.6-1.1-0.9c-0.6-0.3-0.9,0.2-1.5-0.1c-0.6-0.3-0.5-0.5-1.2-0.8c-0.6-0.3-0.5-0.7-1.1-1
		c-0.6-0.3-0.8-0.1-1.4-0.4c-0.6-0.3-0.7-0.1-1.4-0.4s-0.4-0.7-1-1.1c-0.1,0-0.6-0.1-1.4-0.5c-0.4-0.2-0.8-0.4-1.3-0.6
		c-0.4-0.2-0.8-0.5-1.2-0.8c-0.4-0.2-0.9-0.4-1.3-0.6c-0.4-0.2-0.8-0.4-1.3-0.7c-0.4-0.2-0.7-0.7-1.1-0.9c-0.4-0.2-1-0.3-1.4-0.5
		c-0.4-0.2-0.8-0.5-1.2-0.8c-0.4-0.2-0.6-0.8-1.1-1.1c-0.4-0.2-0.9-0.4-1.3-0.7c-0.4-0.2-0.8-0.7-1.1-0.9c-0.4-0.3-1-0.2-1.4-0.4
		c-0.5-0.3-0.8-0.7-1.1-0.9c-0.8-0.4-1.1-0.7-1.1-0.7c0,0-0.2,0.2-0.2,0.2c-0.2-0.5-0.6-0.8-0.8-1.2c-0.3-0.4-0.4-0.9-0.7-1.2
		c-0.3-0.3-0.7-0.7-1.1-0.9c-0.4-0.2-0.8-0.7-1.2-0.9c-0.4-0.2-1-0.3-1.5-0.3c-0.5-0.1-1,0.5-1.5,0.5c-0.1,0-0.6-0.5-1.3-0.8
		c-0.4-0.1-0.8-0.4-1.3-0.5c-0.4-0.1-1,0.1-1.5-0.1c-0.4-0.1-0.7-0.7-1.2-0.9c-0.4-0.1-0.9-0.1-1.4-0.3c-0.4-0.1-0.9-0.4-1.3-0.5
		c-0.4-0.1-0.9-0.3-1.3-0.4c-0.4-0.1-0.9-0.2-1.4-0.4c-0.5-0.2-0.9-0.4-1.3-0.5c-0.5-0.2-1,0-1.4-0.2c-0.5-0.2-0.9-0.4-1.3-0.6
		c-0.5-0.2-1-0.1-1.4-0.3c-0.4-0.2-0.7-0.8-1.1-1c-0.4-0.1-0.9-0.2-1.4-0.3c-0.4-0.1-0.9-0.1-1.4-0.2c-0.5-0.1-0.9-0.2-1.4-0.3
		c-0.5-0.1-0.9-0.1-1.4-0.1c-0.5,0-0.9-0.1-1.4-0.1c-0.9,0-0.9,0.2-1.9,0.2c-0.5,0-0.8,0.5-1.2,0.7c-0.4,0.2-1,0-1.3,0.3
		c-0.3,0.3-0.7,0.7-0.9,1.1c-0.2,0.4-0.5,0.9-0.6,1.4c0,0.7,0.1,0.6,0.1,1.5c0,0.4,0.2,0.9,0.2,1.5c0,0.5,0.5,0.9,0.5,1.4
		c0,0.5-0.2,1-0.2,1.5c0,0.5,0.3,1,0.3,1.4c0,0.5-0.1,1-0.1,1.5c0,0.5-0.1,1-0.1,1.5c0,0.5-0.1,1,0,1.5c0,0.5,0.3,1,0.3,1.5
		c0,0.5-0.1,1-0.1,1.5c0,0.5,0.1,1,0.1,1.5c0,0.9,0.4,1.4,0.4,1.4c0,0.7,0.3,0.7,0.3,1.4c0,0.7-0.1,0.7-0.1,1.4
		c0,0.7-0.4,0.7-0.3,1.4c0,0.7-0.2,0.7-0.2,1.4c0,0.7,0.4,0.7,0.4,1.4c0,0.7-0.4,0.7-0.3,1.4c0,0.7,0.1,0.7,0.2,1.4
		c0,0.7,0.4,0.7,0.4,1.4c0,0.7,0,0.7,0,1.4c0,0.7-0.2,0.7-0.2,1.4s0.4,0.7,0.4,1.4c0,0.5,0.2,0.7,0.5,1.1c0.3,0.3,0.5,0.9,1,0.9
		l0-0.3c0.5,0,0.7-0.2,1.1-0.6c0.3-0.3,0.6-0.6,0.6-1.1c0-0.8,0.1-0.7,0.2-1.5c0-0.7,0-0.8,0-1.5c0-0.7,0.1-0.7,0.1-1.5
		c0-0.8,0-0.8,0-1.5c0-0.8,0-0.8,0-1.5c0-0.8,0.4-0.7,0.4-1.5c0-0.8,0-0.8,0.1-1.5c0-0.8,0.1-0.7,0.1-1.5c0-0.8-0.2-0.8-0.2-1.5
		c0-0.8-0.2-0.8-0.2-1.5c0-0.8,0-0.8,0-1.5c0-0.1,0.1-0.7,0.2-1.5c0-0.5-0.1-1-0.1-1.6c0-0.5,0-1,0-1.6c0-0.6,0.2-1.1,0.2-1.6
		c0-0.9-0.8-1.3,0-1.4c0.7-0.1,0.6,0.4,1.3,0.6c0.7,0.2,0.8-0.1,1.5,0c0.7,0.2,0.7,0.4,1.4,0.6c0.7,0.2,0.7,0.3,1.4,0.5
		c0.7,0.2,0.8-0.2,1.5,0c0.7,0.2,0.7,0.1,1.5,0.2c0.7,0.2,0.7,0.3,1.4,0.5c0.7,0.2,0.6,0.5,1.3,0.7c0.7,0.2,0.8-0.2,1.5,0
		c0.7,0.2,0.6,0.6,1.3,0.8c0.7,0.2,0.8,0,1.5,0.2c0.7,0.2,0.8-0.2,1.5-0.1c0.7,0.2,0.5,0.8,1.3,1c0.7,0.2,0.8-0.1,1.5,0.1
		c0.7,0.2,0.7,0.4,1.4,0.6c0.7,0.2,0.9-0.4,1.6-0.2c0.7,0.2,0.6,0.5,1.4,0.7c0.7,0.2,0.7,0.4,1.4,0.6c0,0,0.1,0.1,0.1,0.1
		c0.1,0,0.6-0.2,1.4,0.1c0.4,0.2,0.8,0.5,1.3,0.7c0.4,0.2,0.8,0.4,1.3,0.6c0.4,0.2,0.8,0.4,1.3,0.6c0.4,0.2,1-0.1,1.5,0.1
		c0.4,0.2,0.7,0.8,1.2,0.9c0.4,0.2,0.9,0.4,1.3,0.6c0.4,0.2,1,0.2,1.4,0.3c0.4,0.2,0.9,0.4,1.3,0.6c0.4,0.2,0.9,0.3,1.3,0.5
		c0.5,0.2,0.9,0.3,1.4,0.5c0.5,0.2,0.8,0.7,1.2,0.9c0.5,0.2,1,0.2,1.4,0.4c0.5,0.2,1.1,0.1,1.5,0.2c0.8,0.3,1.1,1,1.1,1
		c0.6,0.3,0.8-0.1,1.5,0.2c0.6,0.3,0.7,0.3,1.3,0.6c0.6,0.3,0.6,0.5,1.2,0.8c0.6,0.3,0.8,0,1.4,0.3c0.6,0.3,0.5,0.6,1.1,0.9
		c0.6,0.3,0.8,0,1.4,0.3c0.6,0.3,0.7,0.2,1.3,0.5c0.6,0.3,0.5,0.7,1.1,1c0.6,0.3,0.7,0.1,1.4,0.4c0.6,0.3,0.6,0.4,1.2,0.7
		c0.6,0.3,0.7,0.1,1.4,0.4c0.6,0.3,0.5,0.6,1.2,0.8c0.6,0.3,0.7,0.2,1.3,0.5c0.6,0.3,0.5,0.5,1.2,0.8c0.6,0.3,0.7,0.2,1.3,0.5
		c0.6,0.3,0.8,0.1,1.4,0.4c0.5,0.2,0.9,0.6,1.4,0.6c0.5,0,1.1-0.1,1.5-0.4c0.4-0.3,0.7-0.8,0.9-1.3c0.2-0.5,0.1-0.9,0.1-1.4
		c-0.1-0.5,0.2-1.1-0.1-1.5C94.4,65,93.8,64.8,93.3,64.6z"/>
</g>
<g>
	<path class="Graphic_x0020_Style" d="M11.1,28.8c0.5,0,0.9,0.1,1.4,0.2c0.5,0.1,0.9,0.2,1.3,0.4c0.4,0.2,0.8,0.5,1.1,0.8
		c0.4,0.3,0.7,0.6,1,0.9c0.3,0.4,0.5,0.8,0.7,1.2c0.2,0.4,0.3,0.9,0.4,1.3c0.1,0.4,0.2,0.9,0.2,1.4c0,0.5-0.1,0.9-0.2,1.4
		c-0.1,0.5-0.2,0.9-0.4,1.3c-0.2,0.4-0.4,0.8-0.7,1.2c-0.3,0.4-0.6,0.6-1,0.9c-0.4,0.3-0.7,0.6-1.1,0.8c-0.4,0.2-0.8,0.3-1.3,0.4
		C12,40.9,11.6,41,11.1,41c-0.5,0-0.9-0.1-1.3-0.2c-0.5-0.1-0.9-0.2-1.3-0.4C8,40.2,7.6,40,7.3,39.7c-0.4-0.3-0.6-0.7-0.9-1
		c-0.3-0.4-0.5-0.8-0.7-1.2c-0.2-0.4-0.5-0.8-0.6-1.3c-0.1-0.4-0.1-0.9-0.1-1.4c0-0.5,0.1-0.9,0.2-1.4c0.1-0.5,0.2-0.9,0.4-1.3
		C5.8,31.8,6,31.4,6.3,31c0.3-0.4,0.6-0.7,1-1c0.4-0.3,0.8-0.5,1.2-0.7c0.4-0.2,0.8-0.4,1.3-0.5C10.2,28.8,10.6,28.8,11.1,28.8z"/>
</g>
<g class="Graphic_x0020_Style_x0020_2">
	<g class="Graphic_x0020_Style_x0020_2">
		<path class="st0" d="M25,45c0.6,0.3,5-11.3,5.6-11c0.5,0.3-4.7,11.1-4.2,11.3c0.6,0.3,5-11.3,5.6-11c0.5,0.3-4.7,11-4.1,11.2
			c0.6,0.3,5.1-11.4,5.7-11.1c0.6,0.3-5,11.5-4.4,11.8c0.6,0.3,5.1-11.4,5.7-11.1c0.5,0.3-4.7,11.1-4.2,11.4
			c0.5,0.3,4.9-11,5.5-10.8c0.5,0.3-4.5,10.7-4,11c0.5,0.3,5-11.1,5.5-10.9c0.5,0.3-4.7,11.1-4.2,11.4c0.5,0.3,5.1-11.3,5.6-11
			c0.5,0.3-4.8,11.2-4.3,11.5c0.5,0.3,5.1-11.2,5.6-11c0.5,0.3-4.7,11-4.1,11.2c0.5,0.3,5-11,5.5-10.8c0.5,0.3-4.4,10.5-3.9,10.8
			c0.5,0.3,4.7-10.5,5.2-10.2c0.5,0.3-4.5,10.6-4,10.9c0.5,0.3,4.8-10.7,5.3-10.5c0.5,0.3-4.4,10.5-3.9,10.7
			c0.5,0.3,4.7-10.4,5.2-10.2c0.5,0.3-4.2,10.2-3.7,10.5c0.5,0.3,4.7-10.5,5.2-10.2c0.5,0.3-4.3,10.2-3.8,10.5
			c0.5,0.3,4.5-10.1,5-9.8c0.5,0.2-4.1,10.1-3.7,10.3c0.5,0.3,4.7-10.6,5.2-10.3c0.5,0.3-4.3,10.3-3.8,10.6
			c0.5,0.3,4.6-10.4,5.2-10.1c0.5,0.3-4.4,10.4-3.8,10.7c0.5,0.3,4.7-10.4,5.2-10.2c0.5,0.3-4.3,10.4-3.8,10.6
			c0.5,0.3,4.6-10.3,5.1-10c0.5,0.2-4.1,9.9-3.6,10.1c0.5,0.2,4.2-9.4,4.7-9.2c0.5,0.2-3.8,9.5-3.4,9.7c0.4,0.2,3.8-8.4,4.2-8.2
			c0.4,0.2-3.4,8.8-3,9c0.4,0.2,3.7-8.2,4.1-8c0.4,0.2-3,8.1-2.6,8.3c0.4,0.2,3.5-7.9,3.9-7.7c0.4,0.2-3.1,8.2-2.7,8.4
			c0.4,0.2,3.5-7.8,3.9-7.6c0.4,0.2-2.8,7.6-2.4,7.8c0.4,0.2,3.4-7.5,3.7-7.3c0.4,0.2-2.8,7.7-2.4,7.8c0.4,0.2,3.3-7.4,3.7-7.2
			c0.4,0.2-2.9,7.8-2.5,8c0.4,0.2,3.4-7.5,3.7-7.3c0.4,0.2-2.9,7.9-2.5,8.1c0.3,0.2,3.3-7.3,3.6-7.1c0.3,0.2-2.6,7.3-2.2,7.5
			c0.3,0.2,3.2-7.2,3.6-7c0.4,0.2-2.6,7.4-2.3,7.6c0.3,0.2,3.1-6.9,3.4-6.7c0.3,0.2-2.5,7.1-2.1,7.3c0.3,0.2,3.1-7,3.5-6.8
			c0.3,0.2-2.3,6.9-2,7.1c0.3,0.2,2.9-6.5,3.2-6.3c0.3,0.2-2.3,6.8-2,7c0.3,0.2,2.8-6.2,3.1-6.1c0.3,0.2-2.2,6.6-1.8,6.7
			c0.3,0.2,2.8-6.2,3.1-6c0.3,0.1-1.9,6.2-1.6,6.3c0.3,0.2,2.6-5.7,2.9-5.6c0.3,0.1-1.9,6.1-1.6,6.2c0.3,0.1,2.6-5.7,2.8-5.6
			c0.3,0.1-1.9,6.1-1.6,6.3c0.3,0.1,2.6-5.8,2.9-5.6c0.3,0.1-1.8,5.9-1.5,6c0.3,0.1,2.6-5.7,2.8-5.6c0.3,0.1-1.9,6.1-1.6,6.2
			c0.3,0.1,2.5-5.6,2.8-5.4c0.3,0.1-1.9,6.1-1.6,6.3c0.3,0.1,2.5-5.5,2.7-5.4c0.3,0.1-1.7,5.9-1.5,6c0.3,0.1,2.6-5.9,2.9-5.7
			c0.3,0.1-2,6.2-1.7,6.4c0.3,0.1,2.6-5.9,2.9-5.7c0.3,0.1-1.9,6.2-1.6,6.3c0.3,0.1,2.5-5.6,2.8-5.5c0.3,0.1-1.6,5.6-1.3,5.7
			c0.3,0.1,2.3-5.2,2.6-5.1c0.3,0.1-1.6,5.5-1.3,5.7c0.3,0.1,2.3-5.2,2.6-5.1c0.3,0.1-1.7,5.7-1.4,5.9c0.3,0.1,2.3-5.2,2.6-5
			c0.3,0.1-1.7,5.7-1.4,5.9c0.3,0.1,2.5-5.5,2.8-5.4c0.3,0.1-1.8,5.9-1.5,6c0.3,0.1,2.5-5.5,2.7-5.4c0.3,0.1-1.7,5.7-1.4,5.8
			c0.2,0.1,2.4-5.2,2.6-5.1c0.3,0.1-1.5,5.5-1.3,5.6c0.2,0.1,2.1-4.8,2.4-4.7c0.2,0.1-1.4,5.2-1.1,5.4c0.2,0.1,2.2-4.9,2.4-4.7
			c0.2,0.1-1.4,5.2-1.1,5.3c0.2,0.1,2.1-4.6,2.3-4.5c0.2,0.1-0.7,4-0.5,4.1c0.1,0.1,1.3-2.8,1.4-2.8"/>
		<path class="st0" d="M19.8,34.9c0,0,0.1-0.2,0.1-0.2c0.2,0.1-0.5,3.7-0.3,3.8c0.3,0.1,2.4-5.4,2.7-5.2c0.4,0.2-3,8.1-2.6,8.3
			c0.4,0.2,3.9-8.8,4.4-8.5c0.5,0.3-4.8,11.1-4.2,11.4c0.6,0.3,5.2-11.6,5.7-11.3c0.7,0.3-6.2,13.6-5.5,14c0.7,0.4,6.5-14.4,7.1-14
			c0.8,0.4-7.8,16.4-7,16.8c0.8,0.4,7.6-17.1,8.5-16.6c0.9,0.5-9.3,19.1-8.4,19.6c1,0.5,8.8-19.6,9.7-19.1
			c1.1,0.5-10.7,21.6-9.7,22.1c0.5,0.2,4.4-9.7,4.8-9.5c0.6,0.3-5.2,11.9-4.6,12.2c0.4,0.2,4-9,4.4-8.7c0.6,0.3-5,11.5-4.4,11.8
			c0.4,0.2,4-8.9,4.4-8.7c0.5,0.3-4.7,11-4.1,11.2c0.4,0.2,3.7-8.3,4.1-8.1c0.5,0.3-4.5,10.7-4,11c0.4,0.2,3.4-7.7,3.8-7.5
			C25.1,60,20.5,69.8,21,70c0.4,0.2,3.1-7,3.5-6.9c0.4,0.2-2.7,7.6-2.4,7.8c0.2,0.1,2.2-4.9,2.4-4.8c0.2,0.1-0.7,4.1-0.5,4.1
			c0,0,0.2-0.4,0.2-0.4"/>
	</g>
</g>
<g class="Graphic_x0020_Style_x0020_2">
	<g class="Graphic_x0020_Style_x0020_2">
		<path class="st0" d="M5.7,32.3c0,0,0.2-0.5,0.2-0.5c0.2,0.1-1,4.6-0.8,4.7c0.3,0.2,3.4-7.5,3.7-7.3c0.4,0.2-3.5,8.8-3,9.1
			c0.5,0.2,4.4-9.8,4.9-9.6C11.2,28.9,6.5,38.7,7,39c0.5,0.3,4.5-10.2,5.1-9.9C12.6,29.3,7.4,40,8,40.2c0.5,0.3,5.1-11.3,5.6-11
			c0.6,0.3-4.9,11.3-4.3,11.6c0.5,0.3,4.9-10.9,5.4-10.6c0.5,0.3-4.4,10.4-3.9,10.7c0.5,0.3,4.4-9.9,4.9-9.6
			c0.4,0.2-3.6,9.2-3.2,9.4c0.4,0.2,3.8-8.5,4.2-8.3c0.4,0.2-2.6,7.4-2.3,7.6c0.3,0.1,2.4-5.3,2.6-5.2"/>
	</g>
</g>
</svg>
