<?xml version="1.0" encoding="utf-8"?>
<!-- Generator: Adobe Illustrator 24.1.2, SVG Export Plug-In . SVG Version: 6.00 Build 0)  -->
<svg version="1.1" id="Layer_1" xmlns="http://www.w3.org/2000/svg" xmlns:xlink="http://www.w3.org/1999/xlink" x="0px" y="0px"
	 viewBox="0 0 100 100" style="enable-background:new 0 0 100 100;" xml:space="preserve">
<style type="text/css">
	.Graphic_x0020_Style_x0020_2{fill:#99CCFF;}
	.st0{fill:none;stroke:#000000;stroke-width:0.1417;stroke-linecap:round;stroke-linejoin:round;}
</style>
<g>
	<path class="Graphic_x0020_Style_x0020_2" d="M86.4,17c0.4,0,0.8,0.4,1.2,0.4c0.4,0.1,0.9-0.1,1.3,0.1c0.4,0.1,0.9,0.1,1.3,0.3
		c0.4,0.2,0.4,1,0.7,1.2c0.3,0.2,0.8,0.3,1.1,0.6c0.3,0.3,0.4,0.7,0.6,1.1c0.2,0.3,0.5,0.6,0.7,1c0.2,0.4,0.6,0.7,0.7,1.1
		c0.1,0.4,0.2,0.8,0.2,1.2c0.1,0.4,0.2,0.8,0.2,1.3c0,0.4-0.3,0.8-0.4,1.2c-0.1,0.4-0.3,0.8-0.4,1.2c-0.1,0.4,0.1,0.9-0.1,1.3
		c-0.2,0.4-0.2,0.9-0.5,1.2c-0.2,0.3-1,0.2-1.3,0.5c-0.3,0.3-0.1,1.2-0.4,1.4c-0.3,0.2-1-0.1-1.4,0.1c-0.4,0.2-0.6,0.8-1,1
		c-0.4,0.1-1-0.5-1.4-0.4c-0.4,0.1-0.8,0.8-1.2,0.8c-0.4,0-0.8-0.4-1.2-0.5c-0.4-0.1-0.8-0.1-1.2-0.2c-0.4-0.1-0.9-0.1-1.3-0.3
		c-0.4-0.2-0.9-0.3-1.2-0.6c-0.3-0.2-0.8-0.5-1.1-0.8c-0.3-0.3-0.6-0.7-0.8-1c-0.2-0.3,0.1-1.1-0.1-1.5c-0.2-0.4-0.5-0.7-0.7-1.1
		c-0.1-0.4-0.1-0.8-0.2-1.2c-0.1-0.4-0.5-0.8-0.5-1.2c0-0.4,0.3-0.8,0.4-1.3c0.1-0.4,0.5-0.7,0.6-1.1c0.1-0.4-0.1-1,0.1-1.3
		c0.2-0.4,0.6-0.6,0.8-1c0.2-0.3,0.7-0.4,1-0.7c0.3-0.3,0.3-0.9,0.6-1.2c0.3-0.2,1,0.1,1.4-0.1c0.4-0.2,0.4-1.1,0.8-1.2
		c0.4-0.1,0.9,0.2,1.3,0.1C85.6,17.2,86,17,86.4,17z"/>
</g>
<g>
	<path class="Graphic_x0020_Style_x0020_2" d="M94.7,45.4c-0.1-0.4-0.2-0.7-0.4-1.2c-0.1-0.4-0.5-0.7-0.6-1.1
		c-0.2-0.4,0.2-1,0.1-1.4c-0.2-0.4-0.7-0.6-0.9-1c-0.2-0.4-0.4-0.8-0.6-1.1c-0.2-0.4-0.7-0.6-0.9-0.9c-0.3-0.4-0.7-0.6-0.9-0.9
		c-0.2-0.3-0.4-0.4-0.9-0.6c-0.4-0.2-0.5-1.1-0.9-1.2c-0.4-0.1-0.9,0-1.3-0.1c-0.4-0.1-0.9,0-1.3,0c-0.4,0-0.9-0.3-1.3-0.3
		c-0.5,0-0.9,0.2-1.3,0.2c-0.5,0.1-0.9,0.2-1.2,0.4c-0.5,0.2-0.4,0.6-0.5,1c-0.1,0.3-0.7,0.6-0.9,1c-0.1,0.4-0.4,0.7-0.5,1.2
		c-0.1,0.4,0.3,0.9,0.2,1.4c-0.1,0.4-0.3,0.8-0.4,1.2c-0.1,0.4-0.9,0.7-1,1.1c-0.1,0.4,0.7,1,0.7,1.4c-0.1,0.5-0.8,0.9-0.7,1.2
		c0,0.4,0,0.8,0,1.3c0,0.4,0.1,0.8,0.1,1.3c0,0.4,0.3,0.8,0.4,1.3c0,0.4,0.5,0.8,0.5,1.3c0,0.4-0.6,0.9-0.6,1.3
		c0,0.4-0.2,0.8-0.2,1.3c0,0.4,0.4,0.9,0.4,1.4c-0.1,0.4-0.7,0.7-0.9,1.1c-0.1,0.4-0.3,0.8-0.4,1.1c-0.2,0.4,0.3,1.2,0,1.5
		c-0.3,0.3-0.8,0.5-1.2,0.7c-0.3,0.2-0.7,0.6-1.1,0.8c-0.4,0.1-0.9,0.3-1.3,0.4c-0.2,0-0.6,0.2-1.2,0.4c-0.4,0.1-1-0.6-1.5-0.4
		c-0.4,0.1-0.9,0.3-1.3,0.4c-0.7,0.2-0.6,0.1-1.3,0.2c-0.4,0-0.7,0.5-1.1,0.6c-0.4,0.1-0.9-0.2-1.3-0.1c-0.4,0.1-0.4,1-0.8,1.2
		c-0.3,0.2-1.1-0.1-1.4,0.1c-0.3,0.2-0.3,0.9-0.6,1.2c-0.3,0.3-0.3,0.8-0.6,1.1c-0.4,0.5-0.5,0.5-0.9,1c-0.4,0.5-0.5,0.4-1,1
		s-0.2,0.9-0.7,1.3c-0.6,0.3-0.8,0-1.4,0.1c-0.6,0.1-0.7-0.5-1.4-0.3c-0.6,0.1-0.6,0.2-1.3,0.3c-0.6,0.1-0.6,0.5-1.2,0.6
		c-0.6,0.1-0.7-0.3-1.3-0.1c-0.6,0.1-0.6,0.5-1.2,0.6c-0.6,0.1-0.6,0.5-1.2,0.6c-0.6,0.1-0.7-0.1-1.3,0C50,70,50,70,49.3,70.1
		c-0.6,0.1-0.7,0-1.3,0.1c-0.6,0.1-0.7-0.4-1.4-0.2c-0.6,0.1-0.6,0.4-1.2,0.6c-0.6,0.1-0.7-0.3-1.4-0.2c-0.6,0.1-0.5,0.8-1.2,1
		c-0.1,0-0.6-0.6-1.3-0.5c-0.4,0-0.7,0.6-1.2,0.6c-0.4,0.1-0.8,0-1.3,0.1c-0.4,0.1-0.8,0-1.3,0.1c-0.4,0.1-0.8,0.5-1.2,0.6
		c-0.4,0.1-0.8,0.2-1.2,0.2C35,72.5,34.5,72,34.1,72c-0.4,0.1-0.8,0.2-1.2,0.3c-0.4,0.1-0.8,0-1.3,0c-0.4,0.1-0.8,0.6-1.2,0.6
		c-0.4,0.1-0.8,0-1.3,0c-0.4,0.1-0.8,0.1-1.2,0.2c-0.4,0.1-0.9-0.4-1.3-0.4c-0.4,0.1-0.8,0.1-1.3,0.1c-0.4,0.1-0.8,0.6-1.2,0.7
		c-0.4,0.1-0.9-0.2-1.3-0.1c-0.4,0.1-0.9-0.1-1.3-0.1c-0.4,0.1-0.7,0.9-1.1,1c-0.4,0.1-0.9-0.2-1.3-0.2c-0.4,0.1-0.8,0.5-1.2,0.5
		c-0.4,0.1-0.9-0.4-1.3-0.3c-0.4,0.1-0.9,0-1.3,0.1c-0.4,0.1-0.9-0.2-1.3-0.1c-0.4,0.1-0.8,0.6-1.2,0.6c-0.5,0.1-0.8,0.5-1.2,0.5
		c-0.5,0.1-0.9,0.3-1.2,0.3c-0.8,0.1-0.7-0.6-1.3-0.6c-0.4,0.1-0.7,0.8-1,0.9c-0.4,0.1-1.1-0.5-1.5-0.3c-0.4,0.2-0.3,1-0.6,1.3
		c-0.3,0.3-0.3,0.7-0.4,1c-0.2,0.4-0.6,0.6-0.5,1c0,0.4,0,0.9,0.3,1.2c0.2,0.3,0.4,0.9,0.7,1.2c0.3,0.2,0.9,0.1,1.3,0.2
		c0.4,0.1,0.8,0.4,1.2,0.4c0.4,0,0.9,0.2,1.3,0.2c0.6-0.1,0.5-0.1,1.3-0.2c0.4,0,0.8-0.3,1.2-0.3c0.4,0,0.8-0.4,1.2-0.4
		c0.4,0,0.8-0.1,1.3-0.2c0.4,0,0.8-0.2,1.2-0.3c0.4,0,0.9,0.3,1.3,0.3c0.4,0,0.8,0.1,1.3,0.1c0.4,0,0.8-0.6,1.2-0.6
		c0.4,0,0.8,0,1.3-0.1c0.4,0,0.9,0.2,1.3,0.1c0.4,0,0.8,0,1.3-0.1c0.4,0,0.8-0.1,1.3-0.1c0.4,0,0.9,0.1,1.3,0.1
		c0.4,0,0.8-0.5,1.2-0.5c0.4,0,0.9,0.5,1.3,0.4c0.4,0,0.9,0.2,1.3,0.1c0.4,0,0.8-0.7,1.2-0.7c0.4,0,0.9,0.6,1.3,0.5
		c0.4,0,0.9-0.1,1.3-0.1c0.4,0,0.8-0.8,1.2-0.8c0.4,0,0.8-0.3,1.3-0.3c0.4,0,0.9,0.8,1.3,0.8c0.4,0,0.9-0.2,1.3-0.2
		c0.4,0,0.9-0.2,1.3-0.3c0.5,0,0.9,0,1.3,0c0.5,0,0.9,0,1.3,0c0.8-0.1,1.2-0.4,1.2-0.4c0.6,0,0.5-0.3,1.3-0.3c0.4,0,0.8-0.2,1.3-0.2
		c0.4,0,0.8,0.3,1.3,0.3c0.4,0,0.8,0.2,1.3,0.2c0.4,0,0.8,0.2,1.3,0.2c0.4,0,0.8-0.2,1.3-0.2c0.4,0,0.8-0.2,1.3-0.2
		c0.4,0,0.8,0.3,1.3,0.3c0.4,0,0.8-0.2,1.3-0.2c0.4,0,0.8-0.8,1.2-0.8c0.4,0,0.9,0.8,1.3,0.8c0.4,0,0.8-0.4,1.2-0.5
		c0.4,0,0.8-0.5,1.2-0.5c0.4,0,0.9,0.2,1.3,0.2c0.4,0,0.9,0.2,1.3,0.2c0.4,0,0.9,0.3,1.3,0.2c0.4,0,0.8-0.4,1.2-0.4
		c0.4,0,0.8-0.2,1.3-0.2c0.4,0,0.8-0.2,1.2-0.3c0.4-0.1,0.8-0.3,1.2-0.4c0.4-0.1,1,0.8,1.4,0.7c0.4-0.1,0.7-1.1,1.1-1.2
		c0.4-0.1,0.9,0.2,1.3,0.1c0.4-0.1,0.9-0.1,1.3-0.2c0.3-0.1,0.7-0.3,1.1-0.6c0.3-0.2,0.4-0.8,0.8-1c0.3-0.2,0.6-0.6,0.9-0.8
		c0.4-0.3,1.2,0.2,1.5,0c0.6-0.4,0.3-0.6,0.8-1c0.4-0.3,0.6-0.9,1-1.2c0.4-0.3,1.3-0.4,1.7-0.7c0.2,0.6-0.7,0.7-0.7,1.3
		c0,0.6,0.3,0.7,0.2,1.3c0,0.6,0,0.6,0,1.3c0,0.6,0.3,0.7,0.2,1.3c0,0.6-0.2,0.6-0.2,1.3c0,0.6-0.7,0.6-0.7,1.2
		c0,0.4,0.8,0.7,0.9,1.1c0.1,0.4,0,0.7,0.2,1c0.2,0.3,0.2,0.8,0.5,1c0.3,0.2,0.7,0.5,1,0.5c0.4,0,0.9,0,1.2-0.1
		c0.3-0.2,0.2-0.9,0.5-1.2c0.2-0.3,1.1-0.2,1.2-0.6c0.1-0.3-0.6-0.9-0.5-1.3c0.1-0.6,0.2-0.6,0.3-1.2c0.1-0.6,0.8-0.5,0.9-1.2
		c0.1-0.6-0.1-0.6,0-1.3c0.1-0.6-0.2-0.7-0.1-1.3c0.1-0.6,0.1-0.6,0.2-1.2c0.1-0.6,0.3-0.6,0.4-1.2c0.1-0.6-0.5-0.7-0.4-1.3
		c0.1-0.6,0.3-0.6,0.4-1.2c0.1-0.6,0.6-0.6,0.6-1.2c0.1-0.6-0.2-0.7-0.1-1.3c0.1-0.6-0.1-0.6,0.1-1.3c0.2-0.2,0.5-0.4,0.8-1
		c0.2-0.3,0.6-0.6,0.8-1c0.2-0.4,0.3-0.8,0.5-1.2c0.2-0.4,0.4-0.8,0.5-1.2c0.2-0.4,0-0.9,0.2-1.3c0.2-0.4,0.5-0.7,0.7-1.1
		c0.2-0.4,0.1-0.9,0.3-1.3c0.2-0.4,0.5-0.7,0.7-1.1c0.2-0.4,0.8-0.6,1-1c0.2-0.4-0.3-1.1-0.2-1.5c0.1-0.4,0.6-0.7,0.7-1.1
		c0.1-0.4,0.5-0.8,0.6-1.2c0.1-0.4,0.3-0.9,0.4-1.3c0.1-0.4,0.1-0.9,0.1-1.3c0-0.4-0.5-0.9-0.5-1.3c0-0.5,0.7-0.9,0.6-1.3
		C95.4,46.2,94.8,45.8,94.7,45.4z"/>
</g>
<g class="Graphic_x0020_Style">
	<g class="Graphic_x0020_Style">
		<path class="st0" d="M79.2,21.6c0,0,0.3-0.7,0.4-0.7c0.2,0.1-1.3,5.1-1.1,5.3c0.4,0.2,3.7-8.3,4.1-8.1c0.5,0.2-4,9.8-3.5,10
			c0.5,0.3,4.9-11,5.4-10.7c0.6,0.3-5.2,11.9-4.6,12.2c0.6,0.3,5.8-12.9,6.4-12.6c0.7,0.3-6.2,13.7-5.6,14c0.7,0.3,6.3-14.1,7-13.8
			c0.7,0.4-6.7,14.5-6,14.8c0.7,0.4,6.5-14.5,7.2-14.2c0.7,0.4-6.5,14.2-5.8,14.6c0.7,0.4,6.5-14.4,7.2-14.1
			c0.7,0.4-6.5,14.2-5.8,14.5c0.7,0.4,6.3-14.1,7-13.7c0.7,0.3-6.3,13.7-5.6,14.1c0.6,0.3,6.1-13.5,6.7-13.2
			c0.6,0.3-5.5,12.4-4.9,12.8c0.6,0.3,5.2-11.6,5.8-11.3c0.5,0.3-4.4,10.5-3.9,10.8c0.5,0.2,4-8.9,4.4-8.6c0.3,0.2-2.4,7.1-2.1,7.2
			c0.2,0.1,2-4.6,2.3-4.5"/>
	</g>
</g>
<g class="Graphic_x0020_Style">
	<g class="Graphic_x0020_Style">
		<path class="st0" d="M81.2,37.2c0,0,0.2-0.4,0.2-0.4c0.3,0.2-2.4,7-2.1,7.2c0.4,0.2,3.9-8.7,4.3-8.5c0.6,0.3-4.9,11.4-4.4,11.7
			c0.6,0.3,5.3-11.8,5.9-11.5c0.7,0.3-6.2,13.7-5.6,14c0.7,0.4,6.3-14.1,7-13.8c0.8,0.4-7.8,16.4-7,16.8c0.8,0.4,7.7-17.2,8.5-16.8"
			/>
		<path class="st0" d="M5.2,78.1c0,0,0.2-0.4,0.2-0.4c0.1,0.1,0,2.8,0.2,2.8c0.2,0.1,2.3-5,2.5-4.9c0.3,0.1-1.6,5.6-1.3,5.7
			c0.3,0.2,2.6-5.9,2.9-5.7c0.3,0.1-1.9,6.1-1.6,6.3c0.3,0.2,3-6.6,3.3-6.5c0.3,0.2-2,6.3-1.7,6.5c0.3,0.2,3.1-7,3.5-6.8
			c0.3,0.2-2.1,6.5-1.8,6.6c0.4,0.2,3.1-6.9,3.4-6.7c0.3,0.2-2,6.4-1.7,6.5c0.4,0.2,3.3-7.4,3.7-7.2c0.3,0.2-2.5,7.2-2.1,7.3
			c0.4,0.2,3.3-7.4,3.7-7.2c0.3,0.2-2.4,7.1-2.1,7.2c0.4,0.2,3.4-7.6,3.8-7.4c0.3,0.2-2.3,6.8-2,7c0.4,0.2,3.3-7.3,3.6-7.1
			c0.3,0.2-2.3,6.9-2,7c0.4,0.2,3.3-7.5,3.7-7.3c0.3,0.2-2.3,6.8-2,7c0.4,0.2,3.4-7.7,3.8-7.5c0.4,0.2-2.6,7.4-2.3,7.6
			c0.4,0.2,3.4-7.7,3.8-7.5c0.3,0.2-2.5,7.3-2.2,7.4c0.4,0.2,3.5-7.9,3.9-7.7c0.4,0.2-2.6,7.4-2.3,7.6c0.4,0.2,3.7-8.3,4.1-8.1
			c0.4,0.2-2.8,7.7-2.5,7.9c0.4,0.2,3.6-8.1,4-7.9c0.4,0.2-2.8,7.7-2.4,7.8c0.4,0.2,3.9-8.7,4.3-8.5c0.4,0.2-3,8-2.6,8.2
			c0.4,0.2,3.8-8.5,4.2-8.3c0.4,0.2-2.8,7.7-2.4,7.9c0.4,0.2,3.6-8,4-7.8c0.4,0.2-2.9,7.9-2.5,8.1c0.4,0.2,3.9-8.6,4.3-8.4
			c0.4,0.2-2.9,7.9-2.5,8.1c0.4,0.2,3.9-8.6,4.3-8.4c0.4,0.2-3,8.1-2.7,8.3c0.4,0.2,4-8.8,4.4-8.6c0.4,0.2-3.1,8.3-2.7,8.5
			c0.4,0.2,4.1-9.1,4.5-8.9c0.4,0.2-3.2,8.4-2.8,8.6c0.4,0.2,4-8.9,4.4-8.6c0.4,0.2-3.2,8.4-2.8,8.6c0.4,0.2,4.2-9.4,4.7-9.1
			c0.4,0.2-3.5,8.8-3,9.1c0.5,0.2,4.3-9.5,4.7-9.2c0.4,0.2-3.4,8.8-3,9c0.5,0.2,4.2-9.4,4.7-9.2c0.4,0.2-3.5,8.9-3.1,9.1
			c0.5,0.2,4.4-9.9,4.9-9.7c0.5,0.2-3.8,9.4-3.3,9.6c0.5,0.3,4.6-10.3,5.1-10c0.5,0.2-4.1,10.1-3.7,10.3c0.5,0.3,4.8-10.7,5.3-10.5
			c0.5,0.3-4.3,10.3-3.8,10.6c0.5,0.3,4.9-10.9,5.4-10.7c0.5,0.2-4.2,10.1-3.7,10.3c0.5,0.3,4.9-10.9,5.4-10.6
			c0.5,0.3-4.3,10.3-3.8,10.6c0.6,0.3,5.7-12.8,6.4-12.5c0.6,0.3-5.4,12.2-4.8,12.5c0.8,0.4,7.3-16.3,8.1-15.9
			c0.8,0.4-7.2,15.4-6.5,15.8c0.8,0.4,7.8-17.5,8.7-17.1c0.8,0.4-7.9,16.6-7.1,17.1c0.9,0.4,8.1-18.1,9-17.6
			c0.8,0.4-8.1,17-7.3,17.4c0.9,0.5,8.2-18.3,9.1-17.8c0.9,0.4-8.4,17.5-7.6,18c0.9,0.5,8.4-18.8,9.3-18.3
			c0.9,0.4-8.5,17.6-7.6,18.1c0.9,0.5,8.6-19,9.5-18.6c0.9,0.4-8.5,17.7-7.6,18.1c1,0.5,8.6-19.3,9.6-18.8
			c0.9,0.5-8.8,18.1-7.9,18.6c2.1,1,18.8-42,20.9-41c2,1-21.2,39.8-19.2,40.9c2,1,18.3-40.8,20.3-39.8c1.9,1-20.4,38.3-18.5,39.3
			c1.9,1,17.4-39,19.4-38c1.8,0.9-19.3,36.4-17.4,37.4c1.8,0.9,16.6-37.1,18.4-36.1c1.7,0.9-18.1,34.3-16.4,35.2
			c1.7,0.9,15.3-34.3,17-33.4C95,43.1,77.5,73,79,73.8c1.5,0.8,13.9-31,15.4-30.3c1.4,0.7-14.2,27.7-12.9,28.4
			c1.3,0.7,11.9-26.6,13.2-25.9c1.4,0.7-14.6,28.3-13.2,29.1c1.3,0.7,12-26.8,13.3-26.1c1.5,0.7-15.1,29.1-13.6,29.9
			c1.3,0.6,11.7-26.1,13-25.5C95.6,54,80.3,80.3,81.7,81c0.6,0.3,5.3-11.8,5.8-11.5c0.6,0.3-5.6,12.5-5,12.9c0.5,0.2,4-9,4.5-8.8
			c0.4,0.2-3.6,9.1-3.2,9.4c0.3,0.1,2.6-5.7,2.8-5.6"/>
	</g>
</g>
</svg>
