<?xml version="1.0" encoding="utf-8"?>
<!-- Generator: Adobe Illustrator 24.1.2, SVG Export Plug-In . SVG Version: 6.00 Build 0)  -->
<svg version="1.1" id="Layer_1" xmlns="http://www.w3.org/2000/svg" xmlns:xlink="http://www.w3.org/1999/xlink" x="0px" y="0px"
	 viewBox="0 0 48 48" style="enable-background:new 0 0 48 48;" xml:space="preserve">
<style type="text/css">
	.st0{fill:#FE9A2E;}
</style>
<path class="st0" d="M16.5,26.4h1.9v-4.2h2.4c0.5,0,1-0.2,1.3-0.5c0.4-0.3,0.5-0.8,0.5-1.3V18c0-0.5-0.2-1-0.5-1.3
	c-0.4-0.3-0.8-0.5-1.3-0.5h-4.3V26.4z M18.4,20.4V18h2.4v2.4H18.4z M24.8,26.4H29c0.5,0,0.9-0.2,1.3-0.5c0.4-0.3,0.6-0.8,0.5-1.3V18
	c0-0.5-0.2-1-0.5-1.3s-0.8-0.5-1.3-0.5h-4.2V26.4z M26.7,24.6V18H29v6.5L26.7,24.6z M33.3,26.4h1.8v-4.2h2.5v-1.9h-2.5V18h2.5v-1.8
	h-4.3V26.4z M13,38c-0.8,0-1.5-0.3-2.1-0.9C10.3,36.5,10,35.8,10,35V7c0-0.8,0.3-1.5,0.9-2.1C11.5,4.3,12.2,4,13,4h28
	c0.8,0,1.5,0.3,2.1,0.9C43.7,5.5,44,6.2,44,7v28c0,0.8-0.3,1.5-0.9,2.1C42.5,37.7,41.8,38,41,38H13z M13,35h28V7H13V35z M7,44
	c-0.8,0-1.5-0.3-2.1-0.9C4.3,42.5,4,41.8,4,41V10h3v31h31v3H7z M13,7v28V7z"/>
</svg>
